<?xml version="1.0" encoding="UTF-8"?>
<svg version="1.1" xmlns="http://www.w3.org/2000/svg" width="785" height="318">
<path d="M0 0 C1.30024235 -0.00407553 2.6004847 -0.00815105 3.94012833 -0.01235008 C10.09368172 -0.03125136 16.24722397 -0.04553542 22.40080059 -0.05396205 C29.46420224 -0.06380329 36.52729634 -0.09036216 43.5905894 -0.13046294 C49.75171309 -0.16423037 55.91270632 -0.1761019 62.07391739 -0.18016624 C64.68226367 -0.18503852 67.29060646 -0.19667062 69.89889145 -0.21520424 C73.52904242 -0.23944474 77.15836782 -0.23866063 80.78857422 -0.23168945 C81.86283661 -0.24449951 82.937099 -0.25730957 84.04391479 -0.27050781 C91.31493927 -0.21946347 91.31493927 -0.21946347 95.21292114 2.14265442 C98.17789751 5.48792897 98.19813344 7.42605483 98.21075439 11.82255554 C98.21646454 13.00999863 98.22217468 14.19744171 98.22805786 15.42086792 C98.22973465 17.38529343 98.22973465 17.38529343 98.23144531 19.3894043 C98.2360728 20.77734001 98.24109737 22.16527445 98.24649048 23.5532074 C98.25962646 27.33029753 98.2660622 31.10736987 98.27050114 34.88447928 C98.27343099 37.24475898 98.27753572 39.6050338 98.28200531 41.96531105 C98.29568573 49.35125477 98.30534873 56.73718738 98.3092072 64.1231429 C98.31368418 72.64630914 98.33121295 81.16931471 98.3602078 89.69243211 C98.38184243 96.28106568 98.39191249 102.86965412 98.39324832 109.45832282 C98.39429542 113.39277144 98.40018251 117.32706914 98.41806793 121.26148033 C98.43457866 124.96577001 98.4366897 128.66979584 98.42792892 132.37410927 C98.42679451 134.37544298 98.4404902 136.37676804 98.4546814 138.37805176 C98.39192988 151.91666387 98.39192988 151.91666387 94.0703125 156.23828125 C93.93722052 157.81292221 93.86694774 159.39297847 93.82421875 160.97265625 C93.77491211 162.42285156 93.77491211 162.42285156 93.72460938 163.90234375 C93.66387921 165.94391103 93.60653401 167.98558208 93.55273438 170.02734375 C93.51857422 170.99929687 93.48441406 171.97125 93.44921875 172.97265625 C93.41163452 174.30635254 93.41163452 174.30635254 93.37329102 175.66699219 C92.92740819 179.45106788 92.16477593 182.21167961 89.33984566 184.86145115 C86.53281569 186.56435791 84.80278043 186.61784068 81.53146362 186.6259613 C80.40450577 186.63586594 79.27754791 186.64577057 78.11643982 186.65597534 C76.88418167 186.65147369 75.65192352 186.64697205 74.38232422 186.64233398 C72.43044441 186.65262886 72.43044441 186.65262886 70.43913269 186.66313171 C66.87055875 186.68108271 63.30223048 186.67989007 59.73362494 186.67418933 C56.74946963 186.67109735 53.76536151 186.67719069 50.78121293 186.68322808 C43.73398485 186.69728078 36.68687794 186.69570853 29.63964844 186.68432617 C22.38692464 186.67287016 15.13457172 186.68687619 7.88189685 186.71372265 C1.64389321 186.73594264 -4.59399457 186.74250214 -10.83203495 186.73664623 C-14.55251298 186.73328729 -18.27275388 186.73561919 -21.99319839 186.75289726 C-26.15081124 186.77136131 -30.30771338 186.75711488 -34.46533203 186.73999023 C-36.29550117 186.75449219 -36.29550117 186.75449219 -38.16264343 186.76928711 C-46.58248988 186.69690001 -53.58299824 185.36369528 -60.515625 180.37890625 C-67.29577843 173.21385328 -71.02850032 166.51613136 -71.08358765 156.5475769 C-71.09218811 155.38696243 -71.10078857 154.22634796 -71.10964966 153.03056335 C-71.11390961 151.76090225 -71.11816956 150.49124115 -71.12255859 149.18310547 C-71.13046444 147.82929781 -71.13873369 146.47549224 -71.14733887 145.12168884 C-71.1735079 140.67880247 -71.18886353 136.23590693 -71.203125 131.79296875 C-71.20848719 130.2602653 -71.2138647 128.7275619 -71.21925735 127.19485855 C-71.24088048 120.81585696 -71.25961442 114.43685785 -71.27087975 108.0578289 C-71.2871016 98.93385741 -71.32024258 89.8103129 -71.37728059 80.68650234 C-71.41606768 74.26169016 -71.43552289 67.83699176 -71.44080031 61.41206563 C-71.44444243 57.57970066 -71.4563407 53.74779162 -71.48890305 49.91555405 C-71.51913825 46.30548835 -71.52524148 42.69615074 -71.51351929 39.08598518 C-71.51319588 37.14364392 -71.53755943 35.20134655 -71.56289673 33.25917053 C-71.49909513 24.22765315 -69.56066163 17.69784503 -63.82421875 10.65234375 C-55.90686791 3.84906666 -49.29482036 1.12335458 -38.82373047 0.65551758 C-37.59532346 0.59647735 -37.59532346 0.59647735 -36.34210014 0.53624439 C-24.23571317 0.01294779 -12.11544977 0.03238064 0 0 Z M71.06640625 16.69921875 C40.86309339 27.48940991 17.06594408 47.44772175 2.97607422 76.31689453 C-0.58670156 83.87458871 -2.7562364 91.88943853 -5.07080078 99.89257812 C-6.59876709 105.17379604 -8.24914048 110.39835895 -10.0390625 115.59765625 C-10.60764044 117.28343996 -11.1426214 118.98118397 -11.6328125 120.69140625 C-13.07201306 125.61146398 -15.03441459 129.00039089 -18.234375 132.98828125 C-24.40101188 140.93728794 -24.40101188 140.93728794 -26.9296875 150.23828125 C-22.40637748 148.16775202 -18.60233143 145.20871301 -14.6328125 142.2421875 C-13.09258193 141.10036917 -11.5307154 139.98389787 -9.9140625 138.953125 C-7.3780388 137.23576914 -6.0599698 135.81939654 -5.38671875 132.81640625 C-5.21192326 131.06338479 -5.09135257 129.30378665 -5.03515625 127.54296875 C-4.9296875 125.23828125 -4.9296875 125.23828125 -3.9296875 122.23828125 C-4.18685547 121.07232422 -4.18685547 121.07232422 -4.44921875 119.8828125 C-6.35785191 109.37757143 3.41670281 97.46460097 9.0703125 89.23828125 C11.94201038 85.13736519 14.96646164 81.16616331 18.0703125 77.23828125 C18.78832031 76.32691406 19.50632813 75.41554687 20.24609375 74.4765625 C24.32362867 69.39956076 28.56556581 64.49219695 32.9453125 59.67578125 C33.4098584 59.16273437 33.8744043 58.6496875 34.35302734 58.12109375 C36.49327913 55.79681007 38.42367138 54.00270866 41.0703125 52.23828125 C41.0703125 51.57828125 41.0703125 50.91828125 41.0703125 50.23828125 C46.0703125 47.73828125 46.0703125 47.73828125 51.0703125 45.23828125 C51.0703125 45.89828125 51.0703125 46.55828125 51.0703125 47.23828125 C50.51601562 47.44839844 49.96171875 47.65851563 49.390625 47.875 C46.25385878 49.71798217 44.21806242 52.27144723 41.9453125 55.05078125 C41.46376709 55.63190674 40.98222168 56.21303223 40.48608398 56.81176758 C39.00344286 58.61216957 37.53462501 60.42295197 36.0703125 62.23828125 C35.64411621 62.76389648 35.21791992 63.28951172 34.77880859 63.83105469 C12.24718121 90.03517941 12.24718121 90.03517941 0.0703125 120.23828125 C5.73884386 118.98490598 10.65136591 117.30387435 15.8203125 114.67578125 C16.51205566 114.32572021 17.20379883 113.97565918 17.91650391 113.61499023 C28.52576256 108.08009762 37.37539086 100.39275073 46.0703125 92.23828125 C46.92689453 91.47837891 46.92689453 91.47837891 47.80078125 90.703125 C49.34428559 89.34075066 49.34428559 89.34075066 51.0703125 87.23828125 C51.0703125 85.91828125 51.0703125 84.59828125 51.0703125 83.23828125 C47.1103125 82.24828125 43.1503125 81.25828125 39.0703125 80.23828125 C39.5653125 79.24828125 39.5653125 79.24828125 40.0703125 78.23828125 C43.32769002 77.16751701 46.59091499 76.23475957 49.90429688 75.35742188 C56.10500883 73.57679268 60.18885506 71.14792745 63.79296875 65.57421875 C68.09538742 56.06624979 70.68501018 46.37204531 73.0703125 36.23828125 C73.24224121 35.5333252 73.41416992 34.82836914 73.59130859 34.10205078 C75.9492821 25.70334303 75.9492821 25.70334303 75.0703125 17.23828125 C73.12698077 16.00147688 73.12698077 16.00147688 71.06640625 16.69921875 Z M-40.5703125 44.28515625 C-46.62058351 53.39701019 -49.19332708 64.50496569 -47.1796875 75.30078125 C-46.40985563 78.6490226 -45.39503895 81.85780334 -44.3046875 85.11328125 C-39.57760802 101.17545184 -47.33190457 115.00460782 -53.6796875 129.55078125 C-58.02438583 139.8805232 -62.44502084 152.32932372 -58.1328125 163.2578125 C-55.1546415 169.05548146 -50.97310022 172.17304226 -44.9296875 174.23828125 C-42.41011309 174.53169126 -42.41011309 174.53169126 -39.76170349 174.48551941 C-38.74249817 174.4897139 -37.72329285 174.49390839 -36.67320251 174.49822998 C-35.56602371 174.49261047 -34.45884491 174.48699097 -33.31811523 174.48120117 C-31.55638474 174.48404869 -31.55638474 174.48404869 -29.75906372 174.48695374 C-26.54632063 174.49001959 -23.33374779 174.48416299 -20.12102389 174.47400069 C-16.75565682 174.46519951 -13.39029384 174.46697803 -10.0249176 174.46736145 C-4.37506789 174.46642579 1.27472802 174.45775453 6.92456055 174.4440918 C13.45418703 174.42835973 19.98375464 174.42309402 26.51339871 174.42382735 C33.47000402 174.42450308 40.42658668 174.41756114 47.38318515 174.40838075 C49.38596162 174.40625081 51.38873442 174.40553976 53.39151192 174.40514183 C57.12374967 174.40297825 60.85591296 174.39423369 64.58813477 174.38354492 C65.6973378 174.38399811 66.80654083 174.38445129 67.94935608 174.38491821 C68.96574158 174.38065323 69.98212708 174.37638824 71.02931213 174.37199402 C71.91142648 174.37031817 72.79354082 174.36864233 73.7023859 174.3669157 C75.98939781 174.24267683 77.91041719 174.00047402 80.0703125 173.23828125 C81.21384166 170.95122294 81.17365689 169.64563363 81.1328125 167.11328125 C81.101875 165.19515625 81.101875 165.19515625 81.0703125 163.23828125 C79.81545044 163.25080933 78.56058838 163.2633374 77.2677002 163.27624512 C65.38204497 163.39480297 53.49638166 163.51251902 41.61071014 163.62943268 C35.50169968 163.68955055 29.39269233 163.74995439 23.28369141 163.81103516 C17.37683267 163.8700839 11.46996668 163.9283509 5.56309509 163.98609924 C3.32111847 164.00815075 1.0791445 164.03047343 -1.16282654 164.05308533 C-6.28471429 164.10466466 -11.40656107 164.15307997 -16.52856445 164.19165039 C-19.93129385 164.21735672 -23.33285451 164.2601672 -26.73510742 164.32202148 C-28.15608525 164.34048544 -29.57706494 164.35880728 -30.99804688 164.37695312 C-32.18442749 164.39818237 -33.37080811 164.41941162 -34.59313965 164.44128418 C-39.27393766 164.15649411 -43.53531589 163.63265286 -46.9296875 160.23828125 C-48.65874779 146.85490554 -43.85098106 133.61131147 -40.0546875 120.98828125 C-39.72726563 119.88726074 -39.39984375 118.78624023 -39.0625 117.65185547 C-33.48154643 99.56008265 -33.48154643 99.56008265 -26.6171875 93.98828125 C-25.83859375 93.34117187 -25.06 92.6940625 -24.2578125 92.02734375 C-22.1613275 90.41628648 -20.02797107 88.88603818 -17.8671875 87.36328125 C-8.76887223 80.63922754 -2.30636802 70.29423748 0.0703125 59.23828125 C0.30932474 56.09527027 0.3011996 52.95202133 0.3203125 49.80078125 C0.3409375 48.95451172 0.3615625 48.10824219 0.3828125 47.23632812 C0.4190397 41.45356159 -0.30212492 38.01298733 -4.39453125 33.69140625 C-9.27967476 29.70036062 -12.47717265 28.83273664 -18.796875 28.97265625 C-27.65330402 30.07565474 -35.23564042 37.62951775 -40.5703125 44.28515625 Z " fill="#094CAC" transform="translate(159.9296875,64.76171875)"/>
<path d="M0 0 C1.30024235 -0.00407553 2.6004847 -0.00815105 3.94012833 -0.01235008 C10.09368172 -0.03125136 16.24722397 -0.04553542 22.40080059 -0.05396205 C29.46420224 -0.06380329 36.52729634 -0.09036216 43.5905894 -0.13046294 C49.75171309 -0.16423037 55.91270632 -0.1761019 62.07391739 -0.18016624 C64.68226367 -0.18503852 67.29060646 -0.19667062 69.89889145 -0.21520424 C73.52904242 -0.23944474 77.15836782 -0.23866063 80.78857422 -0.23168945 C81.86283661 -0.24449951 82.937099 -0.25730957 84.04391479 -0.27050781 C91.31493927 -0.21946347 91.31493927 -0.21946347 95.21292114 2.14265442 C98.17789751 5.48792897 98.19813344 7.42605483 98.21075439 11.82255554 C98.21646454 13.00999863 98.22217468 14.19744171 98.22805786 15.42086792 C98.22973465 17.38529343 98.22973465 17.38529343 98.23144531 19.3894043 C98.2360728 20.77734001 98.24109737 22.16527445 98.24649048 23.5532074 C98.25962646 27.33029753 98.2660622 31.10736987 98.27050114 34.88447928 C98.27343099 37.24475898 98.27753572 39.6050338 98.28200531 41.96531105 C98.29568573 49.35125477 98.30534873 56.73718738 98.3092072 64.1231429 C98.31368418 72.64630914 98.33121295 81.16931471 98.3602078 89.69243211 C98.38184243 96.28106568 98.39191249 102.86965412 98.39324832 109.45832282 C98.39429542 113.39277144 98.40018251 117.32706914 98.41806793 121.26148033 C98.43457866 124.96577001 98.4366897 128.66979584 98.42792892 132.37410927 C98.42679451 134.37544298 98.4404902 136.37676804 98.4546814 138.37805176 C98.39192988 151.91666387 98.39192988 151.91666387 94.0703125 156.23828125 C93.93722052 157.81292221 93.86694774 159.39297847 93.82421875 160.97265625 C93.77491211 162.42285156 93.77491211 162.42285156 93.72460938 163.90234375 C93.66387921 165.94391103 93.60653401 167.98558208 93.55273438 170.02734375 C93.51857422 170.99929687 93.48441406 171.97125 93.44921875 172.97265625 C93.41163452 174.30635254 93.41163452 174.30635254 93.37329102 175.66699219 C92.92740819 179.45106788 92.16477593 182.21167961 89.33984566 184.86145115 C86.53281569 186.56435791 84.80278043 186.61784068 81.53146362 186.6259613 C80.40450577 186.63586594 79.27754791 186.64577057 78.11643982 186.65597534 C76.88418167 186.65147369 75.65192352 186.64697205 74.38232422 186.64233398 C72.43044441 186.65262886 72.43044441 186.65262886 70.43913269 186.66313171 C66.87055875 186.68108271 63.30223048 186.67989007 59.73362494 186.67418933 C56.74946963 186.67109735 53.76536151 186.67719069 50.78121293 186.68322808 C43.73398485 186.69728078 36.68687794 186.69570853 29.63964844 186.68432617 C22.38692464 186.67287016 15.13457172 186.68687619 7.88189685 186.71372265 C1.64389321 186.73594264 -4.59399457 186.74250214 -10.83203495 186.73664623 C-14.55251298 186.73328729 -18.27275388 186.73561919 -21.99319839 186.75289726 C-26.15081124 186.77136131 -30.30771338 186.75711488 -34.46533203 186.73999023 C-36.29550117 186.75449219 -36.29550117 186.75449219 -38.16264343 186.76928711 C-46.58248988 186.69690001 -53.58299824 185.36369528 -60.515625 180.37890625 C-67.29577843 173.21385328 -71.02850032 166.51613136 -71.08358765 156.5475769 C-71.09218811 155.38696243 -71.10078857 154.22634796 -71.10964966 153.03056335 C-71.11390961 151.76090225 -71.11816956 150.49124115 -71.12255859 149.18310547 C-71.13046444 147.82929781 -71.13873369 146.47549224 -71.14733887 145.12168884 C-71.1735079 140.67880247 -71.18886353 136.23590693 -71.203125 131.79296875 C-71.20848719 130.2602653 -71.2138647 128.7275619 -71.21925735 127.19485855 C-71.24088048 120.81585696 -71.25961442 114.43685785 -71.27087975 108.0578289 C-71.2871016 98.93385741 -71.32024258 89.8103129 -71.37728059 80.68650234 C-71.41606768 74.26169016 -71.43552289 67.83699176 -71.44080031 61.41206563 C-71.44444243 57.57970066 -71.4563407 53.74779162 -71.48890305 49.91555405 C-71.51913825 46.30548835 -71.52524148 42.69615074 -71.51351929 39.08598518 C-71.51319588 37.14364392 -71.53755943 35.20134655 -71.56289673 33.25917053 C-71.49909513 24.22765315 -69.56066163 17.69784503 -63.82421875 10.65234375 C-55.90686791 3.84906666 -49.29482036 1.12335458 -38.82373047 0.65551758 C-37.59532346 0.59647735 -37.59532346 0.59647735 -36.34210014 0.53624439 C-24.23571317 0.01294779 -12.11544977 0.03238064 0 0 Z M81.21875 4.47265625 C79.87019707 6.5459417 79.6804345 7.84597824 79.5703125 10.30078125 C79.4053125 11.60015625 79.2403125 12.89953125 79.0703125 14.23828125 C78.0803125 14.89828125 77.0903125 15.55828125 76.0703125 16.23828125 C76.2765625 17.10453125 76.4828125 17.97078125 76.6953125 18.86328125 C77.12339535 22.71602686 76.30903341 24.59626731 75.0703125 28.23828125 C74.57772447 30.75264542 74.12181722 33.27436801 73.6953125 35.80078125 C68.36735813 65.29433017 68.36735813 65.29433017 58.7109375 73.16015625 C53.46694458 75.92872394 47.87839526 77.20781495 42.0703125 78.23828125 C44.99380008 81.52158269 47.82488745 82.19695058 52.0703125 83.23828125 C51.17518526 91.07064459 45.0460791 95.1504682 39.25390625 99.7734375 C38.19470641 100.59762634 37.13344813 101.41917554 36.0703125 102.23828125 C35.5252002 102.65835449 34.98008789 103.07842773 34.41845703 103.51123047 C24.12483704 111.35129452 13.02991141 118.90555345 0.0703125 121.23828125 C0.97910156 120.90957031 1.88789063 120.58085937 2.82421875 120.2421875 C18.26497493 114.47628298 30.92683386 106.33434394 43.0703125 95.23828125 C43.92367187 94.46742188 44.77703125 93.6965625 45.65625 92.90234375 C48.54279982 90.22895904 48.54279982 90.22895904 51.0703125 87.23828125 C51.0703125 85.91828125 51.0703125 84.59828125 51.0703125 83.23828125 C47.1103125 82.24828125 43.1503125 81.25828125 39.0703125 80.23828125 C39.4003125 79.57828125 39.7303125 78.91828125 40.0703125 78.23828125 C43.32769002 77.16751701 46.59091499 76.23475957 49.90429688 75.35742188 C56.10500883 73.57679268 60.18885506 71.14792745 63.79296875 65.57421875 C68.09538742 56.06624979 70.68501018 46.37204531 73.0703125 36.23828125 C73.24224121 35.5333252 73.41416992 34.82836914 73.59130859 34.10205078 C75.9492821 25.70334303 75.9492821 25.70334303 75.0703125 17.23828125 C73.12698077 16.00147688 73.12698077 16.00147688 71.06640625 16.69921875 C40.86309339 27.48940991 17.06594408 47.44772175 2.97607422 76.31689453 C-0.58670156 83.87458871 -2.7562364 91.88943853 -5.07080078 99.89257812 C-6.59876709 105.17379604 -8.24914048 110.39835895 -10.0390625 115.59765625 C-10.60764044 117.28343996 -11.1426214 118.98118397 -11.6328125 120.69140625 C-13.07201306 125.61146398 -15.03441459 129.00039089 -18.234375 132.98828125 C-24.40101188 140.93728794 -24.40101188 140.93728794 -26.9296875 150.23828125 C-22.40637748 148.16775202 -18.60233143 145.20871301 -14.6328125 142.2421875 C-13.09258193 141.10036917 -11.5307154 139.98389787 -9.9140625 138.953125 C-7.3780388 137.23576914 -6.0599698 135.81939654 -5.38671875 132.81640625 C-5.21192326 131.06338479 -5.09135257 129.30378665 -5.03515625 127.54296875 C-4.9296875 125.23828125 -4.9296875 125.23828125 -3.9296875 122.23828125 C-4.11144531 121.47515625 -4.29320312 120.71203125 -4.48046875 119.92578125 C-5.05243767 116.50391499 -4.28891109 114.48432823 -3.1171875 111.23828125 C-2.76011719 110.22765625 -2.40304688 109.21703125 -2.03515625 108.17578125 C-1.03383728 105.51503262 0.00033096 102.87208197 1.0703125 100.23828125 C1.7303125 100.23828125 2.3903125 100.23828125 3.0703125 100.23828125 C2.64878906 101.01171875 2.22726563 101.78515625 1.79296875 102.58203125 C-2.56059156 110.85891768 -5.04670863 116.82929845 -2.9296875 126.23828125 C-3.9196875 126.73328125 -3.9196875 126.73328125 -4.9296875 127.23828125 C-4.7853125 128.43453125 -4.6409375 129.63078125 -4.4921875 130.86328125 C-4.51406348 133.36151792 -4.57683344 134.75689616 -6.06640625 136.7890625 C-7.94369111 138.4027093 -9.90701641 139.80991753 -11.9296875 141.23828125 C-12.91839844 142.02074219 -13.90710938 142.80320313 -14.92578125 143.609375 C-23.35763627 150.23828125 -23.35763627 150.23828125 -27.9296875 150.23828125 C-26.72662469 144.22296719 -23.9766622 139.86796582 -20.5859375 134.7890625 C-18.92315808 132.35698422 -18.92315808 132.35698422 -17.8984375 130.03125 C-16.9296875 128.23828125 -16.9296875 128.23828125 -13.9296875 126.23828125 C-12.96952001 123.83870068 -12.17713311 121.53981134 -11.44921875 119.0703125 C-11.23150314 118.35727463 -11.01378754 117.64423676 -10.78947449 116.90959167 C-10.33126775 115.3989415 -9.87854775 113.88661785 -9.4309082 112.37280273 C-8.74858656 110.07235568 -8.04467289 107.77936167 -7.33789062 105.48632812 C-6.89451322 104.01472 -6.45241502 102.54272575 -6.01171875 101.0703125 C-5.69772881 100.05116508 -5.69772881 100.05116508 -5.37739563 99.01142883 C-4.10541604 94.6471911 -3.7336896 90.77270923 -3.9296875 86.23828125 C-6.8996875 85.74328125 -6.8996875 85.74328125 -9.9296875 85.23828125 C-9.4346875 83.75328125 -9.4346875 83.75328125 -8.9296875 82.23828125 C-10.9096875 83.22828125 -10.9096875 83.22828125 -12.9296875 84.23828125 C-12.9296875 84.89828125 -12.9296875 85.55828125 -12.9296875 86.23828125 C-13.76886719 86.63660156 -13.76886719 86.63660156 -14.625 87.04296875 C-25.35125111 92.60607526 -32.04701943 99.39071566 -35.86328125 110.85546875 C-36.21519531 111.97179687 -36.56710938 113.088125 -36.9296875 114.23828125 C-37.4198612 115.74111774 -37.91080545 117.24370303 -38.40234375 118.74609375 C-39.72960965 122.83487614 -41.0115419 126.93580284 -42.26318359 131.04833984 C-42.82732754 132.90195567 -43.40266449 134.75215928 -43.98046875 136.6015625 C-46.14996023 144.19992364 -47.16533747 152.38655271 -45.9296875 160.23828125 C-43.64819082 162.59670932 -42.256527 163.19876604 -38.98144531 163.59472656 C-37.20012207 163.58070801 -37.20012207 163.58070801 -35.3828125 163.56640625 C-34.69545013 163.56494095 -34.00808777 163.56347565 -33.29989624 163.56196594 C-30.92614855 163.55245364 -28.55323021 163.52041274 -26.1796875 163.48828125 C-24.45882905 163.47544213 -22.73796226 163.46368731 -21.01708984 163.45288086 C-15.67640631 163.4134999 -10.3361554 163.34985405 -4.99572754 163.28509521 C-0.39793454 163.23080095 4.19994929 163.18695102 8.79785156 163.14306641 C18.75972494 163.04753974 28.72146834 162.94213659 38.68318176 162.83122253 C41.45068592 162.80072203 44.21820038 162.77133703 46.98571777 162.74206543 C51.39836648 162.69479932 55.81092246 162.64217957 60.22346115 162.58559227 C61.87772038 162.56510386 63.53200094 162.54626712 65.18629837 162.52913857 C67.46982247 162.50515008 69.75319078 162.4751572 72.03662109 162.44360352 C73.32748627 162.42805923 74.61835144 162.41251495 75.94833374 162.39649963 C79.10242158 162.37635926 79.10242158 162.37635926 82.0703125 161.23828125 C82.12447438 162.84207466 82.16317888 164.44639531 82.1953125 166.05078125 C82.21851563 166.94410156 82.24171875 167.83742187 82.265625 168.7578125 C82.0703125 171.23828125 82.0703125 171.23828125 80.0703125 174.23828125 C77.12351856 175.2205459 75.22683009 175.36395195 72.15629578 175.36526489 C71.1427301 175.36808472 70.12916443 175.37090454 69.08488464 175.37380981 C67.97365738 175.37178558 66.86243011 175.36976135 65.7175293 175.36767578 C63.96105576 175.37030426 63.96105576 175.37030426 62.1690979 175.37298584 C58.95615133 175.37663669 55.74324586 175.37577516 52.5302999 175.37260675 C49.16585437 175.37007517 45.80141158 175.37242309 42.43696594 175.37399292 C36.7835745 175.37581303 31.13019611 175.37341324 25.47680664 175.36865234 C18.94840085 175.36321792 12.42002632 175.36496705 5.89162129 175.37047875 C0.28301816 175.37502381 -5.32557558 175.37565337 -10.93417996 175.37304008 C-14.28222721 175.37148396 -17.63024802 175.37165982 -20.97829628 175.37457657 C-24.71512588 175.37711673 -28.45189557 175.37324277 -32.1887207 175.36767578 C-33.84645256 175.37071213 -33.84645256 175.37071213 -35.53767395 175.37380981 C-40.48509322 175.36015961 -45.04414176 175.06245925 -49.9296875 174.23828125 C-51.82926831 175.55146387 -51.82926831 175.55146387 -52.9296875 177.23828125 C-52.9296875 176.24828125 -52.9296875 175.25828125 -52.9296875 174.23828125 C-54.2496875 174.23828125 -55.5696875 174.23828125 -56.9296875 174.23828125 C-57.2596875 176.21828125 -57.5896875 178.19828125 -57.9296875 180.23828125 C-50.77192585 184.7030576 -44.71023574 184.80938538 -36.40112305 184.75585938 C-35.04521435 184.76128765 -33.68931155 184.76841426 -32.3334198 184.77709961 C-28.67250303 184.79524381 -25.01204005 184.78830511 -21.35111594 184.77558327 C-17.51416075 184.76541947 -13.67724305 184.77485733 -9.84028625 184.78112793 C-3.40378878 184.78839015 3.03252464 184.77884964 9.46899414 184.75976562 C16.91167452 184.73795319 24.35391732 184.74508535 31.79658729 184.76707125 C38.19338363 184.7852109 44.59004815 184.78779205 50.98686188 184.77731657 C54.80485 184.77107962 58.62263217 184.77025231 62.44060707 184.78346252 C66.02525972 184.79500135 69.60934597 184.78703244 73.1939373 184.7638855 C75.13870334 184.75606062 77.08351721 184.76796786 79.02825928 184.78039551 C80.75883324 184.76347656 80.75883324 184.76347656 82.52436829 184.74621582 C84.03112358 184.74395367 84.03112358 184.74395367 85.56831837 184.74164581 C88.2002448 184.45698381 88.2002448 184.45698381 89.89387798 182.36765289 C91.37634902 179.6843486 91.43907942 177.83063482 91.44140625 174.7734375 C91.46750977 173.20239258 91.46750977 173.20239258 91.49414062 171.59960938 C91.50323897 169.40430955 91.50846122 167.20899017 91.50976562 165.01367188 C91.52845703 163.96501953 91.54714844 162.91636719 91.56640625 161.8359375 C91.56825928 160.88211182 91.5701123 159.92828613 91.57202148 158.94555664 C92.0703125 156.23828125 92.0703125 156.23828125 94.07097149 153.94986248 C96.46360123 150.70488833 96.56702447 149.13223829 96.55805969 145.14570618 C96.56847542 143.30965317 96.56847542 143.30965317 96.57910156 141.43650818 C96.56654141 140.08828377 96.55358885 138.74006296 96.5402832 137.3918457 C96.54079222 135.96579834 96.5430493 134.53975069 96.54692078 133.1137085 C96.55233471 129.24810228 96.5329452 125.3829763 96.50881982 121.51745629 C96.48751599 117.47317515 96.48811838 113.4288956 96.48612976 109.38456726 C96.47968508 102.59638201 96.45844574 95.80837716 96.42700195 89.02026367 C96.38666338 80.30031074 96.36930699 71.58047517 96.35969257 62.86044025 C96.35139923 55.36843388 96.33416237 47.87645248 96.31465507 40.38446784 C96.308585 37.97308755 96.30344459 35.5617063 96.2983036 33.15032387 C96.28953415 29.36726406 96.27523873 25.58426264 96.2565937 21.80123901 C96.25046195 20.41044441 96.24601695 19.01964124 96.24335098 17.62883568 C96.23938096 15.73584344 96.22862617 13.842869 96.21748352 11.9499054 C96.2110733 10.35849212 96.2110733 10.35849212 96.20453358 8.73492908 C96.23666389 6.23885638 96.23666389 6.23885638 95.0703125 4.23828125 C92.36132062 3.65243397 92.36132062 3.65243397 89.1953125 3.42578125 C88.12539062 3.31621094 87.05546875 3.20664063 85.953125 3.09375 C83.10017049 2.9900015 83.10017049 2.9900015 81.21875 4.47265625 Z M-40.5703125 44.28515625 C-46.62058351 53.39701019 -49.19332708 64.50496569 -47.1796875 75.30078125 C-46.40985563 78.6490226 -45.39503895 81.85780334 -44.3046875 85.11328125 C-39.57760802 101.17545184 -47.33190457 115.00460782 -53.6796875 129.55078125 C-58.02438583 139.8805232 -62.44502084 152.32932372 -58.1328125 163.2578125 C-55.1546415 169.05548146 -50.97310022 172.17304226 -44.9296875 174.23828125 C-42.41011309 174.53169126 -42.41011309 174.53169126 -39.76170349 174.48551941 C-38.74249817 174.4897139 -37.72329285 174.49390839 -36.67320251 174.49822998 C-35.56602371 174.49261047 -34.45884491 174.48699097 -33.31811523 174.48120117 C-31.55638474 174.48404869 -31.55638474 174.48404869 -29.75906372 174.48695374 C-26.54632063 174.49001959 -23.33374779 174.48416299 -20.12102389 174.47400069 C-16.75565682 174.46519951 -13.39029384 174.46697803 -10.0249176 174.46736145 C-4.37506789 174.46642579 1.27472802 174.45775453 6.92456055 174.4440918 C13.45418703 174.42835973 19.98375464 174.42309402 26.51339871 174.42382735 C33.47000402 174.42450308 40.42658668 174.41756114 47.38318515 174.40838075 C49.38596162 174.40625081 51.38873442 174.40553976 53.39151192 174.40514183 C57.12374967 174.40297825 60.85591296 174.39423369 64.58813477 174.38354492 C65.6973378 174.38399811 66.80654083 174.38445129 67.94935608 174.38491821 C68.96574158 174.38065323 69.98212708 174.37638824 71.02931213 174.37199402 C71.91142648 174.37031817 72.79354082 174.36864233 73.7023859 174.3669157 C75.98939781 174.24267683 77.91041719 174.00047402 80.0703125 173.23828125 C81.21384166 170.95122294 81.17365689 169.64563363 81.1328125 167.11328125 C81.101875 165.19515625 81.101875 165.19515625 81.0703125 163.23828125 C79.81545044 163.25080933 78.56058838 163.2633374 77.2677002 163.27624512 C65.38204497 163.39480297 53.49638166 163.51251902 41.61071014 163.62943268 C35.50169968 163.68955055 29.39269233 163.74995439 23.28369141 163.81103516 C17.37683267 163.8700839 11.46996668 163.9283509 5.56309509 163.98609924 C3.32111847 164.00815075 1.0791445 164.03047343 -1.16282654 164.05308533 C-6.28471429 164.10466466 -11.40656107 164.15307997 -16.52856445 164.19165039 C-19.93129385 164.21735672 -23.33285451 164.2601672 -26.73510742 164.32202148 C-28.15608525 164.34048544 -29.57706494 164.35880728 -30.99804688 164.37695312 C-32.18442749 164.39818237 -33.37080811 164.41941162 -34.59313965 164.44128418 C-39.27393766 164.15649411 -43.53531589 163.63265286 -46.9296875 160.23828125 C-48.65874779 146.85490554 -43.85098106 133.61131147 -40.0546875 120.98828125 C-39.72726563 119.88726074 -39.39984375 118.78624023 -39.0625 117.65185547 C-33.48154643 99.56008265 -33.48154643 99.56008265 -26.6171875 93.98828125 C-25.83859375 93.34117187 -25.06 92.6940625 -24.2578125 92.02734375 C-22.1613275 90.41628648 -20.02797107 88.88603818 -17.8671875 87.36328125 C-8.76887223 80.63922754 -2.30636802 70.29423748 0.0703125 59.23828125 C0.30932474 56.09527027 0.3011996 52.95202133 0.3203125 49.80078125 C0.3409375 48.95451172 0.3615625 48.10824219 0.3828125 47.23632812 C0.4190397 41.45356159 -0.30212492 38.01298733 -4.39453125 33.69140625 C-9.27967476 29.70036062 -12.47717265 28.83273664 -18.796875 28.97265625 C-27.65330402 30.07565474 -35.23564042 37.62951775 -40.5703125 44.28515625 Z " fill="#0949A6" transform="translate(159.9296875,64.76171875)"/>
<path d="M0 0 C24.09 0 48.18 0 73 0 C73 6.93 73 13.86 73 21 C56.83 21 40.66 21 24 21 C24 29.58 24 38.16 24 47 C26.80371094 46.91621094 29.60742188 46.83242187 32.49609375 46.74609375 C35.19991847 46.66877518 37.90378692 46.5932123 40.60766602 46.51782227 C42.49248476 46.4643234 44.37725228 46.4089882 46.26196289 46.35180664 C48.96489411 46.2701149 51.66793839 46.1949446 54.37109375 46.12109375 C55.21900986 46.09405869 56.06692596 46.06702362 56.9405365 46.03916931 C58.95973106 45.98719474 60.98017158 45.98811787 63 46 C64 47 64 47 64.11352539 49.04125977 C64.10567017 50.35308228 64.10567017 50.35308228 64.09765625 51.69140625 C64.09515869 52.54162354 64.09266113 53.39184082 64.09008789 54.26782227 C64.08098389 55.35506592 64.07187988 56.44230957 64.0625 57.5625 C64.041875 61.006875 64.02125 64.45125 64 68 C50.8 68 37.6 68 24 68 C24 82.19 24 96.38 24 111 C16.08 111 8.16 111 0 111 C0 74.37 0 37.74 0 0 Z " fill="#181D21" transform="translate(299,102)"/>
<path d="M0 0 C9.06139906 6.35319896 13.84063377 13.94456633 16.515625 24.64453125 C17.09109262 31.55014268 17.05570317 37.04602017 14.765625 43.64453125 C-2.93655677 43.76212367 -20.55189648 43.61724127 -38.234375 42.64453125 C-37.45544938 44.09640494 -36.67041405 45.54500191 -35.8828125 46.9921875 C-35.44630371 47.79922119 -35.00979492 48.60625488 -34.56005859 49.43774414 C-32.1189675 53.50128419 -29.48185297 55.22207245 -25.05078125 56.72265625 C-11.91466578 59.89576091 0.27728772 56.80731034 12.765625 52.64453125 C12.765625 58.91453125 12.765625 65.18453125 12.765625 71.64453125 C-1.91997183 78.74256972 -17.52855004 81.31727869 -33.42578125 76.6796875 C-44.91502139 72.4451275 -53.30818172 65.87397358 -59.2265625 55.11328125 C-63.60005268 44.39992546 -64.36925704 29.75214162 -60.33203125 18.8046875 C-54.52255212 7.37179797 -44.53694675 -0.96706737 -32.4765625 -4.93359375 C-21.29276371 -7.03786251 -9.77201666 -5.92812899 0 0 Z M-35.046875 17.39453125 C-37.4386542 20.94803178 -38.32465605 23.50944513 -39.234375 27.64453125 C-36.26036164 29.13153793 -33.28618574 28.65073057 -30.0390625 28.5234375 C-29.33161896 28.49982651 -28.62417542 28.47621552 -27.89529419 28.45188904 C-25.63311745 28.37524291 -23.37128227 28.29122313 -21.109375 28.20703125 C-19.5768397 28.15381148 -18.04428766 28.10107107 -16.51171875 28.04882812 C-12.75238739 27.91962658 -8.99334592 27.78381088 -5.234375 27.64453125 C-5.65952564 26.21411788 -6.0984508 24.78779494 -6.54296875 23.36328125 C-6.78587646 22.56857422 -7.02878418 21.77386719 -7.27905273 20.95507812 C-8.91730154 16.99280193 -11.47279747 14.62023832 -15.234375 12.64453125 C-23.02614337 10.43081857 -29.158274 11.63678805 -35.046875 17.39453125 Z " fill="#1B2024" transform="translate(640.234375,135.35546875)"/>
<path d="M0 0 C7.63817348 6.23398401 10.33135327 14.3270341 11.48458862 23.91650391 C11.88858446 28.68692369 11.80814081 33.46598311 11.78515625 38.25 C11.7837413 39.37067871 11.78232635 40.49135742 11.78086853 41.64599609 C11.77530139 45.20152533 11.76275498 48.75699002 11.75 52.3125 C11.74498075 54.733072 11.74041859 57.153645 11.73632812 59.57421875 C11.72619652 65.48702363 11.70661469 71.39969014 11.6875 77.3125 C4.0975 77.3125 -3.4925 77.3125 -11.3125 77.3125 C-11.9725 75.6625 -12.6325 74.0125 -13.3125 72.3125 C-13.97636719 72.66183594 -14.64023437 73.01117188 -15.32421875 73.37109375 C-16.20722656 73.82613281 -17.09023438 74.28117187 -18 74.75 C-18.87011719 75.20246094 -19.74023438 75.65492188 -20.63671875 76.12109375 C-28.06279423 79.42759451 -37.37488797 79.44739545 -45.125 77.1875 C-51.30078649 74.77088789 -55.68592773 71.10137374 -58.75 65.1875 C-61.37299898 58.45400044 -61.70421792 50.72754123 -58.875 44 C-54.49260452 36.75624665 -48.04281052 33.0356365 -40 30.875 C-30.55684836 28.584085 -20.95667703 28.95677216 -11.3125 29.3125 C-11.90598861 27.53805943 -12.51272001 25.76804447 -13.125 24 C-13.46144531 23.01386719 -13.79789062 22.02773437 -14.14453125 21.01171875 C-15.27559379 18.39779162 -16.08967642 17.04260702 -18.3125 15.3125 C-26.45722742 12.59759086 -36.38555132 13.50136697 -44.08984375 17.08984375 C-47.05435633 18.72058617 -49.92118334 20.45611243 -52.71875 22.359375 C-54.3125 23.3125 -54.3125 23.3125 -56.3125 23.3125 C-56.3125 16.7125 -56.3125 10.1125 -56.3125 3.3125 C-40.04648681 -6.31869202 -16.86317946 -11.41842594 0 0 Z M-36.3125 48.3125 C-36.87302063 51.69922465 -36.82663782 54.92137819 -36.3125 58.3125 C-34.16807295 61.21785278 -32.73148147 62.06730835 -29.1875 62.6796875 C-23.7511806 62.99190855 -20.52691328 61.93885561 -16.3125 58.3125 C-12.05815472 54.40310164 -11.74503831 50.84178965 -11.390625 45.32421875 C-11.36484375 44.66035156 -11.3390625 43.99648437 -11.3125 43.3125 C-14.02144767 43.23105057 -16.72791263 43.17179386 -19.4375 43.125 C-20.57832031 43.08729492 -20.57832031 43.08729492 -21.7421875 43.04882812 C-27.66544462 42.97223428 -31.96657894 43.96657894 -36.3125 48.3125 Z " fill="#1A1F23" transform="translate(478.3125,135.6875)"/>
<path d="M0 0 C8.25 0 16.5 0 25 0 C29.5 10.125 29.5 10.125 30.73925781 13.96899414 C31.01924622 14.8292067 31.29923462 15.68941925 31.58770752 16.57569885 C32.01608917 17.91688026 32.01608917 17.91688026 32.453125 19.28515625 C32.75820984 20.22685165 33.06329468 21.16854706 33.37762451 22.13877869 C34.33968289 25.11188997 35.2949493 28.08713118 36.25 31.0625 C36.9058 33.09324433 37.56204583 35.12384475 38.21875 37.15429688 C39.81765549 42.10121685 41.41047849 47.05005723 43 52 C45.70794514 49.29205486 46.4878786 46.15918111 47.6796875 42.60546875 C47.93372345 41.86226883 48.1877594 41.11906891 48.44949341 40.35334778 C48.98844789 38.77304026 49.52457411 37.19176581 50.05810547 35.60961914 C50.85961379 33.23312063 51.66917413 30.85950118 52.48046875 28.48632812 C55.19998111 20.49958173 57.81523225 12.51031834 60.14501953 4.3996582 C61 2 61 2 63 0 C65.43017578 -0.22705078 65.43017578 -0.22705078 68.4453125 -0.1953125 C70.05986328 -0.18564453 70.05986328 -0.18564453 71.70703125 -0.17578125 C72.83496094 -0.15902344 73.96289062 -0.14226562 75.125 -0.125 C76.82849609 -0.11146484 76.82849609 -0.11146484 78.56640625 -0.09765625 C81.37781299 -0.07403098 84.18880298 -0.04109013 87 0 C84.55999309 9.21405146 80.94685411 17.93389567 77.375 26.75 C76.74388819 28.31708566 76.11311286 29.88430686 75.48266602 31.45166016 C71.64523321 40.98088058 67.7710418 50.49509895 63.85888672 59.99389648 C61.42924672 65.90384734 59.10605634 71.84381407 56.875 77.83203125 C56 80 56 80 55 81 C53.14630389 81.08737645 51.28932459 81.10698153 49.43359375 81.09765625 C48.30888672 81.09443359 47.18417969 81.09121094 46.02539062 81.08789062 C44.84138672 81.07951172 43.65738281 81.07113281 42.4375 81.0625 C41.24962891 81.05798828 40.06175781 81.05347656 38.83789062 81.04882812 C35.89187774 81.03699675 32.94596319 81.02051287 30 81 C26.83229063 74.26802274 23.99501908 67.55102275 21.625 60.5 C21.01950104 58.73654194 20.41270005 56.97353049 19.8046875 55.2109375 C19.35174316 53.89561035 19.35174316 53.89561035 18.88964844 52.55371094 C17.5564074 48.72667985 16.15925275 44.92458315 14.75 41.125 C14.47679932 40.38717285 14.20359863 39.6493457 13.92211914 38.88916016 C13.31338019 37.24568333 12.70439565 35.60229747 12.09521484 33.95898438 C9.99738415 28.29119392 7.90930293 22.6198284 5.82458496 16.94720459 C5.31733855 15.56793798 4.80944663 14.18890859 4.30090332 12.81011963 C3.58583455 10.8713521 2.87277007 8.93185847 2.16015625 6.9921875 C1.74386963 5.86151855 1.32758301 4.73084961 0.89868164 3.56591797 C0 1 0 1 0 0 Z " fill="#1B1F24" transform="translate(492,132)"/>
<path d="M0 0 C0 40.59 0 81.18 0 123 C-7.59 123 -15.18 123 -23 123 C-23.81464408 119.74142366 -24.1329363 117.47054795 -24.15821838 114.19110107 C-24.1680072 113.22638885 -24.17779602 112.26167664 -24.18788147 111.26773071 C-24.19363693 110.21612762 -24.1993924 109.16452454 -24.20532227 108.08105469 C-24.21522186 106.96856354 -24.22512146 105.85607239 -24.23532104 104.70986938 C-24.26692316 101.03055962 -24.29168852 97.35123693 -24.31640625 93.671875 C-24.33697688 91.12168033 -24.35797338 88.57148906 -24.37937927 86.02130127 C-24.42894485 79.99365862 -24.47421311 73.96599849 -24.51740164 67.938308 C-24.56681736 61.0749532 -24.62171939 54.21164571 -24.67708123 47.3483367 C-24.79082349 33.23226864 -24.89767936 19.11615514 -25 5 C-23.5703295 4.51972974 -22.14033461 4.04042507 -20.71020508 3.56152344 C-19.5157653 3.16099762 -19.5157653 3.16099762 -18.29719543 2.75238037 C-15.44964885 1.81974829 -12.58763297 1.0028822 -9.6875 0.25 C-8.70136719 -0.01296875 -7.71523438 -0.2759375 -6.69921875 -0.546875 C-4 -1 -4 -1 0 0 Z " fill="#1B1F23" transform="translate(406,90)"/>
<path d="M0 0 C0 40.92 0 81.84 0 124 C-7.26 124 -14.52 124 -22 124 C-22.02505615 120.60307861 -22.0501123 117.20615723 -22.07592773 113.70629883 C-22.15935541 102.49048001 -22.24799868 91.27470648 -22.33933926 80.05894947 C-22.39459834 73.25798549 -22.4480682 66.45701626 -22.49731445 59.65600586 C-22.54483306 53.09428325 -22.59735301 46.53261302 -22.65294075 39.97095299 C-22.67334155 37.4659117 -22.69205838 34.96085613 -22.70907402 32.45578957 C-22.73316822 28.95069839 -22.76321621 25.44570553 -22.79467773 21.94067383 C-22.8004332 20.90201675 -22.80618866 19.86335968 -22.81211853 18.79322815 C-22.82190735 17.83555542 -22.83169617 16.87788269 -22.84178162 15.89118958 C-22.84823417 15.06249768 -22.85468672 14.23380579 -22.8613348 13.38000202 C-23.00904972 10.84467372 -23.44697465 8.4759759 -24 6 C-20.75274421 4.99093539 -17.50178926 3.99434878 -14.25 3 C-13.32960938 2.71382813 -12.40921875 2.42765625 -11.4609375 2.1328125 C-10.57148437 1.86210938 -9.68203125 1.59140625 -8.765625 1.3125 C-7.94868164 1.06113281 -7.13173828 0.80976562 -6.29003906 0.55078125 C-4 0 -4 0 0 0 Z " fill="#1B1F23" transform="translate(691,89)"/>
<path d="M0 0 C4.6225556 2.75001351 8.30291931 7.10797667 9.99609375 12.1875 C11.08919681 27.4909428 8.1905113 39.60566546 -1.00390625 52.1875 C-1.59429687 53.01765625 -2.1846875 53.8478125 -2.79296875 54.703125 C-5.94513711 58.24513751 -9.70784123 60.56482663 -13.6953125 63.0859375 C-23.34771377 69.57670625 -26.43780633 79.2636941 -29.69140625 90 C-30.06845703 91.19431641 -30.44550781 92.38863281 -30.83398438 93.61914062 C-35.7093309 108.68335196 -35.7093309 108.68335196 -37.37890625 124.3125 C-37.38664062 125.57320313 -37.394375 126.83390625 -37.40234375 128.1328125 C-37.27085938 129.14085937 -37.139375 130.14890625 -37.00390625 131.1875 C-33.31401953 133.64742448 -30.55524179 133.45061044 -26.29125977 133.40039062 C-25.11314507 133.39823044 -25.11314507 133.39823044 -23.91123009 133.39602661 C-21.29744652 133.38848939 -18.68400668 133.36627767 -16.0703125 133.34375 C-14.22498391 133.33487052 -12.37965177 133.32670436 -10.53431702 133.31921387 C-4.69068553 133.2912258 1.15265075 133.24133571 6.99609375 133.1875 C7.93186501 133.17924194 8.86763626 133.17098389 9.83176422 133.16247559 C22.65060605 133.04862598 35.46878286 132.89405066 48.2869873 132.72393799 C53.02268055 132.66167838 57.75841224 132.6024843 62.49414062 132.54296875 C71.66149646 132.42733927 80.82880796 132.30854789 89.99609375 132.1875 C91.58861018 135.37253287 91.38739136 138.7207405 90.99609375 142.1875 C89.2535603 145.42363354 88.52423431 146.01145315 84.99609375 147.1875 C83.364718 147.28336773 81.72971608 147.32241247 80.09553528 147.32794189 C79.08485992 147.33365204 78.07418457 147.33936218 77.03288269 147.34524536 C75.92479752 147.34636322 74.81671234 147.34748108 73.67504883 147.34863281 C72.50727905 147.35359772 71.33950928 147.35856262 70.13635254 147.36367798 C66.26277075 147.37831438 62.38922993 147.38510468 58.515625 147.390625 C57.18006554 147.39336102 55.84450632 147.39621742 54.50894737 147.39919281 C48.23199007 147.4128676 41.95504582 147.42253329 35.67807466 147.4263947 C28.44366754 147.43086997 21.20944987 147.44839305 13.97510034 147.4773953 C8.37665576 147.49905608 2.77826429 147.50910139 -2.82022172 147.51043582 C-6.16061208 147.51148109 -9.50068315 147.51878677 -12.84105492 147.53525543 C-16.57281138 147.55233777 -20.30410881 147.55042975 -24.03588867 147.54394531 C-25.13385269 147.5531601 -26.23181671 147.56237488 -27.36305237 147.5718689 C-34.6121822 147.53247339 -40.65572134 146.92982288 -46.46484375 142.171875 C-51.79867224 135.94544665 -54.25337492 131.34347677 -54.06640625 123 C-52.59223932 109.25253632 -46.04252955 95.83914231 -40.58178711 83.27905273 C-40.25960205 82.53727783 -39.93741699 81.79550293 -39.60546875 81.03125 C-39.32010254 80.38349609 -39.03473633 79.73574219 -38.74072266 79.06835938 C-35.55797776 70.94381773 -35.85636627 61.41624172 -39.00390625 53.375 C-42.76563864 43.32580062 -42.55262034 31.45739179 -38.25 21.6015625 C-33.24972587 11.91451106 -26.28977772 3.95037387 -16.25390625 -0.875 C-10.47385495 -2.54232249 -5.53059675 -2.24242519 0 0 Z M-32.64453125 15.234375 C-38.69480226 24.34622894 -41.26754583 35.45418444 -39.25390625 46.25 C-38.48407438 49.59824135 -37.4692577 52.80702209 -36.37890625 56.0625 C-31.65182677 72.12467059 -39.40612332 85.95382657 -45.75390625 100.5 C-50.09860458 110.82974195 -54.51923959 123.27854247 -50.20703125 134.20703125 C-47.22886025 140.00470021 -43.04731897 143.12226101 -37.00390625 145.1875 C-34.48433184 145.48091001 -34.48433184 145.48091001 -31.83592224 145.43473816 C-30.81671692 145.43893265 -29.7975116 145.44312714 -28.74742126 145.44744873 C-27.64024246 145.44182922 -26.53306366 145.43620972 -25.39233398 145.43041992 C-23.63060349 145.43326744 -23.63060349 145.43326744 -21.83328247 145.43617249 C-18.62053938 145.43923834 -15.40796654 145.43338174 -12.19524264 145.42321944 C-8.82987557 145.41441826 -5.46451259 145.41619678 -2.09913635 145.4165802 C3.55071336 145.41564454 9.20050927 145.40697328 14.8503418 145.39331055 C21.37996828 145.37757848 27.90953589 145.37231277 34.43917996 145.3730461 C41.39578527 145.37372183 48.35236793 145.36677989 55.3089664 145.3575995 C57.31174287 145.35546956 59.31451567 145.35475851 61.31729317 145.35436058 C65.04953092 145.352197 68.78169421 145.34345244 72.51391602 145.33276367 C73.62311905 145.33321686 74.73232208 145.33367004 75.87513733 145.33413696 C76.89152283 145.32987198 77.90790833 145.32560699 78.95509338 145.32121277 C79.83720773 145.31953692 80.71932207 145.31786108 81.62816715 145.31613445 C83.91517906 145.19189558 85.83619844 144.94969277 87.99609375 144.1875 C89.13962291 141.90044169 89.09943814 140.59485238 89.05859375 138.0625 C89.02765625 136.144375 89.02765625 136.144375 88.99609375 134.1875 C87.74123169 134.20002808 86.48636963 134.21255615 85.19348145 134.22546387 C73.30782622 134.34402172 61.42216291 134.46173777 49.53649139 134.57865143 C43.42748093 134.6387693 37.31847358 134.69917314 31.20947266 134.76025391 C25.30261392 134.81930265 19.39574793 134.87756965 13.48887634 134.93531799 C11.24689972 134.9573695 9.00492575 134.97969218 6.76295471 135.00230408 C1.64106696 135.05388341 -3.48077982 135.10229872 -8.6027832 135.14086914 C-12.0055126 135.16657547 -15.40707326 135.20938595 -18.80932617 135.27124023 C-20.230304 135.28970419 -21.65128369 135.30802603 -23.07226562 135.32617188 C-24.25864624 135.34740112 -25.44502686 135.36863037 -26.6673584 135.39050293 C-31.34815641 135.10571286 -35.60953464 134.58187161 -39.00390625 131.1875 C-40.73296654 117.80412429 -35.92519981 104.56053022 -32.12890625 91.9375 C-31.80148438 90.83647949 -31.4740625 89.73545898 -31.13671875 88.60107422 C-25.55576518 70.5093014 -25.55576518 70.5093014 -18.69140625 64.9375 C-17.9128125 64.29039062 -17.13421875 63.64328125 -16.33203125 62.9765625 C-14.23554625 61.36550523 -12.10218982 59.83525693 -9.94140625 58.3125 C-0.84309098 51.58844629 5.61941323 41.24345623 7.99609375 30.1875 C8.23510599 27.04448902 8.22698085 23.90124008 8.24609375 20.75 C8.26671875 19.90373047 8.28734375 19.05746094 8.30859375 18.18554688 C8.34482095 12.40278034 7.62365633 8.96220608 3.53125 4.640625 C-1.35389351 0.64957937 -4.5513914 -0.21804461 -10.87109375 -0.078125 C-19.72752277 1.02487349 -27.30985917 8.5787365 -32.64453125 15.234375 Z " fill="#0A2E75" transform="translate(152.00390625,93.8125)"/>
<path d="M0 0 C2.52567367 3.78851051 1.82914492 5.79268179 1 10 C0.84740723 10.84949219 0.69481445 11.69898437 0.53759766 12.57421875 C-1.78357184 25.26298698 -4.36630263 37.33885221 -10 49 C-10.56460938 50.24136719 -10.56460938 50.24136719 -11.140625 51.5078125 C-14.2311656 57.40595689 -18.89766532 59.71970247 -25 62 C-27.66832751 62.82069332 -30.25948343 63.44174662 -33 64 C-30.03 64.99 -27.06 65.98 -24 67 C-23.125 69.0625 -23.125 69.0625 -23 72 C-27.51338226 78.51932994 -33.75795685 83.19903081 -40 88 C-40.54221191 88.41717285 -41.08442383 88.8343457 -41.64306641 89.26416016 C-51.93980423 97.10801797 -63.03502599 104.66630468 -76 107 C-76.495 106.01 -76.495 106.01 -77 105 C-76.15179688 104.731875 -75.30359375 104.46375 -74.4296875 104.1875 C-56.39141206 98.16152667 -38.03468491 87.08068456 -26 72 C-25.23898977 69.85623971 -25.23898977 69.85623971 -25 68 C-26.85625 67.814375 -26.85625 67.814375 -28.75 67.625 C-31.8762197 67.24253695 -34.28879237 66.69450477 -37 65 C-36.505 63.515 -36.505 63.515 -36 62 C-33.40585922 61.05533001 -30.90828775 60.27153274 -28.25 59.5625 C-21.87859334 57.86078437 -17.09122145 56.30272233 -13.375 50.43359375 C-8.99838884 40.8970575 -6.39775478 31.18666732 -4 21 C-3.82807129 20.29504395 -3.65614258 19.59008789 -3.47900391 18.86376953 C-1.32555908 10.47310591 -1.32555908 10.47310591 -2 2 C-8.85911591 3.82628008 -15.00315866 6.20073286 -21.25 9.5625 C-22.06847412 9.99941162 -22.88694824 10.43632324 -23.73022461 10.88647461 C-52.31438598 26.47504421 -69.6976214 49.21567575 -78.84716797 80.20898438 C-79.28102736 81.69001224 -79.71235977 83.17178281 -80.14111328 84.65429688 C-81.66907959 89.93551479 -83.31945298 95.1600777 -85.109375 100.359375 C-85.67795294 102.04515871 -86.2129339 103.74290272 -86.703125 105.453125 C-88.14254532 110.373934 -90.10283029 113.76489053 -93.30859375 117.75 C-97.20230412 122.92962396 -100.94584224 128.83752671 -103 135 C-102.19949219 134.36384766 -102.19949219 134.36384766 -101.3828125 133.71484375 C-96.35836806 129.759615 -91.23613755 126.00820578 -85.96875 122.3828125 C-84.09065412 121.14805853 -84.09065412 121.14805853 -83 120 C-82.79095567 118.37990641 -82.63214143 116.75317119 -82.5 115.125 C-82.25720584 112.15077151 -81.94974929 109.84924786 -81 107 C-81.27070313 105.8553125 -81.27070313 105.8553125 -81.546875 104.6875 C-82.12158443 101.27887853 -81.3922453 99.24463881 -80.25 96 C-79.90453125 94.989375 -79.5590625 93.97875 -79.203125 92.9375 C-78.02599644 90.06347184 -76.77869842 87.54634721 -75 85 C-74.34 85 -73.68 85 -73 85 C-74.01437443 87.54741089 -75.03718295 90.08789892 -76.10546875 92.61328125 C-78.57360887 98.77026617 -79.15796793 102.51537959 -78 109 C-78.66 109.99 -79.32 110.98 -80 112 C-79.87625 113.2375 -79.7525 114.475 -79.625 115.75 C-79.57616488 118.43104799 -79.70292751 119.61277545 -81.3515625 121.76171875 C-83.48412839 123.64416889 -85.70697976 125.31611796 -88 127 C-89.49853516 128.22396484 -89.49853516 128.22396484 -91.02734375 129.47265625 C-99.24685494 136.06575891 -99.24685494 136.06575891 -102.86328125 135.75 C-103.92095703 135.37875 -103.92095703 135.37875 -105 135 C-103.8067169 129.03358452 -101.10213974 124.69609835 -97.75390625 119.6484375 C-96.58075892 117.8769589 -95.46291375 116.06764978 -94.40234375 114.2265625 C-93 112 -93 112 -91 111 C-90.12200259 108.55680226 -89.35933691 106.1517171 -88.64453125 103.66015625 C-88.18623752 102.11495435 -87.72781797 100.56978976 -87.26928711 99.0246582 C-87.03160614 98.21356598 -86.79392517 97.40247375 -86.54904175 96.56680298 C-78.88046003 70.49298968 -71.17218709 46.2285748 -51 27 C-50.11183594 26.14148438 -49.22367188 25.28296875 -48.30859375 24.3984375 C-37.25779152 14.49515812 -15.60996217 -1.65000991 0 0 Z " fill="#0B2C74" transform="translate(236,80)"/>
<path d="M0 0 C0.66 0.33 1.32 0.66 2 1 C2 41.59 2 82.18 2 124 C-5.59 124 -13.18 124 -21 124 C-21.81464408 120.74142366 -22.1329363 118.47054795 -22.15821838 115.19110107 C-22.1680072 114.22638885 -22.17779602 113.26167664 -22.18788147 112.26773071 C-22.19363693 111.21612762 -22.1993924 110.16452454 -22.20532227 109.08105469 C-22.21522186 107.96856354 -22.22512146 106.85607239 -22.23532104 105.70986938 C-22.26692316 102.03055962 -22.29168852 98.35123693 -22.31640625 94.671875 C-22.33697688 92.12168033 -22.35797338 89.57148906 -22.37937927 87.02130127 C-22.42894485 80.99365862 -22.47421311 74.96599849 -22.51740164 68.938308 C-22.56681736 62.0749532 -22.62171939 55.21164571 -22.67708123 48.3483367 C-22.79082349 34.23226864 -22.89767936 20.11615514 -23 6 C-21.58398286 5.51891725 -20.16715563 5.04021859 -18.75 4.5625 C-17.96109375 4.29566406 -17.1721875 4.02882813 -16.359375 3.75390625 C-11.72902723 2.27434148 -7.90379467 1.90569626 -3 2 C-6.58727128 4.08351615 -10.20694042 4.80141379 -14.25 5.625 C-16.14492188 6.01558594 -16.14492188 6.01558594 -18.078125 6.4140625 C-19.04234375 6.60742188 -20.0065625 6.80078125 -21 7 C-20.51202438 7.9075428 -20.51202438 7.9075428 -20.01419067 8.8334198 C-18.53679057 13.44626633 -18.73869174 17.85052353 -18.77294922 22.6652832 C-18.77265717 23.7389061 -18.77236511 24.81252899 -18.77206421 25.91868591 C-18.7734561 29.46280027 -18.78901098 33.00670367 -18.8046875 36.55078125 C-18.80841812 39.0098611 -18.81126486 41.46894243 -18.81326294 43.92802429 C-18.8208955 50.39710603 -18.84054087 56.86609782 -18.8626709 63.33514404 C-18.88313738 69.93760969 -18.89226638 76.54008989 -18.90234375 83.14257812 C-18.92378701 96.09509158 -18.95791851 109.04753831 -19 122 C-12.73 122 -6.46 122 0 122 C-0.01474869 120.48632339 -0.02949738 118.97264679 -0.04469299 117.4131012 C-0.18269249 103.18294242 -0.31549547 88.95274583 -0.4429636 74.72248936 C-0.50863848 67.40570328 -0.57620836 60.08894374 -0.64819336 52.7722168 C-0.71090865 46.3972009 -0.77011536 40.02216389 -0.82505554 33.64707607 C-0.85428729 30.26949826 -0.88531202 26.89195782 -0.92053413 23.51443672 C-0.95891102 19.74996474 -0.99108619 15.985489 -1.02172852 12.22094727 C-1.03467453 11.09310318 -1.04762054 9.96525909 -1.06095886 8.80323792 C-1.06799835 7.78375061 -1.07503784 6.76426331 -1.08229065 5.71388245 C-1.09058679 4.82250863 -1.09888292 3.93113482 -1.10743046 3.01274967 C-1 1 -1 1 0 0 Z " fill="#0D0D10" transform="translate(404,89)"/>
<path d="M0 0 C0 0.66 0 1.32 0 2 C-0.71542969 2.56460938 -1.43085938 3.12921875 -2.16796875 3.7109375 C-5.45568818 6.36832175 -7.77199061 9.27509673 -10.3125 12.625 C-11.28847276 13.89368306 -12.26503771 15.16191078 -13.2421875 16.4296875 C-13.71495117 17.04553711 -14.18771484 17.66138672 -14.67480469 18.29589844 C-16.38000255 20.48865472 -18.16006843 22.61559473 -19.9375 24.75 C-28.25242801 35.15214463 -35.30516373 46.57180519 -42 58.0625 C-42.66672729 59.20319946 -42.66672729 59.20319946 -43.34692383 60.36694336 C-46.25276701 65.43870823 -48.72503566 70.61681798 -51 76 C-49.39566191 75.52140759 -47.79153584 75.04210442 -46.1875 74.5625 C-45.29417969 74.29566406 -44.40085938 74.02882813 -43.48046875 73.75390625 C-41.64526945 73.19612127 -39.81966274 72.60655425 -38 72 C-38.625 73.875 -38.625 73.875 -40 76 C-42.8125 77.125 -42.8125 77.125 -46 78 C-47.67163195 78.65411685 -49.34015202 79.31653318 -51 80 C-53.13034058 78.33277694 -53.98138707 77.04963448 -54.9375 74.5 C-55.03214967 69.19961841 -52.99676984 64.84728227 -51 60 C-49.54188725 56.36812152 -49.54188725 56.36812152 -48.21484375 52.6875 C-46.45567031 48.79582371 -44.03890602 45.46774656 -41.5625 42 C-40.76332153 40.87549438 -40.76332153 40.87549438 -39.94799805 39.72827148 C-34.9837261 32.82908591 -29.63371106 26.35792504 -24 20 C-23.14792969 19.03707031 -22.29585937 18.07414062 -21.41796875 17.08203125 C-19.29497343 14.70523681 -17.16608102 12.33756244 -15 10 C-14.46375 9.41476563 -13.9275 8.82953125 -13.375 8.2265625 C-12 7 -12 7 -10 7 C-10 6.34 -10 5.68 -10 5 C-4.76190476 0 -4.76190476 0 0 0 Z " fill="#124FAC" transform="translate(211,110)"/>
<path d="M0 0 C1.10007889 -0.0098568 1.10007889 -0.0098568 2.22238159 -0.01991272 C4.6602996 -0.03969466 7.09815581 -0.05132045 9.53613281 -0.0612793 C10.36744972 -0.06535482 11.19876663 -0.06943035 12.05527496 -0.07362938 C16.45709487 -0.09451321 20.8588834 -0.10880361 25.26074219 -0.11816406 C29.80835086 -0.12922017 34.35546907 -0.16360387 38.90290451 -0.20333576 C42.39793812 -0.2294861 45.89285476 -0.23785458 49.3879776 -0.24144554 C51.0641129 -0.24631736 52.74024276 -0.25794835 54.41628265 -0.27648354 C56.76489489 -0.30083731 59.11223759 -0.29991719 61.4609375 -0.29296875 C62.49760056 -0.31218384 62.49760056 -0.31218384 63.5552063 -0.33178711 C68.28914516 -0.28081578 70.66102146 0.84296365 73.98925781 4.17700195 C75.31424372 6.82697378 75.11819331 8.81946454 75.12297058 11.78819275 C75.12936806 13.57802834 75.12936806 13.57802834 75.13589478 15.40402222 C75.135215 17.37787399 75.135215 17.37787399 75.13452148 19.39160156 C75.13751236 20.78602692 75.14091473 22.18045145 75.1446991 23.57487488 C75.15355032 27.36822974 75.15587767 31.16156206 75.15651488 34.95492625 C75.15746311 38.11856913 75.1611404 41.28220672 75.16468698 44.44584757 C75.17283572 51.90791151 75.17527082 59.36996338 75.17456055 66.83203125 C75.17395955 74.53689953 75.18451467 82.24169784 75.20030421 89.9465484 C75.21336673 96.55550147 75.21874499 103.16443162 75.21810514 109.77339751 C75.21784978 113.72333042 75.22072168 117.67320117 75.23128319 121.62312126 C75.24094262 125.33720696 75.24105826 129.05117078 75.23376656 132.7652607 C75.23221719 134.78166415 75.24058238 136.79806752 75.24920654 138.81445312 C75.24501205 140.01049667 75.24081757 141.20654022 75.23649597 142.43882751 C75.23704074 143.48062133 75.23758551 144.52241514 75.23814678 145.59577847 C74.98925781 148.17700195 74.98925781 148.17700195 72.98925781 151.17700195 C72.98429259 150.06021325 72.98429259 150.06021325 72.97922707 148.92086315 C72.89806635 130.81900134 72.80599678 112.71722526 72.70173073 94.61548138 C72.65157287 85.86167339 72.60513036 77.10787493 72.56738281 68.35400391 C72.53447916 60.72563331 72.49465704 53.09733586 72.44646776 45.46904594 C72.42118651 41.42856739 72.39941009 37.38813747 72.38591385 33.34760094 C72.37310816 29.54649263 72.3510701 25.74555098 72.32187462 21.9445343 C72.31278712 20.54772553 72.30710588 19.15088992 72.30504417 17.75405312 C72.30173008 15.85017308 72.28509184 13.94633001 72.26773071 12.04252625 C72.26219995 10.97601176 72.2566692 9.90949728 72.25097084 8.81066418 C72.17451656 5.94604404 72.17451656 5.94604404 69.98925781 3.17700195 C66.82209831 2.74990343 66.82209831 2.74990343 63.03271484 2.86816406 C61.95926819 2.87232582 61.95926819 2.87232582 60.86413574 2.87657166 C58.49147372 2.88888646 56.11953605 2.92197947 53.74707031 2.9543457 C52.10042257 2.96501887 50.45376362 2.97407645 48.80709839 2.98158264 C44.46506771 3.00440744 40.1233554 3.0434576 35.78149414 3.08758545 C28.8385283 3.15765062 21.89557865 3.21305337 14.95235825 3.24994087 C12.52593642 3.26664696 10.0998977 3.29620994 7.6736145 3.3266449 C6.18394324 3.33710772 4.69426833 3.34706807 3.20458984 3.35644531 C1.90490265 3.36993515 0.60521545 3.38342499 -0.7338562 3.39732361 C-3.79709823 3.19136632 -5.45818313 2.80635221 -8.01074219 1.17700195 C-6.1028173 -0.73092293 -2.59844098 0.00999271 0 0 Z " fill="#0D3087" transform="translate(183.0107421875,64.822998046875)"/>
<path d="M0 0 C0 40.92 0 81.84 0 124 C-7.26 124 -14.52 124 -22 124 C-22.33 86.38 -22.66 48.76 -23 10 C-22.34 9.67 -21.68 9.34 -21 9 C-21 46.29 -21 83.58 -21 122 C-14.73 122 -8.46 122 -2 122 C-2.33 82.73 -2.66 43.46 -3 3 C-6.63 3.99 -10.26 4.98 -14 6 C-17.6875 6.1875 -17.6875 6.1875 -20 6 C-17.30434515 3.30434515 -14.78319847 2.9017293 -11.125 1.875 C-9.89007812 1.52179688 -8.65515625 1.16859375 -7.3828125 0.8046875 C-4 0 -4 0 0 0 Z " fill="#07080B" transform="translate(691,89)"/>
<path d="M0 0 C1.49249268 0.01571045 1.49249268 0.01571045 3.01513672 0.03173828 C4.6296875 0.04140625 4.6296875 0.04140625 6.27685547 0.05126953 C7.40478516 0.06802734 8.53271484 0.08478516 9.69482422 0.10205078 C11.39832031 0.11558594 11.39832031 0.11558594 13.13623047 0.12939453 C15.94763721 0.1530198 18.7586272 0.18596065 21.56982422 0.22705078 C19.34589081 8.61624306 16.17072431 16.57724967 12.89916992 24.59838867 C11.99774225 26.81309258 11.10871751 29.03252541 10.22021484 31.25244141 C9.64868705 32.66224595 9.07644798 34.07176241 8.50341797 35.48095703 C8.23879257 36.14438614 7.97416718 36.80781525 7.70152283 37.49134827 C5.79907233 42.11242673 5.79907233 42.11242673 3.56982422 43.22705078 C4.74899618 36.38785339 7.02993138 30.55648821 9.83935547 24.22314453 C13.01593607 17.00263872 15.7390849 9.58697301 18.56982422 2.22705078 C8.66982422 2.72205078 8.66982422 2.72205078 -1.43017578 3.22705078 C-2.37892578 6.09392578 -3.32767578 8.96080078 -4.30517578 11.91455078 C-7.1744849 20.53229972 -10.07827832 29.13840939 -13.01959229 37.73184204 C-13.67079087 39.63709278 -14.31784812 41.54375736 -14.96484375 43.45043945 C-15.37105957 44.63355713 -15.77727539 45.8166748 -16.19580078 47.03564453 C-16.55448242 48.08550537 -16.91316406 49.13536621 -17.28271484 50.21704102 C-18.47327157 53.34009929 -19.88763737 56.26405928 -21.43017578 59.22705078 C-22.42017578 58.56705078 -23.41017578 57.90705078 -24.43017578 57.22705078 C-25.09017578 57.22705078 -25.75017578 57.22705078 -26.43017578 57.22705078 C-26.76017578 58.21705078 -27.09017578 59.20705078 -27.43017578 60.22705078 C-28.89080429 57.57966162 -29.43017578 56.33256744 -29.43017578 53.22705078 C-27.45017578 52.73205078 -27.45017578 52.73205078 -25.43017578 52.22705078 C-25.76017578 50.57705078 -26.09017578 48.92705078 -26.43017578 47.22705078 C-25.77017578 47.22705078 -25.11017578 47.22705078 -24.43017578 47.22705078 C-23.77017578 48.87705078 -23.11017578 50.52705078 -22.43017578 52.22705078 C-19.72223064 49.51910564 -18.94229718 46.38623189 -17.75048828 42.83251953 C-17.49645233 42.08931961 -17.24241638 41.34611969 -16.98068237 40.58039856 C-16.4417279 39.00009104 -15.90560167 37.41881659 -15.37207031 35.83666992 C-14.570562 33.46017141 -13.76100165 31.08655196 -12.94970703 28.71337891 C-10.23019468 20.72663251 -7.61494354 12.73736912 -5.28515625 4.62670898 C-4.15874789 1.46523903 -3.41944316 0.31947781 0 0 Z " fill="#0F0F13" transform="translate(557.43017578125,131.77294921875)"/>
<path d="M0 0 C0 0.66 0 1.32 0 2 C-0.71542969 2.56460938 -1.43085938 3.12921875 -2.16796875 3.7109375 C-5.45568818 6.36832175 -7.77199061 9.27509673 -10.3125 12.625 C-11.28847276 13.89368306 -12.26503771 15.16191078 -13.2421875 16.4296875 C-13.71495117 17.04553711 -14.18771484 17.66138672 -14.67480469 18.29589844 C-16.38000255 20.48865472 -18.16006843 22.61559473 -19.9375 24.75 C-29.90275785 37.21674095 -38.00351311 51.06340115 -45.83203125 64.93115234 C-47.54256491 67.96105665 -49.27201305 70.98002281 -51 74 C-52 71 -52 71 -51.26245117 69.06152344 C-50.86002197 68.33481445 -50.45759277 67.60810547 -50.04296875 66.859375 C-49.5951001 66.0437207 -49.14723145 65.22806641 -48.68579102 64.38769531 C-48.19135498 63.51725586 -47.69691895 62.64681641 -47.1875 61.75 C-46.683396 60.85120117 -46.17929199 59.95240234 -45.65991211 59.02636719 C-38.22456614 45.9286028 -29.58495867 33.8795928 -20.45898438 21.91845703 C-17.95484468 18.62569771 -15.47813383 15.31235171 -13 12 C-23.78575206 20.14923489 -31.30490767 32.23375904 -38.94018555 43.22583008 C-41.51052462 46.92499576 -44.13153539 50.52122377 -47 54 C-47.66 53.67 -48.32 53.34 -49 53 C-41.17432996 41.51696031 -33.26792238 30.36412825 -24 20 C-22.72576172 18.56140625 -22.72576172 18.56140625 -21.42578125 17.09375 C-19.3009345 14.71227924 -17.16928644 12.34102162 -15 10 C-14.46375 9.41476563 -13.9275 8.82953125 -13.375 8.2265625 C-12 7 -12 7 -10 7 C-10 6.34 -10 5.68 -10 5 C-4.76190476 0 -4.76190476 0 0 0 Z " fill="#0B2E73" transform="translate(211,110)"/>
<path d="M0 0 C6.77111759 2.26096448 11.09220521 7.36428821 14.3671875 13.60546875 C18.41452255 23.36929527 19.48471351 32.95932932 16 43 C-1.70218177 43.11759242 -19.31752148 42.97271002 -37 42 C-36.22767616 43.4538968 -35.44751117 44.90363011 -34.6640625 46.3515625 C-34.2304541 47.15932129 -33.7968457 47.96708008 -33.35009766 48.79931641 C-31.65297463 51.56565762 -29.66333534 53.17771792 -27 55 C-25.9826127 55.98230498 -24.97403883 56.97469597 -24 58 C-28.46818191 57.48935064 -30.82128234 56.17871766 -34 53 C-39 45.42465753 -39 45.42465753 -39 41 C-36.62679462 39.81339731 -35.1848947 39.87318813 -32.5378418 39.87060547 C-31.61315598 39.86745331 -30.68847015 39.86430115 -29.73576355 39.86105347 C-28.73370377 39.8630777 -27.73164398 39.86510193 -26.69921875 39.8671875 C-25.6706929 39.86623077 -24.64216705 39.86527405 -23.58247375 39.86428833 C-21.40271951 39.86360684 -19.22296325 39.86545898 -17.04321289 39.86962891 C-13.71170459 39.87496126 -10.38033212 39.86969131 -7.04882812 39.86328125 C-4.93229137 39.86394236 -2.8157547 39.86522419 -0.69921875 39.8671875 C0.79476189 39.86415115 0.79476189 39.86415115 2.31892395 39.86105347 C3.25306625 39.86420563 4.18720856 39.86735779 5.1496582 39.87060547 C5.96747269 39.87140106 6.78528717 39.87219666 7.62788391 39.87301636 C10.16374593 40.00876561 12.52463092 40.44572282 15 41 C15.60485468 25.85623097 13.81142387 14.73431615 3.43359375 3.26953125 C2.32558199 2.14257911 1.1694123 1.06310209 0 0 Z " fill="#18181D" transform="translate(639,136)"/>
<path d="M0 0 C0.75410156 0.00322266 1.50820313 0.00644531 2.28515625 0.00976562 C3.06246094 0.01814453 3.83976563 0.02652344 4.640625 0.03515625 C5.43339844 0.03966797 6.22617187 0.04417969 7.04296875 0.04882812 C8.99222008 0.0605706 10.94143238 0.07850479 12.890625 0.09765625 C12.890625 0.75765625 12.890625 1.41765625 12.890625 2.09765625 C11.15039062 2.11892578 11.15039062 2.11892578 9.375 2.140625 C-3.06933006 2.45300145 -13.94062971 4.05609823 -23.359375 13.00390625 C-26.66498011 16.95882665 -28.95179939 21.43894204 -31.109375 26.09765625 C-31.67398438 27.22107422 -31.67398438 27.22107422 -32.25 28.3671875 C-35.52612723 38.7763372 -33.89238847 52.50173547 -29.109375 62.09765625 C-24.19873602 70.96749791 -15.83727041 76.73741709 -6.21484375 79.58984375 C-1.05000431 80.83553786 3.9097781 81.37160025 9.203125 81.66015625 C10.31397461 81.72493164 10.31397461 81.72493164 11.44726562 81.79101562 C13.26153964 81.89636057 15.0760605 81.99743941 16.890625 82.09765625 C16.890625 82.42765625 16.890625 82.75765625 16.890625 83.09765625 C1.98427772 83.77845485 -10.2156872 83.62409971 -22.30078125 73.75 C-30.57187654 66.19347018 -35.73123404 57.50049274 -36.3125 46.12109375 C-36.54124267 32.75763071 -35.55306592 23.25511451 -26.109375 13.09765625 C-18.94132967 5.7334053 -10.6364738 -0.08057935 0 0 Z " fill="#0C0C0F" transform="translate(614.109375,129.90234375)"/>
<path d="M0 0 C-2.71801322 2.71801322 -4.64378752 2.4677888 -8.4375 2.875 C-15.06229496 3.73288712 -20.88181627 5.34533045 -27 8 C-27.74507813 8.20367187 -28.49015625 8.40734375 -29.2578125 8.6171875 C-31.42859699 10.02229016 -31.42859699 10.02229016 -31.609375 13.6953125 C-31.67585292 15.17112237 -31.72193879 16.64796017 -31.75 18.125 C-31.79447266 19.25615234 -31.79447266 19.25615234 -31.83984375 20.41015625 C-31.91057932 22.27285953 -31.95754983 24.13643755 -32 26 C-31.3709375 25.60167969 -30.741875 25.20335937 -30.09375 24.79296875 C-19.60669871 18.3017367 -11.50172493 15.61091945 1 17 C6.84392792 19.28106149 8.34033291 21.57837094 11 27 C7.2897134 25.7632378 6.39983766 23.99979707 4 21 C-4.14472742 18.28509086 -14.07305132 19.18886697 -21.77734375 22.77734375 C-24.74185633 24.40808617 -27.60868334 26.14361243 -30.40625 28.046875 C-32 29 -32 29 -34 29 C-34 22.4 -34 15.8 -34 9 C-22.81482648 2.37719989 -13.04674887 -0.69342957 0 0 Z " fill="#0F1013" transform="translate(456,130)"/>
<path d="M0 0 C3.54917976 2.87235943 5.37819109 5.67740332 7.1875 9.875 C7.1875 12.185 7.1875 14.495 7.1875 16.875 C-4.6925 16.875 -16.5725 16.875 -28.8125 16.875 C-30.22699584 12.63151247 -28.81392931 10.32484762 -27.109375 6.3203125 C-24.5974463 1.58396501 -21.47053815 -0.43675775 -16.5 -2.5 C-10.47033932 -3.52197639 -5.24850276 -3.40534548 0 0 Z M-23.625 4.625 C-26.0167792 8.17850053 -26.90278105 10.73991388 -27.8125 14.875 C-24.83848664 16.36200668 -21.86431074 15.88119932 -18.6171875 15.75390625 C-17.90974396 15.73029526 -17.20230042 15.70668427 -16.47341919 15.68235779 C-14.21124245 15.60571166 -11.94940727 15.52169188 -9.6875 15.4375 C-8.1549647 15.38428023 -6.62241266 15.33153982 -5.08984375 15.27929688 C-1.33051239 15.15009533 2.42852908 15.01427963 6.1875 14.875 C5.76234936 13.44458663 5.3234242 12.01826369 4.87890625 10.59375 C4.63599854 9.79904297 4.39309082 9.00433594 4.14282227 8.18554688 C2.50457346 4.22327068 -0.05092247 1.85070707 -3.8125 -0.125 C-11.60426837 -2.33871268 -17.736399 -1.1327432 -23.625 4.625 Z " fill="#0A0B0F" transform="translate(628.8125,148.125)"/>
<path d="M0 0 C1.11736243 3.29083041 0.92878304 4.9368061 -0.4765625 8.08984375 C-0.81550537 8.86859863 -1.15444824 9.64735352 -1.50366211 10.44970703 C-1.87370361 11.27067871 -2.24374512 12.09165039 -2.625 12.9375 C-3.37018028 14.64118859 -4.11366367 16.34562036 -4.85546875 18.05078125 C-5.2220459 18.88818848 -5.58862305 19.7255957 -5.96630859 20.58837891 C-7.82006065 24.91321661 -9.45123442 29.31620383 -11.08984375 33.7265625 C-12 36 -12 36 -13 37 C-14.85369611 37.08737645 -16.71067541 37.10698153 -18.56640625 37.09765625 C-19.69111328 37.09443359 -20.81582031 37.09121094 -21.97460938 37.08789062 C-23.15861328 37.07951172 -24.34261719 37.07113281 -25.5625 37.0625 C-26.75037109 37.05798828 -27.93824219 37.05347656 -29.16210938 37.04882812 C-32.10812226 37.03699675 -35.05403681 37.02051287 -38 37 C-38.79770594 35.26921067 -39.59275847 33.53719827 -40.38671875 31.8046875 C-40.82975342 30.84030762 -41.27278809 29.87592773 -41.72924805 28.88232422 C-46.57099297 17.90026071 -46.57099297 17.90026071 -46 12 C-43.78498455 14.21501545 -43.27586122 15.63729495 -42.2734375 18.5703125 C-41.99419434 19.37742676 -41.71495117 20.18454102 -41.42724609 21.01611328 C-40.90638428 22.55501221 -40.90638428 22.55501221 -40.375 24.125 C-39.26125 27.38375 -38.1475 30.6425 -37 34 C-29.41 34.33 -21.82 34.66 -14 35 C-12.48886316 31.22215791 -11.09173009 27.46234807 -9.75 23.625 C-7.84650124 18.27140974 -5.85228896 12.96615646 -3.75 7.6875 C-3.36279785 6.70934326 -3.36279785 6.70934326 -2.96777344 5.71142578 C-1.12394086 1.12394086 -1.12394086 1.12394086 0 0 Z " fill="#0B0B0F" transform="translate(560,176)"/>
<path d="M0 0 C0.33 0 0.66 0 1 0 C1.66 2.97 2.32 5.94 3 9 C3.33 9 3.66 9 4 9 C4 24.84 4 40.68 4 57 C-0.87504191 50.49994413 -0.13818543 43.96257639 -0.09765625 36.1328125 C-0.0962413 35.09808807 -0.09482635 34.06336365 -0.09336853 32.99728394 C-0.08779039 29.70649268 -0.07524188 26.41577054 -0.0625 23.125 C-0.05748218 20.88802182 -0.05291976 18.65104257 -0.04882812 16.4140625 C-0.03782812 10.94268492 -0.02111177 5.4713474 0 0 Z " fill="#222227" transform="translate(486,154)"/>
<path d="M0 0 C1.24040039 0.02030273 1.24040039 0.02030273 2.50585938 0.04101562 C4.5250264 0.07603008 6.54385318 0.12982438 8.5625 0.1875 C8.61691656 2.08301022 8.65548035 3.9789792 8.6875 5.875 C8.71070313 6.93074219 8.73390625 7.98648438 8.7578125 9.07421875 C8.55375434 12.32690587 8.14640675 14.34606728 6.5625 17.1875 C2.47542537 20.57624353 -1.76310417 23.01428664 -7.0625 23.5625 C-7.84625 23.43875 -8.63 23.315 -9.4375 23.1875 C-7.32714253 21.07714253 -6.39199061 20.76283563 -3.625 19.9375 C0.61134435 18.37674155 3.48701502 16.262845 5.5625 12.1875 C6.50614088 8.88228666 7.11160769 5.59274638 7.5625 2.1875 C4.85270876 2.27500996 2.14599252 2.38194893 -0.5625 2.5 C-1.70332031 2.53383789 -1.70332031 2.53383789 -2.8671875 2.56835938 C-7.89804952 2.80689163 -12.6720847 3.4220847 -16.4375 7.1875 C-16.92656137 10.58616701 -17.03512739 13.80094477 -16.4375 17.1875 C-13.62753917 19.89786916 -13.62753917 19.89786916 -10.4375 21.1875 C-12.1875 21.875 -12.1875 21.875 -14.4375 22.1875 C-17.51291482 20.4301201 -18.29731998 19.60804006 -19.4375 16.1875 C-19.52953743 14.66888245 -19.56751284 13.14639574 -19.5625 11.625 C-19.56507813 10.83996094 -19.56765625 10.05492187 -19.5703125 9.24609375 C-19.4375 7.1875 -19.4375 7.1875 -18.4375 5.1875 C-17.7775 5.1875 -17.1175 5.1875 -16.4375 5.1875 C-16.4375 4.5275 -16.4375 3.8675 -16.4375 3.1875 C-10.75182124 0.27979046 -6.33180777 -0.1989851 0 0 Z " fill="#0F0F13" transform="translate(459.4375,176.8125)"/>
<path d="M0 0 C0 6.27 0 12.54 0 19 C-10.70588235 23.94117647 -10.70588235 23.94117647 -16 25 C-16.99 24.34 -17.98 23.68 -19 23 C-13.72 21.35 -8.44 19.7 -3 18 C-3 13.38 -3 8.76 -3 4 C-4.36125 4.474375 -5.7225 4.94875 -7.125 5.4375 C-13.65909246 7.71453222 -19.8936947 8.18161981 -26.75 8.1875 C-27.51699219 8.19974609 -28.28398438 8.21199219 -29.07421875 8.22460938 C-31.05089071 8.22982029 -33.02713827 8.12278359 -35 8 C-35.66 7.34 -36.32 6.68 -37 6 C-34.01786159 5.00595386 -31.76275894 4.97499192 -28.65527344 5.06494141 C-20.04684656 5.31198679 -11.65655647 4.82827824 -3.796875 0.8984375 C-2 0 -2 0 0 0 Z " fill="#0C0C0F" transform="translate(653,188)"/>
<path d="M0 0 C-0.99 0.495 -0.99 0.495 -2 1 C-0.68 1.66 0.64 2.32 2 3 C0.68 3 -0.64 3 -2 3 C-2.07002011 17.30764107 -2.12275443 31.61525565 -2.15543652 45.92303276 C-2.1711191 52.56609905 -2.19240472 59.20905056 -2.22631836 65.85205078 C-2.25881925 72.25812031 -2.27683346 78.66407917 -2.28463173 85.07022476 C-2.29019193 87.5191637 -2.30104898 89.96809632 -2.31719017 92.41698837 C-2.33884099 95.83655834 -2.34197208 99.25566594 -2.34057617 102.67529297 C-2.351362 103.69668365 -2.36214783 104.71807434 -2.3732605 105.77041626 C-2.36913651 106.69872253 -2.36501251 107.62702881 -2.36076355 108.58346558 C-2.36352893 109.39279982 -2.36629431 110.20213406 -2.36914349 111.03599358 C-2.24732614 111.6841157 -2.12550879 112.33223782 -2 113 C-1.01 113.66 -0.02 114.32 1 115 C-0.65 115 -2.3 115 -4 115 C-4.00423194 114.43769841 -4.00846388 113.87539682 -4.01282406 113.29605579 C-4.11617071 99.60812516 -4.22487538 85.92024609 -4.33933926 72.23240376 C-4.3945314 65.61304191 -4.44794557 58.99367562 -4.49731445 52.37426758 C-4.54501256 45.98760823 -4.5973575 39.60100239 -4.65294075 33.21440697 C-4.67333958 30.77635211 -4.69205673 28.3382826 -4.70907402 25.9002018 C-4.73317259 22.48850831 -4.76321996 19.07691566 -4.79467773 15.6652832 C-4.8004332 14.65467834 -4.80618866 13.64407349 -4.81211853 12.60284424 C-4.82190735 11.67041397 -4.83169617 10.7379837 -4.84178162 9.77729797 C-4.84823417 8.97072911 -4.85468672 8.16416025 -4.8613348 7.33314991 C-5.01094635 4.81581916 -5.45254459 2.45898951 -6 0 C-3.50907189 -1.24546405 -2.58919267 -0.7767578 0 0 Z " fill="#23282B" transform="translate(389,96)"/>
<path d="M0 0 C0.5878125 0.21527344 1.175625 0.43054688 1.78125 0.65234375 C1.23855469 1.02746094 0.69585937 1.40257812 0.13671875 1.7890625 C-5.30961599 5.68490915 -8.81741678 8.91144772 -10.21875 15.65234375 C-10.88814665 22.71941654 -10.74571958 28.91209413 -6.21875 34.65234375 C0.12776748 41.35809807 10.16388177 40.99624867 18.78125 41.65234375 C18.78125 42.31234375 18.78125 42.97234375 18.78125 43.65234375 C9.48440656 44.07707264 1.58753265 43.83827967 -6.03125 38.02734375 C-11.49612586 32.84206619 -13.42810173 27.024814 -13.71875 19.58984375 C-13.42188051 12.05318929 -11.19508465 7.23642061 -5.71875 2.08984375 C-2.82455205 -0.44257946 -2.82455205 -0.44257946 0 0 Z " fill="#0E0D11" transform="translate(431.21875,170.34765625)"/>
<path d="M0 0 C7.92 0 15.84 0 24 0 C22.15209099 6.15969672 20.34043671 12.02779341 17.93359375 17.94140625 C17.51425316 18.98203468 17.51425316 18.98203468 17.08644104 20.04368591 C16.50304189 21.48716799 15.91733384 22.929719 15.3293457 24.37133789 C14.42791803 26.5860418 13.53889329 28.80547463 12.65039062 31.02539062 C12.07886283 32.43519517 11.50662377 33.84471163 10.93359375 35.25390625 C10.66896835 35.91733536 10.40434296 36.58076447 10.13169861 37.26429749 C8.22924811 41.88537594 8.22924811 41.88537594 6 43 C7.17917196 36.1608026 9.46010716 30.32943743 12.26953125 23.99609375 C15.44611185 16.77558794 18.16926068 9.35992223 21 2 C14.07 2 7.14 2 0 2 C0 1.34 0 0.68 0 0 Z " fill="#08080C" transform="translate(555,132)"/>
<path d="M0 0 C0.33 0 0.66 0 1 0 C1.33 15.84 1.66 31.68 2 48 C-5.59 48 -13.18 48 -21 48 C-21.66 46.35 -22.32 44.7 -23 43 C-23.51949219 43.28875 -24.03898437 43.5775 -24.57421875 43.875 C-31.50087873 47.56239016 -31.50087873 47.56239016 -36 47 C-33.54851336 45.36567557 -31.1003972 43.80613596 -28.5625 42.3125 C-27.80066406 41.85488281 -27.03882813 41.39726562 -26.25390625 40.92578125 C-23.65892769 39.85990617 -22.58092835 40.0299472 -20 41 C-19.67 42.32 -19.34 43.64 -19 45 C-12.73 45.33 -6.46 45.66 0 46 C0 30.82 0 15.64 0 0 Z " fill="#08080C" transform="translate(488,165)"/>
<path d="M0 0 C6.77111759 2.26096448 11.09220521 7.36428821 14.3671875 13.60546875 C18.24576865 22.96219188 18.98274288 32.08628562 17 42 C8.09 42 -0.82 42 -10 42 C-10 41.67 -10 41.34 -10 41 C-1.75 41 6.5 41 15 41 C15.45758058 25.74731398 13.89728076 14.82916552 3.43359375 3.26953125 C2.32558199 2.14257911 1.1694123 1.06310209 0 0 Z " fill="#0B0C0F" transform="translate(639,136)"/>
<path d="M0 0 C0.78688705 0.00205444 1.57377411 0.00410889 2.38450623 0.00622559 C3.2799968 0.00682983 4.17548737 0.00743408 5.09811401 0.00805664 C6.57490379 0.01778503 6.57490379 0.01778503 8.08152771 0.02770996 C9.10533035 0.03129517 10.129133 0.03488037 11.18395996 0.03857422 C23.50480849 0.10128194 35.82223653 0.3588711 48.14012146 0.62145996 C50.49233059 0.66985197 52.84454413 0.71803004 55.19676208 0.76599121 C60.86543484 0.88202748 66.53404843 1.0006547 72.20262146 1.12145996 C72.20262146 1.45145996 72.20262146 1.78145996 72.20262146 2.12145996 C63.01464269 2.29851154 53.82655007 2.46446095 44.63811874 2.61623573 C40.37157518 2.68705962 36.10516995 2.76170764 31.83885193 2.84509277 C27.72170412 2.9254217 23.60449615 2.99570844 19.48705292 3.05903244 C17.91612176 3.08495802 16.34524602 3.11450303 14.77445221 3.14772415 C12.57443896 3.19363475 10.37458043 3.22667729 8.17430115 3.25671387 C6.29566376 3.29002304 6.29566376 3.29002304 4.3790741 3.32400513 C1.36080797 3.13154666 -0.275685 2.71989035 -2.79737854 1.12145996 C-1.79737854 0.12145996 -1.79737854 0.12145996 0 0 Z " fill="#012A79" transform="translate(177.79737854003906,64.8785400390625)"/>
<path d="M0 0 C0.99 0.495 0.99 0.495 2 1 C2 9.58 2 18.16 2 27 C11.24 27 20.48 27 30 27 C30.33 27.99 30.66 28.98 31 30 C26.74585377 30.02465622 22.49174502 30.04283899 18.23754883 30.05493164 C16.78929927 30.05997101 15.34105483 30.06680253 13.89282227 30.07543945 C11.81525412 30.08752247 9.73775303 30.09323211 7.66015625 30.09765625 C6.40855713 30.10289307 5.15695801 30.10812988 3.86743164 30.11352539 C1 30 1 30 0 29 C-0.08775605 26.85441173 -0.10695219 24.70595579 -0.09765625 22.55859375 C-0.09443359 21.25341797 -0.09121094 19.94824219 -0.08789062 18.60351562 C-0.07953401 17.2148431 -0.07106905 15.82617123 -0.0625 14.4375 C-0.05748666 13.04492344 -0.05292347 11.65234519 -0.04882812 10.25976562 C-0.03699434 6.8398013 -0.0205088 3.41992156 0 0 Z " fill="#090A0E" transform="translate(321,121)"/>
<path d="M0 0 C8.67906079 -0.65228849 14.46103666 1.11156878 21.75 5.75 C29.16088108 13.16088108 31.1250429 21.84589263 32 32 C31.01 32.495 31.01 32.495 30 33 C29.82984375 32.0821875 29.6596875 31.164375 29.484375 30.21875 C27.08787001 17.09654119 27.08787001 17.09654119 18.83203125 7.09375 C12.96184293 3.58915996 6.78500402 1.59000035 0 1 C0 0.67 0 0.34 0 0 Z " fill="#0A0A0E" transform="translate(458,131)"/>
<path d="M0 0 C0 0.33 0 0.66 0 1 C-0.83144531 1.04898438 -1.66289062 1.09796875 -2.51953125 1.1484375 C-3.60621094 1.22320312 -4.69289063 1.29796875 -5.8125 1.375 C-6.89144531 1.44460937 -7.97039062 1.51421875 -9.08203125 1.5859375 C-12.18626186 1.81195733 -12.18626186 1.81195733 -15 4 C-14.34 4.66 -13.68 5.32 -13 6 C-14.33333333 6.33333333 -15.66666667 6.66666667 -17 7 C-17.639375 7.226875 -18.27875 7.45375 -18.9375 7.6875 C-21.74442855 8.1127922 -23.43364087 7.11866937 -26 6 C-26.99 6 -27.98 6 -29 6 C-29.33 6.99 -29.66 7.98 -30 9 C-31.66666667 9 -33.33333333 9 -35 9 C-30.25 5.125 -30.25 5.125 -28 4 C-28.33 3.34 -28.66 2.68 -29 2 C-28.030625 2.04125 -27.06125 2.0825 -26.0625 2.125 C-23.15771318 2.13659596 -20.68033223 1.73633489 -17.875 1 C-11.96797256 -0.45372252 -6.04330579 -0.16812906 0 0 Z " fill="#212529" transform="translate(460,167)"/>
<path d="M0 0 C4.12538652 -0.08059728 8.24921447 -0.14030964 12.375 -0.1875 C13.550625 -0.21263672 14.72625 -0.23777344 15.9375 -0.26367188 C17.61972656 -0.27817383 17.61972656 -0.27817383 19.3359375 -0.29296875 C20.37282715 -0.3086792 21.4097168 -0.32438965 22.47802734 -0.34057617 C23.31027832 -0.22818604 24.1425293 -0.1157959 25 0 C27.1519437 3.22791555 27.20086443 4.28400809 27 8 C26.34 7.34 25.68 6.68 25 6 C25 4.68 25 3.36 25 2 C17.74 2 10.48 2 3 2 C4.32 5.3 5.64 8.6 7 12 C7 12.99 7 13.98 7 15 C6.34 15 5.68 15 5 15 C3.35 10.05 1.7 5.1 0 0 Z " fill="#070709" transform="translate(492,132)"/>
<path d="M0 0 C0 0.66 0 1.32 0 2 C-0.70898438 2.55429688 -1.41796875 3.10859375 -2.1484375 3.6796875 C-5.5794201 6.47147334 -7.98327714 9.60512202 -10.625 13.125 C-11.57131453 14.38078496 -12.52169072 15.63352192 -13.4765625 16.8828125 C-13.88986816 17.43340332 -14.30317383 17.98399414 -14.72900391 18.55126953 C-16 20 -16 20 -19 22 C-17.35880399 17.32890365 -17.35880399 17.32890365 -15.5 15.625 C-13.19854266 13.13175455 -12.79377178 10.23614648 -12 7 C-11.34 7 -10.68 7 -10 7 C-10 6.34 -10 5.68 -10 5 C-4.76190476 0 -4.76190476 0 0 0 Z " fill="#12337E" transform="translate(211,110)"/>
<path d="M0 0 C0 0.66 0 1.32 0 2 C-1.74895933 3.11188136 -3.5526122 4.13806454 -5.375 5.125 C-11.44062221 8.56456459 -16.71130993 12.47444306 -22 17 C-22.76828125 17.65742187 -23.5365625 18.31484375 -24.328125 18.9921875 C-26.9547731 21.26924574 -29.54152888 23.54152888 -32 26 C-30.55766713 17.49585552 -20.75397781 12.18870829 -14.1887207 7.50146484 C-3.45344643 0 -3.45344643 0 0 0 Z " fill="#08286D" transform="translate(211,90)"/>
<path d="M0 0 C4.62 0 9.24 0 14 0 C14.2835907 12.90337669 14.2835907 12.90337669 12 17 C7.91292537 20.38874353 3.67439583 22.82678664 -1.625 23.375 C-2.40875 23.25125 -3.1925 23.1275 -4 23 C-1.88964253 20.88964253 -0.95449061 20.57533563 1.8125 19.75 C6.05430459 18.17953151 8.97206167 16.12155887 11 12 C11.96765092 8.32191327 12.49225283 4.78502438 13 1 C8.71 1 4.42 1 0 1 C0 0.67 0 0.34 0 0 Z " fill="#040509" transform="translate(454,177)"/>
<path d="M0 0 C2.98664485 3.46521702 4.42037248 7.31394428 5.9375 11.5625 C6.19474854 12.27051758 6.45199707 12.97853516 6.71704102 13.70800781 C7.23536331 15.13480831 7.75158932 16.56237222 8.265625 17.99072266 C8.92266313 19.78840345 9.61527825 21.57298813 10.3125 23.35546875 C10.68375 24.31066406 11.055 25.26585937 11.4375 26.25 C11.76621094 27.08015625 12.09492188 27.9103125 12.43359375 28.765625 C13.06403546 31.25260885 12.84022012 32.60564723 12 35 C8.85673254 27.74296314 5.96097232 20.40512158 3.1875 13 C2.87353271 12.1752417 2.55956543 11.3504834 2.23608398 10.50073242 C1.94548096 9.71674072 1.65487793 8.93274902 1.35546875 8.125 C1.09403076 7.42632812 0.83259277 6.72765625 0.56323242 6.0078125 C0 4 0 4 0 0 Z " fill="#0D0D10" transform="translate(499,148)"/>
<path d="M0 0 C8.25 0 16.5 0 25 0 C25.33 0.66 25.66 1.32 26 2 C25.27554688 1.96519531 24.55109375 1.93039063 23.8046875 1.89453125 C18.08043945 1.7342523 13.92946013 1.71369325 9 5 C8.34 5.66 7.68 6.32 7 7 C6.67 5.02 6.34 3.04 6 1 C5.38125 1.20625 4.7625 1.4125 4.125 1.625 C3.42375 1.74875 2.7225 1.8725 2 2 C1.34 1.34 0.68 0.68 0 0 Z " fill="#1850AE" transform="translate(228,67)"/>
<path d="M0 0 C4.82823747 1.10359714 6.52380719 3.70886088 9.08203125 7.63671875 C10 10 10 10 10 17 C-1.385 16.505 -1.385 16.505 -13 16 C-13 15.67 -13 15.34 -13 15 C-2.605 14.505 -2.605 14.505 8 14 C5.84970761 7.46191096 5.84970761 7.46191096 2.3125 2.5 C1.549375 1.675 0.78625 0.85 0 0 Z " fill="#131318" transform="translate(626,148)"/>
<path d="M0 0 C0.66 0 1.32 0 2 0 C3.00935129 2.8928729 4.00768744 5.78878515 5 8.6875 C5.28617188 9.50412109 5.57234375 10.32074219 5.8671875 11.16210938 C8.42266949 18.67644333 8.42266949 18.67644333 8 23 C6 22 6 22 5.22216797 20.18994141 C4.86082764 19.03244385 4.86082764 19.03244385 4.4921875 17.8515625 C4.22792969 17.01109375 3.96367188 16.170625 3.69140625 15.3046875 C3.42199219 14.42039063 3.15257812 13.53609375 2.875 12.625 C2.59785156 11.7484375 2.32070313 10.871875 2.03515625 9.96875 C0 3.41213824 0 3.41213824 0 0 Z " fill="#101014" transform="translate(523,154)"/>
<path d="M0 0 C0.66 0 1.32 0 2 0 C-0.05213462 7.54117764 -2.50245709 14.99337113 -6 22 C-6.66 22.33 -7.32 22.66 -8 23 C-6.58257847 14.77895515 -3.41386718 7.54700825 0 0 Z " fill="#0E0F13" transform="translate(569,152)"/>
<path d="M0 0 C0.886875 0.103125 1.77375 0.20625 2.6875 0.3125 C1.42559862 4.09820414 0.13894185 4.53081571 -3.25 6.5 C-4.14589844 7.02980469 -5.04179687 7.55960937 -5.96484375 8.10546875 C-8.3125 9.3125 -8.3125 9.3125 -10.3125 9.3125 C-8.30545061 4.38610604 -5.49180199 0.51809453 0 0 Z " fill="#104FB4" transform="translate(207.3125,87.6875)"/>
<path d="M0 0 C0.91644287 0.00523682 1.83288574 0.01047363 2.77709961 0.01586914 C3.76645508 0.0190918 4.75581055 0.02231445 5.77514648 0.02563477 C6.81606445 0.03401367 7.85698242 0.04239258 8.92944336 0.05102539 C10.49662109 0.05779297 10.49662109 0.05779297 12.09545898 0.06469727 C14.68600996 0.07652627 17.27644895 0.0930085 19.86694336 0.11352539 C15.99897 2.2215921 12.77957057 2.56819207 8.36694336 2.86352539 C6.40241211 3.01047852 6.40241211 3.01047852 4.39819336 3.16040039 C1.10486508 3.11668364 -0.44082308 2.89919051 -3.13305664 1.11352539 C-2.13305664 0.11352539 -2.13305664 0.11352539 0 0 Z " fill="#06356E" transform="translate(178.133056640625,64.886474609375)"/>
<path d="M0 0 C8.91 0 17.82 0 27 0 C22.87666563 2.06166719 19.48216474 2.54855895 15 3 C13.49953363 3.18373058 11.99950402 3.37107395 10.5 3.5625 C9.345 3.706875 8.19 3.85125 7 4 C7 3.34 7 2.68 7 2 C4.69 1.67 2.38 1.34 0 1 C0 0.67 0 0.34 0 0 Z " fill="#26272C" transform="translate(614,195)"/>
<path d="M0 0 C0.66 0 1.32 0 2 0 C2.45439453 1.01320312 2.45439453 1.01320312 2.91796875 2.046875 C5.32042495 7.16225867 7.16023195 10.81594207 12 14 C13.0173873 14.98230498 14.02596117 15.97469597 15 17 C10.53181809 16.48935064 8.17871766 15.17871766 5 12 C0 4.42465753 0 4.42465753 0 0 Z " fill="#0B0C0F" transform="translate(600,177)"/>
<path d="M0 0 C0.66 0 1.32 0 2 0 C3.21676146 2.57667134 4.05184833 4.37782003 3.8125 7.25 C3.544375 7.8275 3.27625 8.405 3 9 C2.01 9.33 1.02 9.66 0 10 C-0.33 10.99 -0.66 11.98 -1 13 C-2.4606285 10.35261084 -3 9.10551666 -3 6 C-1.68 5.67 -0.36 5.34 1 5 C0.67 3.35 0.34 1.7 0 0 Z " fill="#13161B" transform="translate(531,179)"/>
<path d="M0 0 C0.99 0.33 1.98 0.66 3 1 C2.67 1.66 2.34 2.32 2 3 C1.06649519 5.80051442 0.94108013 7.26371447 1.0625 10.125 C1 14 1 14 -0.5 16 C-0.995 16.33 -1.49 16.66 -2 17 C-2.66 16.67 -3.32 16.34 -4 16 C-3.34 15.34 -2.68 14.68 -2 14 C-1.57416439 11.70217235 -1.57416439 11.70217235 -1.4375 9.125 C-1.20635892 5.9644995 -0.85941306 3.05411252 0 0 Z " fill="#122F80" transform="translate(155,186)"/>
<path d="M0 0 C0.66 0.66 1.32 1.32 2 2 C-5.29840547 12.55808656 -5.29840547 12.55808656 -9 17 C-9.66 16.67 -10.32 16.34 -11 16 C-7.37 10.72 -3.74 5.44 0 0 Z " fill="#0E317C" transform="translate(173,147)"/>
<path d="M0 0 C0 0.66 0 1.32 0 2 C-1.32 2.33 -2.64 2.66 -4 3 C-1.03 3.99 1.94 4.98 5 6 C5 6.33 5 6.66 5 7 C3.58249437 6.88490339 2.16598831 6.75746342 0.75 6.625 C-0.03890625 6.55539063 -0.8278125 6.48578125 -1.640625 6.4140625 C-4.085877 5.98492887 -5.84836903 5.21399362 -8 4 C-7.67 3.01 -7.34 2.02 -7 1 C-4 0 -4 0 0 0 Z " fill="#08266D" transform="translate(207,141)"/>
<path d="M0 0 C0 0.66 0 1.32 0 2 C-1.65385233 3.34919532 -3.321702 4.68133728 -5 6 C-5.99 7.485 -5.99 7.485 -7 9 C-7.99 8.67 -8.98 8.34 -10 8 C-10 7.01 -10 6.02 -10 5 C-4.88372093 0 -4.88372093 0 0 0 Z " fill="#1B285E" transform="translate(211,110)"/>
<path d="M0 0 C0.66 0.33 1.32 0.66 2 1 C2 1.66 2 2.32 2 3 C-3.445 5.475 -3.445 5.475 -9 8 C-5 0 -5 0 0 0 Z " fill="#0F54B2" transform="translate(220,81)"/>
<path d="M0 0 C0.66 0.33 1.32 0.66 2 1 C1.67 1.598125 1.34 2.19625 1 2.8125 C-0.20787988 5.05386471 -0.20787988 5.05386471 0 8 C-0.33 8.99 -0.66 9.98 -1 11 C-1.66 11 -2.32 11 -3 11 C-3 9.35 -3 7.7 -3 6 C-3.99 6.495 -3.99 6.495 -5 7 C-4.1875 4.0625 -4.1875 4.0625 -3 1 C-2.01 0.67 -1.02 0.34 0 0 Z " fill="#1051B2" transform="translate(230,124)"/>
<path d="M0 0 C2.94687785 3.32712015 4.44801208 5.58409661 5 10 C5.185625 10.928125 5.37125 11.85625 5.5625 12.8125 C5.7790625 13.8953125 5.7790625 13.8953125 6 15 C3.2160817 13.60804085 3.02101003 11.84424221 2 9 C1.34 9 0.68 9 0 9 C0 6.03 0 3.06 0 0 Z " fill="#26282C" transform="translate(498,141)"/>
<path d="M0 0 C2.97 0 5.94 0 9 0 C6.38485683 2.12038635 3.80362384 4.13091744 1 6 C0.67 4.02 0.34 2.04 0 0 Z " fill="#0E53B3" transform="translate(234,68)"/>
<path d="M0 0 C0.99 0.33 1.98 0.66 3 1 C3 1.66 3 2.32 3 3 C3.66 3 4.32 3 5 3 C5.33 2.34 5.66 1.68 6 1 C6.66 1 7.32 1 8 1 C8 2.32 8 3.64 8 5 C8.33 5.66 8.66 6.32 9 7 C2.29787234 5.06382979 2.29787234 5.06382979 0 2 C0 1.34 0 0.68 0 0 Z " fill="#24272C" transform="translate(424,203)"/>
<path d="M0 0 C1.65 0 3.3 0 5 0 C3.25 4.875 3.25 4.875 1 6 C0.34 5.67 -0.32 5.34 -1 5 C-0.67 3.35 -0.34 1.7 0 0 Z " fill="#0D52B5" transform="translate(250,69)"/>
<path d="M0 0 C3.70082263 1.94780139 5.28802447 3.23365384 7 7 C8.29470975 8.37086915 9.62150897 9.71340837 11 11 C7.20450741 10.45418801 5.69020705 8.94590705 3.25 6.0625 C2.63640625 5.35222656 2.0228125 4.64195312 1.390625 3.91015625 C0 2 0 2 0 0 Z " fill="#25282B" transform="translate(585,192)"/>
<path d="M0 0 C3.3 0 6.6 0 10 0 C6.95904634 3.04095366 6.10269692 3.68440793 2 4 C1.34 3.34 0.68 2.68 0 2 C0 1.34 0 0.68 0 0 Z " fill="#21242B" transform="translate(445,132)"/>
<path d="M0 0 C2.475 0.99 2.475 0.99 5 2 C4.67 4.31 4.34 6.62 4 9 C3.01 9.33 2.02 9.66 1 10 C1.020625 8.906875 1.04125 7.81375 1.0625 6.6875 C1.18544452 3.05615809 1.18544452 3.05615809 0 0 Z " fill="#1151B1" transform="translate(236,80)"/>
<path d="M0 0 C0.99 0.33 1.98 0.66 3 1 C5.00875442 0.72428861 7.01178687 0.39764263 9 0 C9 0.66 9 1.32 9 2 C3.555 3.485 3.555 3.485 -2 5 C-1.34 3.35 -0.68 1.7 0 0 Z " fill="#1054B3" transform="translate(225,78)"/>
<path d="M0 0 C1.125 1.6875 1.125 1.6875 2 4 C1.4375 6.6875 1.4375 6.6875 0 9 C-2.625 9.8125 -2.625 9.8125 -5 10 C-4.360625 9.0925 -3.72125 8.185 -3.0625 7.25 C-1.38571047 4.60778619 -0.46310002 3.0101501 0 0 Z " fill="#101014" transform="translate(466,185)"/>
<path d="M0 0 C0.66 0.33 1.32 0.66 2 1 C1.01 2.485 1.01 2.485 0 4 C-0.66 4 -1.32 4 -2 4 C-2 4.66 -2 5.32 -2 6 C-3.65 6.66 -5.3 7.32 -7 8 C-7 7.01 -7 6.02 -7 5 C-5.46875 3.61328125 -5.46875 3.61328125 -3.5 2.3125 C-2.8503125 1.87550781 -2.200625 1.43851563 -1.53125 0.98828125 C-1.0259375 0.66214844 -0.520625 0.33601562 0 0 Z " fill="#1149B1" transform="translate(145,151)"/>
<path d="M0 0 C0.66 0 1.32 0 2 0 C1.55530671 5.03985731 -0.71343362 7.37634988 -4 11 C-4.66 10.34 -5.32 9.68 -6 9 C-4.7934375 7.88625 -4.7934375 7.88625 -3.5625 6.75 C-1.23011409 4.24695171 -0.36465606 3.2819045 0 0 Z " fill="#10337A" transform="translate(211,148)"/>
<path d="M0 0 C3.93673644 1.31224548 6.22719294 2.91910327 9 6 C8.67 6.66 8.34 7.32 8 8 C6.02 7.34 4.04 6.68 2 6 C2.33 5.01 2.66 4.02 3 3 C2.01 2.01 1.02 1.02 0 0 Z " fill="#272A30" transform="translate(473,136)"/>
<path d="M0 0 C0.99 0.33 1.98 0.66 3 1 C2.16855469 1.72316406 2.16855469 1.72316406 1.3203125 2.4609375 C0.59585938 3.09257813 -0.12859375 3.72421875 -0.875 4.375 C-1.59429687 5.00148438 -2.31359375 5.62796875 -3.0546875 6.2734375 C-4.4076598 7.47426834 -5.7208345 8.7208345 -7 10 C-6.42424336 6.64749299 -5.40693737 5.06181371 -2.9375 2.75 C-2.38964844 2.22921875 -1.84179688 1.7084375 -1.27734375 1.171875 C-0.64505859 0.59179688 -0.64505859 0.59179688 0 0 Z " fill="#051D5C" transform="translate(186,106)"/>
<path d="M0 0 C-0.33 0.66 -0.66 1.32 -1 2 C-4.0625 2.625 -4.0625 2.625 -7 3 C-7 2.01 -7 1.02 -7 0 C-7.66 -0.33 -8.32 -0.66 -9 -1 C-5.79937313 -2.60031344 -3.27728194 -1.03173691 0 0 Z " fill="#0A45A4" transform="translate(158,206)"/>
<path d="M0 0 C-1.175625 0.928125 -1.175625 0.928125 -2.375 1.875 C-4.96837647 3.89858661 -4.96837647 3.89858661 -7 6 C-7.625 4.125 -7.625 4.125 -8 2 C-5.44123378 -0.55876622 -3.37797483 -1.68898741 0 0 Z " fill="#24262A" transform="translate(609,148)"/>
<path d="M0 0 C1.98 0 3.96 0 6 0 C6 0.66 6 1.32 6 2 C6.66 2.33 7.32 2.66 8 3 C6.02 3.66 4.04 4.32 2 5 C2 4.01 2 3.02 2 2 C1.34 1.34 0.68 0.68 0 0 Z " fill="#23262D" transform="translate(432,145)"/>
<path d="M0 0 C0.66 0 1.32 0 2 0 C2.33 2.97 2.66 5.94 3 9 C2.67 8.01 2.34 7.02 2 6 C1.01 6.33 0.02 6.66 -1 7 C-0.67 4.69 -0.34 2.38 0 0 Z " fill="#25262A" transform="translate(515,134)"/>
<path d="M0 0 C-1.39332574 3.36720387 -2.9789286 4.9859524 -6 7 C-6.66 6.67 -7.32 6.34 -8 6 C-7.0479279 4.99403703 -6.08812654 3.99538437 -5.125 3 C-4.59132812 2.443125 -4.05765625 1.88625 -3.5078125 1.3125 C-2 0 -2 0 0 0 Z " fill="#1C4EA6" transform="translate(198,122)"/>
<path d="M0 0 C0 0.66 0 1.32 0 2 C-1.65 2 -3.3 2 -5 2 C-5 2.66 -5 3.32 -5 4 C-5.99 4 -6.98 4 -8 4 C-7.67 3.01 -7.34 2.02 -7 1 C-4 0 -4 0 0 0 Z " fill="#0A225E" transform="translate(207,141)"/>
</svg>
