<?xml version="1.0" encoding="UTF-8"?>
<svg version="1.1" xmlns="http://www.w3.org/2000/svg" width="271" height="312">
<path d="M0 0 C1.76703607 -0.0043554 3.53407025 -0.00954129 5.30110168 -0.01548767 C10.06505925 -0.02879074 14.82893708 -0.02946677 19.59290957 -0.02692437 C23.57702804 -0.02585008 27.56113066 -0.030749 31.54524571 -0.03552979 C40.93968123 -0.04659194 50.33407675 -0.04707907 59.72851562 -0.04101562 C69.41602992 -0.03495944 79.10339958 -0.04733599 88.7908892 -0.06858569 C97.12235992 -0.08618794 105.4537845 -0.09220577 113.78527313 -0.08894795 C118.75571231 -0.0871349 123.72604796 -0.08977477 128.69647026 -0.10366249 C133.36283227 -0.11621602 138.02896742 -0.11432032 142.69532585 -0.1012516 C144.40738501 -0.09888197 146.11946004 -0.10163432 147.83150101 -0.10987473 C150.16779339 -0.12031001 152.50331971 -0.11226844 154.83958435 -0.0995636 C156.80036501 -0.09981521 156.80036501 -0.09981521 158.80075741 -0.10007191 C162.47102999 0.30529916 164.32113131 0.98422572 167.19360352 3.2746582 C169.3634575 6.36517173 169.45085767 9.04360612 169.47207642 12.76107788 C169.4832399 13.87808075 169.49440338 14.99508362 169.50590515 16.14593506 C169.50806534 17.36838928 169.51022552 18.59084351 169.51245117 19.8503418 C169.52751961 21.78863358 169.52751961 21.78863358 169.54289246 23.76608276 C169.5702698 27.32252746 169.58538588 30.87893219 169.59832048 34.43545485 C169.6140611 38.20429827 169.64085836 41.97306402 169.66635132 45.74185181 C169.70794072 52.11588161 169.7423614 58.48991629 169.77172852 64.86401367 C169.81234441 73.6783708 169.86520496 82.49261935 169.92096758 91.30689192 C170.01231762 105.81650242 170.08503665 120.32611496 170.14126968 134.83590317 C170.17183482 142.64430528 170.21180533 150.45252466 170.26469612 158.26081657 C170.29212427 162.55417435 170.31137343 166.84753774 170.32810593 171.14094925 C170.33721241 173.05096042 170.34972354 174.96095922 170.36607742 176.87092209 C170.57699156 202.09012444 170.57699156 202.09012444 165.57641602 209.6027832 C161.86369826 215.64446185 162.77288954 222.16822029 163.06860352 229.0246582 C163.16312609 231.60231435 163.24440239 234.18049907 163.31079102 236.7590332 C163.3583252 237.89050781 163.40585938 239.02198242 163.45483398 240.18774414 C163.15117839 243.77598833 162.42088347 245.46118853 160.19360352 248.2746582 C156.1263955 251.34420664 152.64590115 251.7034321 147.70550537 251.65560913 C146.5876872 251.66262909 146.5876872 251.66262909 145.44728684 251.66979086 C142.95466612 251.68173953 140.46259534 251.67228419 137.9699707 251.6628418 C136.18089986 251.6669077 134.39183152 251.67224969 132.60276794 251.67877197 C127.74511406 251.69245309 122.88765126 251.68714257 118.02999401 251.67763472 C112.94261855 251.67003756 107.85525941 251.67708433 102.7678833 251.68179321 C94.22014431 251.68725258 85.67248305 251.68005646 77.12475586 251.66577148 C67.25398408 251.64946552 57.3833984 251.65471782 47.51263118 251.6712507 C39.03176433 251.68488533 30.55095337 251.68677494 22.07007909 251.67893469 C17.0077556 251.67426636 11.94551942 251.6736098 6.8832016 251.68354416 C2.1192363 251.69223954 -2.64449044 251.686145 -7.4084301 251.66886139 C-9.15266207 251.66490936 -10.89691427 251.66600849 -12.64113808 251.67264938 C-26.65534074 251.72106763 -36.38556158 250.16332138 -46.90795898 240.3059082 C-55.11138045 231.82596691 -58.95665141 221.54228877 -58.9535675 209.87557983 C-58.95724419 209.12784416 -58.96092088 208.38010848 -58.96470898 207.60971415 C-58.97572711 205.10267681 -58.9795865 202.59568095 -58.98339844 200.08862305 C-58.98966456 198.29147206 -58.9963115 196.49432236 -59.00331116 194.69717407 C-59.0243384 188.79332377 -59.03471315 182.88947325 -59.04467773 176.9855957 C-59.04872596 174.95141206 -59.05284291 172.91722856 -59.05702782 170.8830452 C-59.07607753 161.32451896 -59.09030833 151.76600042 -59.09863979 142.20745885 C-59.108408 131.18322948 -59.13471763 120.15920111 -59.17514068 109.13504255 C-59.20533029 100.60833518 -59.22011141 92.08168533 -59.2234208 83.55492556 C-59.22576827 78.4651088 -59.23468919 73.37550683 -59.25988197 68.28574753 C-59.28321708 63.49386964 -59.28737407 58.70234714 -59.27712059 53.91042709 C-59.27662642 52.1569246 -59.28291161 50.40340429 -59.29667664 48.64995575 C-59.36410175 39.54776001 -59.3026051 31.47786276 -54.80639648 23.2746582 C-54.10256836 21.93854492 -54.10256836 21.93854492 -53.38452148 20.57543945 C-47.02096665 11.04882354 -38.85530033 4.33983128 -27.48544216 1.74496174 C-18.31757381 0.03083018 -9.28364327 -0.01523196 0 0 Z M88.19360352 45.2746582 C88.19360352 45.9346582 88.19360352 46.5946582 88.19360352 47.2746582 C87.14172852 47.6149707 87.14172852 47.6149707 86.06860352 47.9621582 C82.58963395 49.55038344 80.02003417 51.76006379 77.19360352 54.2746582 C76.24614258 55.08483398 76.24614258 55.08483398 75.27954102 55.91137695 C71.83978287 58.86638154 68.46907545 61.88814568 65.19360352 65.0246582 C64.32735352 65.85223633 64.32735352 65.85223633 63.44360352 66.6965332 C61.88315266 68.3310689 61.88315266 68.3310689 62.19360352 71.2746582 C61.53360352 71.2746582 60.87360352 71.2746582 60.19360352 71.2746582 C59.53360352 72.9246582 58.87360352 74.5746582 58.19360352 76.2746582 C57.53360352 76.2746582 56.87360352 76.2746582 56.19360352 76.2746582 C54.82540871 77.95673752 54.82540871 77.95673752 53.56860352 80.0871582 C52.89958008 81.14870117 52.89958008 81.14870117 52.21704102 82.23168945 C50.96965488 84.34087028 50.96965488 84.34087028 51.19360352 87.2746582 C50.53360352 87.2746582 49.87360352 87.2746582 49.19360352 87.2746582 C38.35486344 108.68245001 30.662904 130.76357612 24.19921875 153.8190918 C19.20734404 171.57743034 19.20734404 171.57743034 13.19360352 177.2746582 C11.52194867 179.64692801 10.07759858 182.13533171 8.63110352 184.6496582 C8.25791992 185.28387695 7.88473633 185.9180957 7.50024414 186.5715332 C6.75617691 187.83968257 6.01828717 189.11147834 5.28686523 190.38696289 C4.55061192 191.65822476 3.7965458 192.91931652 3.02612305 194.17016602 C0.95686803 197.58402713 0.19360352 199.17379806 0.19360352 203.2746582 C4.6072484 202.39765658 7.4131887 199.94874306 10.81860352 197.1496582 C15.81665168 193.10592568 20.86154502 189.34890712 26.30297852 185.9074707 C28.67301012 183.86062523 29.35552438 182.27740164 30.19360352 179.2746582 C30.3237993 176.77365161 30.3237993 176.77365161 30.13110352 174.2746582 C30.02470106 170.08114956 30.49274473 167.65073169 33.19360352 164.2746582 C32.53360352 163.9446582 31.87360352 163.6146582 31.19360352 163.2746582 C29.11244104 139.86158035 54.34857126 113.06680287 68.19360352 96.2746582 C68.67539063 95.68990723 69.15717773 95.10515625 69.65356445 94.50268555 C88.92478363 71.26312488 88.92478363 71.26312488 101.19360352 63.2746582 C102.18360352 63.2746582 103.17360352 63.2746582 104.19360352 63.2746582 C103.23454102 64.2027832 103.23454102 64.2027832 102.25610352 65.1496582 C93.83952013 73.61339332 86.44607987 82.82136325 79.19360352 92.2746582 C78.70456543 92.90678223 78.21552734 93.53890625 77.71166992 94.19018555 C69.97173619 104.20998246 62.88448454 114.52752714 56.19360352 125.2746582 C55.80076172 125.90194824 55.40791992 126.52923828 55.00317383 127.17553711 C50.25748701 134.78765113 45.83807966 142.57370711 41.56860352 150.4621582 C41.11799561 151.27668457 40.6673877 152.09121094 40.203125 152.93041992 C39.79521729 153.69757324 39.38730957 154.46472656 38.96704102 155.25512695 C38.6001416 155.93470459 38.23324219 156.61428223 37.85522461 157.31445312 C37.05429646 159.68738747 37.37962898 160.94432262 38.19360352 163.2746582 C58.40845077 156.41988952 76.30306082 145.95961838 91.94750977 131.3684082 C94.08499521 129.37590003 96.27904712 127.47828989 98.50610352 125.5871582 C101.80850362 122.68748982 104.69304919 119.90449512 107.19360352 116.2746582 C107.32256215 114.17419277 107.32256215 114.17419277 106.19360352 112.2746582 C103.59673047 110.93676517 103.59673047 110.93676517 100.44360352 110.0871582 C99.39688477 109.76360352 98.35016602 109.44004883 97.27172852 109.10668945 C94.58747422 108.38112325 91.92741252 107.77585652 89.19360352 107.2746582 C89.19360352 106.6146582 89.19360352 105.9546582 89.19360352 105.2746582 C89.84844727 105.17668945 90.50329102 105.0787207 91.17797852 104.9777832 C98.47191908 103.78273079 105.28990179 101.91547247 112.19360352 99.2746582 C112.88711914 99.02329102 113.58063477 98.77192383 114.29516602 98.51293945 C122.19875904 94.94413644 124.83815782 85.49987362 127.74975586 77.97729492 C131.97112393 66.52931891 134.49732454 54.73454261 136.97265625 42.81494141 C137.11437759 42.13278061 137.25609894 41.45061981 137.40211487 40.74778748 C137.78880896 38.87339747 138.16889653 36.99764804 138.54858398 35.12182617 C139.19360352 32.2746582 139.19360352 32.2746582 140.19360352 30.2746582 C140.3602967 26.73293842 140.3602967 26.73293842 140.19360352 23.2746582 C139.10819589 21.96927025 139.10819589 21.96927025 136.47875977 22.09887695 C121.21849407 22.91541911 99.95770147 35.82480902 88.19360352 45.2746582 Z M-12.80639648 53.2746582 C-12.80639648 53.9346582 -12.80639648 54.5946582 -12.80639648 55.2746582 C-13.46639648 55.2746582 -14.12639648 55.2746582 -14.80639648 55.2746582 C-15.13639648 56.5946582 -15.46639648 57.9146582 -15.80639648 59.2746582 C-16.46639648 59.2746582 -17.12639648 59.2746582 -17.80639648 59.2746582 C-26.91833186 76.53937786 -29.46427755 92.23503552 -23.87670898 111.00512695 C-23.18238242 113.12611723 -22.4661545 115.24011018 -21.72436523 117.3449707 C-17.303713 131.45343527 -22.56213915 143.02124991 -27.97827148 155.8840332 C-42.30485444 186.70266335 -42.30485444 186.70266335 -41.84936523 219.03637695 C-38.94621339 225.26673652 -34.91952742 230.03095607 -28.80639648 233.2746582 C-23.96684195 234.89262639 -19.77551631 235.52674137 -14.68280029 235.53535461 C-13.66019934 235.54109293 -13.66019934 235.54109293 -12.61693978 235.54694718 C-10.35156116 235.55719768 -8.08643977 235.55330045 -5.82104492 235.54931641 C-4.18943041 235.55366707 -2.55781795 235.5588514 -0.9262085 235.56480408 C3.49081607 235.57816134 7.90775491 235.57877683 12.32479572 235.57624078 C16.01309831 235.57516971 19.70138365 235.58005745 23.38968253 235.5848462 C32.08638032 235.59592817 40.7830349 235.59638493 49.47973633 235.59033203 C58.45657605 235.58428051 67.4332595 235.59663606 76.41007257 235.6179021 C84.11891183 235.63549384 91.82770121 235.64152365 99.53655982 235.63826436 C104.1403655 235.63644885 108.74405946 235.63911502 113.34784698 235.6529789 C117.67187915 235.66551463 121.9956663 235.6636538 126.31969452 235.65056801 C127.90842266 235.64819406 129.49716784 235.65096604 131.08587646 235.65919113 C133.25018611 235.66959089 135.41366295 235.66161398 137.57794189 235.64888 C139.39636786 235.64913162 139.39636786 235.64913162 141.25152969 235.64938831 C144.1712612 235.50950531 144.1712612 235.50950531 146.08877182 233.94731426 C147.86655784 231.25584136 147.4750569 228.75025542 147.38110352 225.5871582 C147.31860352 223.48299154 147.25610352 221.37882487 147.19360352 219.2746582 C145.61850258 219.4859864 145.61850258 219.4859864 144.01158142 219.70158386 C127.9214276 221.67135836 111.82666454 221.58702171 95.646806 221.57624078 C92.42030987 221.57515754 89.19383284 221.58008676 85.96734089 221.5848462 C78.36297774 221.59585 70.75866408 221.59642622 63.15429688 221.59033203 C55.32522046 221.58425476 47.49632205 221.59671846 39.66727597 221.6179021 C32.91100029 221.63550637 26.15478146 221.64152263 19.39848369 221.63826436 C15.3771892 221.63645469 11.35602275 221.63905909 7.33474922 221.6529789 C3.56783322 221.66553897 -0.19880188 221.66363079 -3.9657135 221.65056801 C-5.34559283 221.64820138 -6.7254919 221.65094005 -8.10534859 221.65919113 C-9.98987916 221.66964844 -11.87448977 221.65976091 -13.75901794 221.64888 C-14.81246116 221.64904775 -15.86590437 221.64921549 -16.9512701 221.64938831 C-20.2526868 221.21608342 -22.13015124 220.22412355 -24.80639648 218.2746582 C-29.65704342 210.65221302 -26.44348624 198.49689551 -24.80639648 190.2746582 C-22.89957946 182.19177894 -20.57574904 174.27839674 -17.86499023 166.4309082 C-17.0842826 164.1031895 -16.35067483 161.78353036 -15.65405273 159.4309082 C-13.29781676 151.51308055 -10.60264213 144.18088992 -6.94311523 136.7512207 C-5.66734707 134.42587463 -5.66734707 134.42587463 -5.80639648 132.2746582 C-5.14639648 132.2746582 -4.48639648 132.2746582 -3.80639648 132.2746582 C-2.63684339 130.81902738 -1.46763955 129.36311403 -0.30053711 127.90551758 C2.20931448 125.16600637 5.29155336 123.44270918 8.44360352 121.5246582 C21.18036763 113.34126024 31.41322278 100.66104584 35.67016602 85.87231445 C38.46536642 72.00061093 40.34786978 58.07589707 32.50610352 45.5871582 C27.31532354 40.39637823 21.14210264 38.66176596 14.00610352 37.9621582 C3.14848561 38.85212688 -5.6271836 45.41937595 -12.80639648 53.2746582 Z " fill="#084CAC" transform="translate(79.806396484375,28.725341796875)"/>
<path d="M0 0 C0.66 0 1.32 0 2 0 C2 0.66 2 1.32 2 2 C3.36278517 1.99446924 3.36278517 1.99446924 4.75310135 1.98882675 C26.84421599 1.90054692 48.93530029 1.83432507 71.02655411 1.79275131 C81.70966165 1.77211294 92.39265155 1.74396797 103.07568359 1.69824219 C112.38539416 1.65841347 121.69501956 1.63257647 131.00481296 1.62364602 C135.93578302 1.61842455 140.86650936 1.60612575 145.79740143 1.57707977 C150.43652986 1.54997331 155.07531368 1.54154532 159.71451378 1.54756927 C161.41893828 1.5464669 163.12337405 1.53848458 164.82773018 1.5231781 C167.15203857 1.50332412 169.47503985 1.50804305 171.79937744 1.51898193 C173.75173498 1.51345118 173.75173498 1.51345118 175.74353409 1.50780869 C179 2 179 2 181.41997528 3.85526276 C183.52870014 6.71766149 183.48332591 8.51756465 183.45410156 12.05371094 C183.45379944 13.27467468 183.45349731 14.49563843 183.45318604 15.75360107 C183.43254089 17.06725647 183.41189575 18.38091187 183.390625 19.734375 C183.38316087 21.09628468 183.37746874 22.45820512 183.37347412 23.82012939 C183.35823092 27.39770368 183.31896181 30.97462422 183.2746582 34.55194092 C183.23367632 38.20511024 183.21545697 41.85838562 183.1953125 45.51171875 C183.1524651 52.6747766 183.08423115 59.83729656 183 67 C182.67 66.01 182.34 65.02 182 64 C181.34 64 180.68 64 180 64 C179.855625 64.763125 179.71125 65.52625 179.5625 66.3125 C179 69 179 69 178 72 C178.33 72.99 178.66 73.98 179 75 C178.01 74.67 177.02 74.34 176 74 C176 73.34 176 72.68 176 72 C173.97954558 72.60183749 171.97888961 73.27306096 170 74 C169.67 74.66 169.34 75.32 169 76 C168.01 76 167.02 76 166 76 C166 77.32 166 78.64 166 80 C169.68310607 79.40042459 173.34123709 78.73175258 177 78 C177.33 78 177.66 78 178 78 C178.66 77.34 179.32 76.68 180 76 C180.66 75.34 181.32 74.68 182 74 C182.33 74 182.66 74 183 74 C183 85.88 183 97.76 183 110 C181.68 108.68 180.36 107.36 179 106 C175.85518209 105.19684346 175.85518209 105.19684346 173 105 C173.99 104.67 174.98 104.34 176 104 C176 103.34 176 102.68 176 102 C176.66 101.34 177.32 100.68 178 100 C178 99.34 178 98.68 178 98 C177.01 98.33 176.02 98.66 175 99 C172.99124558 98.72428861 170.98821313 98.39764263 169 98 C169 96.68 169 95.36 169 94 C168.34 94 167.68 94 167 94 C166.67 93.67 166.34 93.34 166 93 C165.67 93.99 165.34 94.98 165 96 C161.9375 97.6875 161.9375 97.6875 159 99 C159 98.34 159 97.68 159 97 C156.525 97.495 156.525 97.495 154 98 C153.87625 97.195625 153.7525 96.39125 153.625 95.5625 C153.41875 94.716875 153.2125 93.87125 153 93 C152.34 92.67 151.68 92.34 151 92 C151 92.99 151 93.98 151 95 C150.01 95 149.02 95 148 95 C148 97.31 148 99.62 148 102 C145.03 101.01 145.03 101.01 142 100 C141.34 101.65 140.68 103.3 140 105 C139.01 105 138.02 105 137 105 C136.67 105.99 136.34 106.98 136 108 C136 107.34 136 106.68 136 106 C135.01 106 134.02 106 133 106 C133 105.01 133 104.02 133 103 C131.33388095 102.957279 129.66617115 102.95936168 128 103 C127.67 103.33 127.34 103.66 127 104 C128.65 104 130.3 104 132 104 C131.01 104.66 130.02 105.32 129 106 C128.67 106.66 128.34 107.32 128 108 C127.01 108 126.02 108 125 108 C124.34 107.01 123.68 106.02 123 105 C123.96085511 102.62989072 124.55892663 101.27165446 126.76953125 99.91015625 C127.44371094 99.63042969 128.11789063 99.35070312 128.8125 99.0625 C135.76760784 96.17014374 139.01761616 90.80568815 142 84.25 C142.34321289 83.50339111 142.68642578 82.75678223 143.04003906 81.98754883 C148.41926687 69.92729984 151.38311558 57.41139903 153.56933594 44.42260742 C153.7140332 43.61412354 153.85873047 42.80563965 154.0078125 41.97265625 C154.12785645 41.25343994 154.24790039 40.53422363 154.37158203 39.79321289 C155 38 155 38 158 36 C157.649375 35.154375 157.29875 34.30875 156.9375 33.4375 C155.87666932 29.5477875 156.39429383 26.93709008 157 23 C155.25399867 20.85481588 155.25399867 20.85481588 153.21484375 20.7421875 C143.91572648 21.28450309 136.10897298 25.78554763 128 30 C127.25089355 30.38365723 126.50178711 30.76731445 125.72998047 31.16259766 C111.24380326 38.64144966 97.8716463 47.7792115 86 59 C84.93265625 59.97259766 84.93265625 59.97259766 83.84375 60.96484375 C60.73651339 82.84549759 49.94162083 115.92503056 41.515625 145.71484375 C41.07477875 147.26035575 40.63386039 148.80584717 40.19287109 150.35131836 C39.32145795 153.4081492 38.47395339 156.470345 37.63916016 159.53735352 C37.2367163 160.96260406 36.83358848 162.3876617 36.4296875 163.8125 C36.08147949 165.07707031 35.73327148 166.34164062 35.37451172 167.64453125 C33.8335143 171.4064262 32.00447598 173.31181612 29 176 C28.443125 176.763125 27.88625 177.52625 27.3125 178.3125 C26.879375 178.869375 26.44625 179.42625 26 180 C25.34 180 24.68 180 24 180 C24 179.34 24 178.68 24 178 C23.01 177.67 22.02 177.34 21 177 C21.66 176.67 22.32 176.34 23 176 C22.0409375 175.814375 22.0409375 175.814375 21.0625 175.625 C20.381875 175.41875 19.70125 175.2125 19 175 C18.67 174.34 18.34 173.68 18 173 C18.66 173 19.32 173 20 173 C19.835 172.401875 19.67 171.80375 19.5 171.1875 C19 169 19 169 19 166 C18.2812682 163.03439971 18.2812682 163.03439971 16.5 161.625 C15 160 15 160 14.5625 157.4375 C14.26012621 154.82682205 14.26012621 154.82682205 11.9375 153.6875 C10.9784375 153.3471875 10.9784375 153.3471875 10 153 C10.33 153.99 10.66 154.98 11 156 C10.01 156.66 9.02 157.32 8 158 C8 157.34 8 156.68 8 156 C6.68 155.34 5.36 154.68 4 154 C5.60243595 142.75903136 9.79412406 132.69612379 19.05078125 125.69140625 C20.12714844 124.98886719 21.20351562 124.28632813 22.3125 123.5625 C39.46451673 112.02496633 50.20798813 96.73309794 54.3046875 76.3203125 C56.04629073 66.38292937 56.6155371 55.81969651 51 47 C45.84366641 41.00129508 39.39088832 38.16573205 31.625 37.0625 C25.80564637 36.68090304 21.9582678 38.06769109 17 41 C15.89011719 41.63808594 15.89011719 41.63808594 14.7578125 42.2890625 C4.39419025 48.70805344 -2.64490172 57.10945039 -8 68 C-8.43570313 68.87785156 -8.87140625 69.75570312 -9.3203125 70.66015625 C-14.61831699 83.53467766 -13.57212732 98.9926865 -9 111.875 C-3.19975019 128.32998269 -6.32792384 140.20962687 -13.0925293 155.88549805 C-13.81278372 157.56376643 -14.48367447 159.26320481 -15.13671875 160.96875 C-16.27469353 163.64633771 -17.76079652 165.16792442 -20 167 C-20.99 167 -21.98 167 -23 167 C-22.67 169.31 -22.34 171.62 -22 174 C-22.66 174.33 -23.32 174.66 -24 175 C-24.66 174.34 -25.32 173.68 -26 173 C-25.505 172.01 -25.505 172.01 -25 171 C-25.66 171 -26.32 171 -27 171 C-27.33 171.99 -27.66 172.98 -28 174 C-28.33 173.34 -28.66 172.68 -29 172 C-29.0825 172.763125 -29.165 173.52625 -29.25 174.3125 C-30.14615794 177.52373261 -31.21611025 178.29374499 -34 180 C-34.66 179.67 -35.32 179.34 -36 179 C-36.144375 178.34 -36.28875 177.68 -36.4375 177 C-36.623125 176.34 -36.80875 175.68 -37 175 C-37.99 174.67 -38.98 174.34 -40 174 C-40 163.11 -40 152.22 -40 141 C-37.69 140.67 -35.38 140.34 -33 140 C-34.65 140 -36.3 140 -38 140 C-39.0625 138.125 -39.0625 138.125 -40 136 C-39.505 135.01 -39.505 135.01 -39 134 C-39.33 133.34 -39.66 132.68 -40 132 C-39.505 131.01 -39.505 131.01 -39 130 C-39.66 130 -40.32 130 -41 130 C-41.09287235 117.3951576 -41.16385257 104.79039723 -41.20724869 92.18528175 C-41.2280816 86.33156838 -41.25632095 80.47808992 -41.30175781 74.62451172 C-41.34536845 68.97052084 -41.3691694 63.31675526 -41.37950897 57.6626091 C-41.38687303 55.51053702 -41.40125313 53.35847661 -41.42292023 51.20650101 C-41.45215619 48.1811834 -41.45594754 45.15678485 -41.45410156 42.13134766 C-41.46848267 41.25092804 -41.48286377 40.37050842 -41.49768066 39.46340942 C-41.42960795 29.08493928 -37.17221299 20.39163059 -30 13 C-23.88624804 7.70826511 -17.85143481 4.75166505 -10 3 C-9.1440625 2.80792969 -8.288125 2.61585937 -7.40625 2.41796875 C-5.84543067 2.07468728 -4.2818269 1.74363491 -2.71484375 1.4296875 C-0.9797099 1.15105528 -0.9797099 1.15105528 0 0 Z " fill="#094DAD" transform="translate(64,29)"/>
<path d="M0 0 C1.67856106 2.65035957 1.39200238 4.80746424 1.1875 7.875 C-0.9510485 5.7364515 -1.23905063 4.74224686 -1.8125 1.875 C-10.24012356 1.99680001 -16.60329995 4.63198312 -24.0625 8.375 C-25.15699463 8.91092773 -26.25148926 9.44685547 -27.37915039 9.99902344 C-34.73413213 13.66153526 -41.68054624 17.6548504 -48.43359375 22.328125 C-50.8125 23.875 -50.8125 23.875 -52.8125 23.875 C-52.8125 24.535 -52.8125 25.195 -52.8125 25.875 C-58.22426471 29.875 -58.22426471 29.875 -60.8125 29.875 C-61.1425 30.865 -61.4725 31.855 -61.8125 32.875 C-62.451875 33.019375 -63.09125 33.16375 -63.75 33.3125 C-64.430625 33.498125 -65.11125 33.68375 -65.8125 33.875 C-66.10382813 34.47570312 -66.39515625 35.07640625 -66.6953125 35.6953125 C-68.01502393 38.27013411 -69.50686316 39.50378818 -71.75 41.3125 C-74.86730464 43.92810461 -76.84982854 46.27676899 -78.8125 49.875 C-79.4725 49.875 -80.1325 49.875 -80.8125 49.875 C-81.4725 51.525 -82.1325 53.175 -82.8125 54.875 C-83.4725 54.875 -84.1325 54.875 -84.8125 54.875 C-85.080625 55.57625 -85.34875 56.2775 -85.625 57 C-86.8806449 60.0399824 -88.31485123 62.9477774 -89.8125 65.875 C-90.4725 65.875 -91.1325 65.875 -91.8125 65.875 C-92.18375 67.09703125 -92.18375 67.09703125 -92.5625 68.34375 C-93.74853136 71.69428859 -95.14961149 74.78746583 -96.68017578 77.98706055 C-105.89571052 97.42154638 -112.1404188 118.29767453 -117.56884766 139.07104492 C-120.03640955 148.3576102 -120.03640955 148.3576102 -122.8125 151.875 C-123.4725 151.875 -124.1325 151.875 -124.8125 151.875 C-125.05355469 152.38675781 -125.29460937 152.89851562 -125.54296875 153.42578125 C-127.25475623 156.72821432 -129.19390831 159.88560659 -131.125 163.0625 C-134.12777588 168.01219642 -137.02976765 172.97120731 -139.64453125 178.140625 C-141.08614441 180.28134822 -142.64364575 181.49443266 -144.8125 182.875 C-145.4725 182.875 -146.1325 182.875 -146.8125 182.875 C-146.1525 184.525 -145.4925 186.175 -144.8125 187.875 C-146.1325 189.525 -147.4525 191.175 -148.8125 192.875 C-147.8225 193.205 -146.8325 193.535 -145.8125 193.875 C-145.8125 194.865 -145.8125 195.855 -145.8125 196.875 C-148.04105574 196.9564222 -150.27047655 197.01438079 -152.5 197.0625 C-153.74136719 197.09730469 -154.98273438 197.13210937 -156.26171875 197.16796875 C-159.99814321 196.8596829 -161.81879483 196.05588273 -164.8125 193.875 C-163.55708443 191.36416886 -162.31186512 191.00374554 -159.8125 189.875 C-159.8125 188.555 -159.8125 187.235 -159.8125 185.875 C-159.4825 185.545 -159.1525 185.215 -158.8125 184.875 C-158.77186168 183.20882885 -158.769779 181.54111905 -158.8125 179.875 C-159.4725 180.865 -160.1325 181.855 -160.8125 182.875 C-162.1325 182.215 -163.4525 181.555 -164.8125 180.875 C-164.1525 180.545 -163.4925 180.215 -162.8125 179.875 C-163.06 178.946875 -163.06 178.946875 -163.3125 178 C-163.8125 175.875 -163.8125 175.875 -163.8125 173.875 C-165.57529117 177.40058233 -165.03963881 181.42895591 -165.0625 185.3125 C-165.083125 186.18455078 -165.10375 187.05660156 -165.125 187.95507812 C-165.13015625 188.79361328 -165.1353125 189.63214844 -165.140625 190.49609375 C-165.1499707 191.2636499 -165.15931641 192.03120605 -165.16894531 192.82202148 C-164.70478499 195.4953942 -163.94797978 196.22361849 -161.8125 197.875 C-159.37830971 198.32133726 -159.37830971 198.32133726 -156.60009766 198.24249268 C-154.9785376 198.25084641 -154.9785376 198.25084641 -153.32421875 198.2593689 C-152.13699219 198.25015411 -150.94976562 198.24093933 -149.7265625 198.23144531 C-147.84976807 198.23451187 -147.84976807 198.23451187 -145.93505859 198.23764038 C-142.49064406 198.24013992 -139.04676524 198.22919062 -135.60242462 198.21211338 C-131.96461244 198.19700983 -128.32680313 198.19824896 -124.68896484 198.19744873 C-118.54519654 198.19374776 -112.40153931 198.17877506 -106.2578125 198.15625 C-98.48609974 198.1278056 -90.71447753 198.11711064 -82.94271851 198.1124649 C-42.37810627 198.15518467 -42.37810627 198.15518467 -1.83056641 197.13018799 C-0.61288574 197.0830365 0.60479492 197.03588501 1.859375 196.98730469 C3.39223145 196.91899445 3.39223145 196.91899445 4.95605469 196.8493042 C7.1875 196.875 7.1875 196.875 8.1875 197.875 C8.339823 199.97529986 8.40939372 202.08187139 8.4375 204.1875 C8.47617187 205.91419922 8.47617187 205.91419922 8.515625 207.67578125 C8.159426 211.14872149 7.70019728 212.49246497 5.1875 214.875 C1.67792951 216.10637414 -1.7683909 216.00624737 -5.45903015 216.01544189 C-6.45918544 216.01989858 -6.45918544 216.01989858 -7.47954589 216.0244453 C-9.71253228 216.03311285 -11.94546493 216.0346389 -14.1784668 216.03613281 C-15.7801983 216.04076243 -17.38192871 216.04578729 -18.98365784 216.05117798 C-23.33512575 216.06429175 -27.68657823 216.07074516 -32.03806281 216.07518864 C-34.75851444 216.07812155 -37.47896188 216.08222681 -40.19941139 216.08669281 C-48.71622882 216.10036622 -57.23303664 216.11003315 -65.74986428 216.1138947 C-75.57135284 216.11837256 -85.39270203 216.13590845 -95.21414822 216.1648953 C-102.81176178 216.18653787 -110.4093362 216.19660039 -118.00698024 216.19793582 C-122.54172775 216.19898218 -127.07634422 216.20485367 -131.61105919 216.22275543 C-135.88006476 216.23928027 -140.14884142 216.24137029 -144.41786766 216.23261642 C-145.97989008 216.23184836 -147.54192503 216.23615827 -149.10391617 216.24607468 C-160.09467532 216.31172652 -170.4950039 215.91391967 -178.8125 207.875 C-185.91000835 199.17482848 -187.58758495 190.92415128 -186.8125 179.875 C-185.2438836 170.57794878 -182.1726537 162.01298934 -178.625 153.3125 C-178.1417627 152.10537354 -177.65852539 150.89824707 -177.16064453 149.65454102 C-175.71937366 146.05803418 -174.26634562 142.46643802 -172.8125 138.875 C-171.61677695 135.89369435 -170.42445339 132.91105408 -169.2331543 129.92797852 C-168.55315016 128.22709495 -167.87112971 126.52701564 -167.18676758 124.82788086 C-162.38682836 112.90180895 -162.45125838 102.70140709 -166.8125 90.75 C-171.72330879 76.90539541 -172.1829249 61.55980339 -166.34765625 47.90625 C-158.54677239 32.50297805 -148.19788534 22.27953179 -132.375 15.375 C-124.58102917 14.28110936 -116.92793952 15.88504511 -110.4921875 20.46484375 C-104.37544034 25.60006636 -101.2661829 31.27177836 -100.4921875 39.125 C-99.84263101 59.56437769 -106.76928644 77.90227141 -120.8125 92.875 C-126.3203272 98.34651185 -133.42820733 104.41356911 -140.8125 106.875 C-141.51644612 108.18903276 -142.17595658 109.5270257 -142.8125 110.875 C-143.43125 111.57625 -144.05 112.2775 -144.6875 113 C-149.0364411 118.88386149 -151.18283494 125.63385179 -151.8125 132.875 C-150.4925 133.535 -149.1725 134.195 -147.8125 134.875 C-147.4825 133.885 -147.1525 132.895 -146.8125 131.875 C-143.8425 132.865 -143.8425 132.865 -140.8125 133.875 C-141.4725 134.205 -142.1325 134.535 -142.8125 134.875 C-142.03770264 137.86652582 -142.03770264 137.86652582 -140.8125 140.875 C-139.8225 141.205 -138.8325 141.535 -137.8125 141.875 C-135.9744887 145.91862487 -135.55794074 148.60949853 -136.8125 152.875 C-135.8225 153.535 -134.8325 154.195 -133.8125 154.875 C-133.4825 154.215 -133.1525 153.555 -132.8125 152.875 C-132.8125 154.875 -132.8125 156.875 -132.8125 158.875 C-130.57639704 156.71875786 -128.59067126 154.58792752 -126.6875 152.125 C-126.06875 151.3825 -125.45 150.64 -124.8125 149.875 C-124.1525 149.875 -123.4925 149.875 -122.8125 149.875 C-122.72033203 149.33875 -122.62816406 148.8025 -122.53320312 148.25 C-121.00173105 139.97324423 -118.68684554 131.93980925 -116.3125 123.875 C-116.09385284 123.13122101 -115.87520569 122.38744202 -115.64993286 121.62112427 C-103.16388918 79.39570761 -85.76877156 43.34537564 -47.8125 18.875 C-46.8853418 18.26881836 -46.8853418 18.26881836 -45.93945312 17.65039062 C-38.15845101 12.60667916 -30.0412935 8.3910812 -21.6875 4.375 C-20.78612305 3.94106934 -19.88474609 3.50713867 -18.95605469 3.06005859 C-18.10172852 2.65867676 -17.24740234 2.25729492 -16.3671875 1.84375 C-15.60905762 1.48732422 -14.85092773 1.13089844 -14.06982422 0.76367188 C-9.74436022 -0.93919304 -4.18547541 -2.59788129 0 0 Z M-153.8125 31.875 C-153.8125 32.535 -153.8125 33.195 -153.8125 33.875 C-154.4725 33.875 -155.1325 33.875 -155.8125 33.875 C-156.1425 35.195 -156.4725 36.515 -156.8125 37.875 C-157.4725 37.875 -158.1325 37.875 -158.8125 37.875 C-167.92443537 55.13971965 -170.47038106 70.83537732 -164.8828125 89.60546875 C-164.18848593 91.72645903 -163.47225802 93.84045197 -162.73046875 95.9453125 C-158.30981652 110.05377707 -163.56824267 121.62159171 -168.984375 134.484375 C-183.31095796 165.30300515 -183.31095796 165.30300515 -182.85546875 197.63671875 C-179.95231691 203.86707832 -175.92563094 208.63129787 -169.8125 211.875 C-164.97294546 213.49296819 -160.78161983 214.12708317 -155.68890381 214.13569641 C-154.66630286 214.14143473 -154.66630286 214.14143473 -153.6230433 214.14728898 C-151.35766468 214.15753947 -149.09254329 214.15364224 -146.82714844 214.1496582 C-145.19553393 214.15400886 -143.56392146 214.15919319 -141.93231201 214.16514587 C-137.51528745 214.17850313 -133.09834861 214.17911863 -128.68130779 214.17658257 C-124.99300521 214.17551151 -121.30471987 214.18039924 -117.61642098 214.185188 C-108.9197232 214.19626997 -100.22306861 214.19672673 -91.52636719 214.19067383 C-82.54952747 214.18462231 -73.57284401 214.19697786 -64.59603095 214.2182439 C-56.88719169 214.23583564 -49.1784023 214.24186545 -41.4695437 214.23860615 C-36.86573802 214.23679065 -32.26204405 214.23945682 -27.65825653 214.25332069 C-23.33422436 214.26585643 -19.01043722 214.2639956 -14.686409 214.25090981 C-13.09768085 214.24853586 -11.50893567 214.25130784 -9.92022705 214.25953293 C-7.75591741 214.26993269 -5.59244056 214.26195578 -3.42816162 214.2492218 C-1.60973566 214.24947341 -1.60973566 214.24947341 0.24542618 214.24973011 C3.16515768 214.1098471 3.16515768 214.1098471 5.0826683 212.54765606 C6.86045433 209.85618316 6.46895338 207.35059722 6.375 204.1875 C6.3125 202.08333333 6.25 199.97916667 6.1875 197.875 C4.61239906 198.0863282 4.61239906 198.0863282 3.00547791 198.30192566 C-13.08467592 200.27170016 -29.17943897 200.1873635 -45.35929751 200.17658257 C-48.58579365 200.17549934 -51.81227067 200.18042856 -55.03876263 200.185188 C-62.64312577 200.1961918 -70.24743944 200.19676802 -77.85180664 200.19067383 C-85.68088306 200.18459655 -93.50978146 200.19706026 -101.33882755 200.2182439 C-108.09510322 200.23584817 -114.85132206 200.24186443 -121.60761982 200.23860615 C-125.62891431 200.23679649 -129.65008077 200.23940089 -133.67135429 200.25332069 C-137.4382703 200.26588077 -141.2049054 200.26397258 -144.97181702 200.25090981 C-146.35169634 200.24854318 -147.73159542 200.25128184 -149.1114521 200.25953293 C-150.99598268 200.26999024 -152.88059329 200.2601027 -154.76512146 200.2492218 C-155.81856467 200.24938954 -156.87200788 200.24955729 -157.95737362 200.24973011 C-161.25879032 199.81642521 -163.13625476 198.82446535 -165.8125 196.875 C-170.66314693 189.25255482 -167.44958975 177.09723731 -165.8125 168.875 C-163.90568297 160.79212074 -161.58185256 152.87873853 -158.87109375 145.03125 C-158.09038612 142.7035313 -157.35677834 140.38387216 -156.66015625 138.03125 C-154.30392028 130.11342234 -151.60874565 122.78123171 -147.94921875 115.3515625 C-146.67345058 113.02621643 -146.67345058 113.02621643 -146.8125 110.875 C-146.1525 110.875 -145.4925 110.875 -144.8125 110.875 C-143.64294691 109.41936918 -142.47374306 107.96345583 -141.30664062 106.50585938 C-138.79678904 103.76634817 -135.71455016 102.04305097 -132.5625 100.125 C-119.82573588 91.94160204 -109.59288074 79.26138763 -105.3359375 64.47265625 C-102.54073709 50.60095273 -100.65823374 36.67623886 -108.5 24.1875 C-113.69077997 18.99672003 -119.86400088 17.26210776 -127 16.5625 C-137.85761791 17.45246868 -146.63328712 24.01971775 -153.8125 31.875 Z " fill="#084BAB" transform="translate(220.8125,50.125)"/>
<path d="M0 0 C0.495 0.99 0.495 0.99 1 2 C-0.05058594 2.23074219 -1.10117187 2.46148438 -2.18359375 2.69921875 C-13.11056949 5.19830075 -23.86146895 8.1829508 -30.94921875 17.5859375 C-31.52285156 18.50632812 -32.09648438 19.42671875 -32.6875 20.375 C-33.26886719 21.29023437 -33.85023437 22.20546875 -34.44921875 23.1484375 C-37.4406786 28.64910674 -38.29475796 33.54615856 -38.26742554 39.74674988 C-38.27195665 40.50773949 -38.27648776 41.26872911 -38.28115618 42.05277902 C-38.29377672 44.59278424 -38.29218133 47.13257439 -38.29052734 49.67260742 C-38.29651417 51.49798863 -38.30332007 53.32336731 -38.31088257 55.14874268 C-38.32853674 60.10146091 -38.33323778 65.05411002 -38.33451414 70.00685668 C-38.33593693 73.10423674 -38.34020903 76.20159929 -38.34550858 79.29897499 C-38.36400882 90.11379739 -38.37217943 100.92857051 -38.37060547 111.7434082 C-38.36940494 121.80902395 -38.3904899 131.87442497 -38.4220928 141.93998641 C-38.44828903 150.59329647 -38.45897132 159.24653656 -38.45769465 167.89988595 C-38.45718589 173.06290856 -38.46282139 178.22574041 -38.48405075 183.38872337 C-38.50348883 188.24877023 -38.5035196 193.1084455 -38.48901749 197.96850586 C-38.486935 199.74577188 -38.49159665 201.52306149 -38.5037384 203.30028725 C-38.600441 218.44372861 -36.28221623 229.34748259 -25.53125 240.52734375 C-16.29098018 248.97192367 -5.73062756 248.58130454 6.0324707 248.53344727 C7.85980423 248.54051214 9.6871319 248.54925954 11.51445007 248.55955505 C16.45627343 248.58198543 21.3977756 248.57912565 26.33963037 248.57023358 C30.46785717 248.5651139 34.59602414 248.57242354 38.72424477 248.57970566 C48.45855072 248.5966817 58.19269977 248.59315869 67.92700195 248.57641602 C77.97187281 248.55946296 88.0163101 248.57537813 98.06113368 248.6076389 C106.6906383 248.6343047 115.32000769 248.64161996 123.94954938 248.63312382 C129.10170611 248.62818999 134.25360145 248.63043615 139.40572548 248.65091133 C144.24455102 248.66922346 149.08274967 248.66336478 153.92154121 248.63871193 C155.69851618 248.63369145 157.4755386 248.63722577 159.25247574 248.64986038 C161.67513233 248.66572653 164.09570758 248.65090435 166.51826477 248.62818909 C167.22419071 248.64002482 167.93011665 248.65186054 168.65743428 248.66405493 C172.31459959 248.59419846 173.75186004 248.23670684 176.43745708 245.67484951 C178.48071947 242.17707717 178.48295248 239.72506098 178.46875 235.6875 C178.47579956 234.99615967 178.48284912 234.30481934 178.4901123 233.5925293 C178.51206888 231.39463894 178.50916222 229.19796736 178.5 227 C178.487926 224.10351098 178.50171627 221.20883111 178.53125 218.3125 C178.52448242 216.38857422 178.52448242 216.38857422 178.51757812 214.42578125 C179.08944436 210.36483639 180.47100834 209.14415179 183 206 C185.79974536 197.15429785 185.27393441 187.97688145 185.24291992 178.79980469 C185.24399401 176.95439588 185.24593457 175.10898741 185.24867249 173.26358032 C185.25350235 168.2721676 185.24588928 163.28084486 185.23571944 158.28944302 C185.22691202 153.06008958 185.22869688 147.83073874 185.2290802 142.60137939 C185.22814501 133.82538351 185.21947899 125.0494223 185.20581055 116.2734375 C185.19006701 106.12762734 185.18481321 95.98185508 185.1855461 85.83603358 C185.18622142 75.02720597 185.17928316 64.21839295 185.1700995 53.40956974 C185.1679685 50.2965114 185.16725837 47.18345542 185.16686058 44.07039642 C185.16585628 39.18170662 185.15975249 34.29304865 185.14969444 29.40436935 C185.14677349 27.61007507 185.14554326 25.81577713 185.14612198 24.02148056 C185.14661276 21.57359235 185.14095622 19.12579327 185.13371277 16.67791748 C185.13603567 15.61172499 185.13603567 15.61172499 185.1384055 14.52399325 C185.12063723 10.89102112 184.85998261 7.5336148 184 4 C180.46512298 2.82170766 177.65238321 2.86027366 173.91963196 2.84178162 C173.19427992 2.83684364 172.46892787 2.83190566 171.72159547 2.82681805 C169.2848583 2.81142868 166.8481475 2.80307854 164.41137695 2.79467773 C162.66711189 2.78510034 160.92284915 2.77509034 159.17858887 2.76467896 C154.43719706 2.73760879 149.69579529 2.71661065 144.95436883 2.69667697 C140.00155834 2.67483044 135.04877868 2.64743523 130.09599304 2.62062073 C120.71442006 2.5706758 111.33283 2.52574364 101.95122355 2.48259836 C91.27177214 2.43324137 80.59235165 2.37831754 69.91293013 2.32291877 C47.94198222 2.20907109 25.9710048 2.10223811 4 2 C4 1.34 4 0.68 4 0 C26.86117422 -0.07005369 49.72233076 -0.12297034 72.58359051 -0.15543652 C83.19826023 -0.1709112 93.81286329 -0.19201226 104.42749023 -0.22631836 C113.67824641 -0.25620225 122.92895431 -0.27557062 132.17975742 -0.28226548 C137.07885482 -0.28617945 141.97781412 -0.29539036 146.87686729 -0.31719017 C151.4872322 -0.33753933 156.09740199 -0.34383697 160.70780754 -0.33932304 C162.40051585 -0.34014895 164.09323062 -0.34612396 165.78590012 -0.35761642 C168.09653578 -0.37253619 170.40643417 -0.36895584 172.71708679 -0.36076355 C174.65700013 -0.36491162 174.65700013 -0.36491162 176.63610363 -0.36914349 C180.29260655 0.03210973 182.13636578 0.72018131 185 3 C187.16985399 6.09051353 187.25725416 8.76894791 187.2784729 12.48641968 C187.28963638 13.60342255 187.30079987 14.72042542 187.31230164 15.87127686 C187.31446182 17.09373108 187.31662201 18.3161853 187.31884766 19.57568359 C187.33391609 21.51397537 187.33391609 21.51397537 187.34928894 23.49142456 C187.37666628 27.04786925 187.39178237 30.60427399 187.40471697 34.16079664 C187.42045758 37.92964007 187.44725484 41.69840582 187.4727478 45.4671936 C187.5143372 51.84122341 187.54875788 58.21525809 187.578125 64.58935547 C187.6187409 73.4037126 187.67160144 82.21796115 187.72736406 91.03223372 C187.8187141 105.54184421 187.89143313 120.05145676 187.94766617 134.56124496 C187.9782313 142.36964707 188.01820182 150.17786646 188.07109261 157.98615837 C188.09852075 162.27951614 188.11776992 166.57287954 188.13450241 170.86629105 C188.1436089 172.77630222 188.15612002 174.68630101 188.17247391 176.59626389 C188.38338804 201.81546624 188.38338804 201.81546624 183.3828125 209.328125 C179.67009474 215.36980364 180.57928603 221.89356208 180.875 228.75 C180.96952257 231.32765614 181.05079888 233.90584087 181.1171875 236.484375 C181.16472168 237.61584961 181.21225586 238.74732422 181.26123047 239.91308594 C180.95757488 243.50133013 180.22727995 245.18653033 178 248 C173.93279199 251.06954844 170.45229764 251.4287739 165.51190186 251.38095093 C164.39408368 251.38797089 164.39408368 251.38797089 163.25368333 251.39513266 C160.76106261 251.40708132 158.26899182 251.39762599 155.77636719 251.38818359 C153.98729634 251.3922495 152.19822801 251.39759148 150.40916443 251.40411377 C145.55151054 251.41779488 140.69404774 251.41248437 135.8363905 251.40297651 C130.74901503 251.39537936 125.66165589 251.40242612 120.57427979 251.40713501 C112.02654079 251.41259438 103.47887953 251.40539825 94.93115234 251.39111328 C85.06038056 251.37480731 75.18979489 251.38005962 65.31902766 251.3965925 C56.83816081 251.41022712 48.35734985 251.41211673 39.87647557 251.40427649 C34.81415208 251.39960815 29.7519159 251.39895159 24.68959808 251.40888596 C19.92563278 251.41758134 15.16190604 251.4114868 10.39796638 251.39420319 C8.65373441 251.39025116 6.90948221 251.39135029 5.16525841 251.39799118 C-8.84894426 251.44640943 -18.5791651 249.88866318 -29.1015625 240.03125 C-37.30498397 231.55130871 -41.15025492 221.26763057 -41.14717102 209.60092163 C-41.15084771 208.85318596 -41.1545244 208.10545028 -41.1583125 207.33505595 C-41.16933063 204.82801861 -41.17319002 202.32102275 -41.17700195 199.81396484 C-41.18326808 198.01681385 -41.18991501 196.21966415 -41.19691467 194.42251587 C-41.21794191 188.51866557 -41.22831667 182.61481505 -41.23828125 176.7109375 C-41.24232948 174.67675386 -41.24644642 172.64257036 -41.25063133 170.60838699 C-41.26968105 161.04986075 -41.28391184 151.49134222 -41.2922433 141.93280065 C-41.30201151 130.90857128 -41.32832115 119.88454291 -41.36874419 108.86038435 C-41.3989338 100.33367697 -41.41371493 91.80702713 -41.41702431 83.28026736 C-41.41937178 78.1904506 -41.42829271 73.10084863 -41.45348549 68.01108932 C-41.4768206 63.21921144 -41.48097758 58.42768894 -41.47072411 53.63576889 C-41.47022994 51.8822664 -41.47651512 50.12874608 -41.49028015 48.37529755 C-41.55770526 39.27310181 -41.49620861 31.20320455 -37 23 C-36.29617187 21.66388672 -36.29617187 21.66388672 -35.578125 20.30078125 C-28.9178361 10.32993698 -20.48255324 3.88719609 -8.62890625 1.25 C-5.75614429 0.76274709 -2.89371857 0.33835802 0 0 Z " fill="#0C286F" transform="translate(62,29)"/>
<path d="M0 0 C6.34343238 3.51406016 10.9592096 8.37311797 13.21484375 15.41015625 C16.40572046 32.05018274 11.4141328 49.71350944 2.6875 63.875 C-4.28664782 73.67583782 -14.55441403 84.95563801 -26.3125 88.875 C-27.01644612 90.18903276 -27.67595658 91.5270257 -28.3125 92.875 C-28.93125 93.57625 -29.55 94.2775 -30.1875 95 C-34.09926683 100.29239041 -35.93637748 106.47575987 -37.69189453 112.76367188 C-38.4452758 115.32670932 -39.27865618 117.85806981 -40.1171875 120.39453125 C-47.96063353 143.86901359 -47.96063353 143.86901359 -50.75 168.3125 C-50.7603125 169.12444824 -50.770625 169.93639648 -50.78125 170.77294922 C-50.78677179 174.91698247 -50.78677179 174.91698247 -49.11117554 178.5905571 C-46.67525368 180.33006068 -45.08205071 180.24714534 -42.10009766 180.24249268 C-40.4785376 180.25084641 -40.4785376 180.25084641 -38.82421875 180.2593689 C-37.63699219 180.25015411 -36.44976562 180.24093933 -35.2265625 180.23144531 C-33.34976807 180.23451187 -33.34976807 180.23451187 -31.43505859 180.23764038 C-27.99064406 180.24013992 -24.54676524 180.22919062 -21.10242462 180.21211338 C-17.46461244 180.19700983 -13.82680313 180.19824896 -10.18896484 180.19744873 C-4.04519654 180.19374776 2.09846069 180.17877506 8.2421875 180.15625 C16.01390026 180.1278056 23.78552247 180.11711064 31.55728149 180.1124649 C72.12189373 180.15518467 72.12189373 180.15518467 112.66943359 179.13018799 C113.88711426 179.0830365 115.10479492 179.03588501 116.359375 178.98730469 C117.89223145 178.91899445 117.89223145 178.91899445 119.45605469 178.8493042 C121.6875 178.875 121.6875 178.875 122.6875 179.875 C122.839823 181.97529986 122.90939372 184.08187139 122.9375 186.1875 C122.97617187 187.91419922 122.97617187 187.91419922 123.015625 189.67578125 C122.659426 193.14872149 122.20019728 194.49246497 119.6875 196.875 C116.17792951 198.10637414 112.7316091 198.00624737 109.04096985 198.01544189 C108.04081456 198.01989858 108.04081456 198.01989858 107.02045411 198.0244453 C104.78746772 198.03311285 102.55453507 198.0346389 100.3215332 198.03613281 C98.7198017 198.04076243 97.11807129 198.04578729 95.51634216 198.05117798 C91.16487425 198.06429175 86.81342177 198.07074516 82.46193719 198.07518864 C79.74148556 198.07812155 77.02103812 198.08222681 74.30058861 198.08669281 C65.78377118 198.10036622 57.26696336 198.11003315 48.75013572 198.1138947 C38.92864716 198.11837256 29.10729797 198.13590845 19.28585178 198.1648953 C11.68823822 198.18653787 4.0906638 198.19660039 -3.50698024 198.19793582 C-8.04172775 198.19898218 -12.57634422 198.20485367 -17.11105919 198.22275543 C-21.38006476 198.23928027 -25.64884142 198.24137029 -29.91786766 198.23261642 C-31.47989008 198.23184836 -33.04192503 198.23615827 -34.60391617 198.24607468 C-45.59467532 198.31172652 -55.9950039 197.91391967 -64.3125 189.875 C-71.41000835 181.17482848 -73.08758495 172.92415128 -72.3125 161.875 C-70.7438836 152.57794878 -67.6726537 144.01298934 -64.125 135.3125 C-63.6417627 134.10537354 -63.15852539 132.89824707 -62.66064453 131.65454102 C-61.21937366 128.05803418 -59.76634562 124.46643802 -58.3125 120.875 C-57.11677695 117.89369435 -55.92445339 114.91105408 -54.7331543 111.92797852 C-54.05315016 110.22709495 -53.37112971 108.52701564 -52.68676758 106.82788086 C-47.88682836 94.90180895 -47.95125838 84.70140709 -52.3125 72.75 C-57.22330879 58.90539541 -57.6829249 43.55980339 -51.84765625 29.90625 C-44.88500839 16.15812089 -35.59703346 5.26076496 -21.3125 -1.125 C-20.48878906 -1.5065625 -19.66507813 -1.888125 -18.81640625 -2.28125 C-12.5697083 -4.38622154 -5.83458006 -2.67051021 0 0 Z M-39.3125 13.875 C-39.3125 14.535 -39.3125 15.195 -39.3125 15.875 C-39.9725 15.875 -40.6325 15.875 -41.3125 15.875 C-41.6425 17.195 -41.9725 18.515 -42.3125 19.875 C-42.9725 19.875 -43.6325 19.875 -44.3125 19.875 C-53.42443537 37.13971965 -55.97038106 52.83537732 -50.3828125 71.60546875 C-49.68848593 73.72645903 -48.97225802 75.84045197 -48.23046875 77.9453125 C-43.80981652 92.05377707 -49.06824267 103.62159171 -54.484375 116.484375 C-68.81095796 147.30300515 -68.81095796 147.30300515 -68.35546875 179.63671875 C-65.45231691 185.86707832 -61.42563094 190.63129787 -55.3125 193.875 C-50.47294546 195.49296819 -46.28161983 196.12708317 -41.18890381 196.13569641 C-40.16630286 196.14143473 -40.16630286 196.14143473 -39.1230433 196.14728898 C-36.85766468 196.15753947 -34.59254329 196.15364224 -32.32714844 196.1496582 C-30.69553393 196.15400886 -29.06392146 196.15919319 -27.43231201 196.16514587 C-23.01528745 196.17850313 -18.59834861 196.17911863 -14.18130779 196.17658257 C-10.49300521 196.17551151 -6.80471987 196.18039924 -3.11642098 196.185188 C5.5802768 196.19626997 14.27693139 196.19672673 22.97363281 196.19067383 C31.95047253 196.18462231 40.92715599 196.19697786 49.90396905 196.2182439 C57.61280831 196.23583564 65.3215977 196.24186545 73.0304563 196.23860615 C77.63426198 196.23679065 82.23795595 196.23945682 86.84174347 196.25332069 C91.16577564 196.26585643 95.48956278 196.2639956 99.813591 196.25090981 C101.40231915 196.24853586 102.99106433 196.25130784 104.57977295 196.25953293 C106.74408259 196.26993269 108.90755944 196.26195578 111.07183838 196.2492218 C112.89026434 196.24947341 112.89026434 196.24947341 114.74542618 196.24973011 C117.66515768 196.1098471 117.66515768 196.1098471 119.5826683 194.54765606 C121.36045433 191.85618316 120.96895338 189.35059722 120.875 186.1875 C120.8125 184.08333333 120.75 181.97916667 120.6875 179.875 C119.11239906 180.0863282 119.11239906 180.0863282 117.50547791 180.30192566 C101.41532408 182.27170016 85.32056103 182.1873635 69.14070249 182.17658257 C65.91420635 182.17549934 62.68772933 182.18042856 59.46123737 182.185188 C51.85687423 182.1961918 44.25256056 182.19676802 36.64819336 182.19067383 C28.81911694 182.18459655 20.99021854 182.19706026 13.16117245 182.2182439 C6.40489678 182.23584817 -0.35132206 182.24186443 -7.10761982 182.23860615 C-11.12891431 182.23679649 -15.15008077 182.23940089 -19.17135429 182.25332069 C-22.9382703 182.26588077 -26.7049054 182.26397258 -30.47181702 182.25090981 C-31.85169634 182.24854318 -33.23159542 182.25128184 -34.6114521 182.25953293 C-36.49598268 182.26999024 -38.38059329 182.2601027 -40.26512146 182.2492218 C-41.31856467 182.24938954 -42.37200788 182.24955729 -43.45737362 182.24973011 C-46.75879032 181.81642521 -48.63625476 180.82446535 -51.3125 178.875 C-56.16314693 171.25255482 -52.94958975 159.09723731 -51.3125 150.875 C-49.40568297 142.79212074 -47.08185256 134.87873853 -44.37109375 127.03125 C-43.59038612 124.7035313 -42.85677834 122.38387216 -42.16015625 120.03125 C-39.80392028 112.11342234 -37.10874565 104.78123171 -33.44921875 97.3515625 C-32.17345058 95.02621643 -32.17345058 95.02621643 -32.3125 92.875 C-31.6525 92.875 -30.9925 92.875 -30.3125 92.875 C-29.14294691 91.41936918 -27.97374306 89.96345583 -26.80664062 88.50585938 C-24.29678904 85.76634817 -21.21455016 84.04305097 -18.0625 82.125 C-5.32573588 73.94160204 4.90711926 61.26138763 9.1640625 46.47265625 C11.95926291 32.60095273 13.84176626 18.67623886 6 6.1875 C0.80922003 0.99672003 -5.36400088 -0.73789224 -12.5 -1.4375 C-23.35761791 -0.54753132 -32.13328712 6.01971775 -39.3125 13.875 Z " fill="#0B236D" transform="translate(106.3125,68.125)"/>
<path d="M0 0 C0.66 0 1.32 0 2 0 C2 1.65 2 3.3 2 5 C2.99 5.33 3.98 5.66 5 6 C4.36626465 6.23074219 3.7325293 6.46148437 3.07958984 6.69921875 C0.82136356 7.82087767 0.82136356 7.82087767 0.18212891 10.14453125 C0.03179199 11.02496094 -0.11854492 11.90539062 -0.2734375 12.8125 C-0.45495361 13.79677979 -0.63646973 14.78105957 -0.82348633 15.79516602 C-1.00548584 16.85276123 -1.18748535 17.91035645 -1.375 19 C-8.8924987 58.2950856 -8.8924987 58.2950856 -21.1875 68.125 C-22.890625 69.08203125 -22.890625 69.08203125 -25 70 C-26.00546875 70.45761719 -27.0109375 70.91523438 -28.046875 71.38671875 C-34.24137724 73.99154976 -39.28043413 75.65878097 -46 75 C-46 75.66 -46 76.32 -46 77 C-45.09636719 77.18175781 -44.19273437 77.36351562 -43.26171875 77.55078125 C-42.08222656 77.80214844 -40.90273437 78.05351562 -39.6875 78.3125 C-38.51574219 78.55613281 -37.34398437 78.79976563 -36.13671875 79.05078125 C-31.52521149 80.44629341 -31.52521149 80.44629341 -30 83 C-29.88065715 86.65565994 -31.30422817 88.57598004 -33.66796875 91.1640625 C-34.82830734 92.33062049 -36.00240582 93.48359956 -37.1875 94.625 C-37.815354 95.23891602 -38.44320801 95.85283203 -39.09008789 96.48535156 C-54.35698653 111.16747941 -80.74797259 134 -103 134 C-105.80979909 136.65150055 -106.89797769 138.31304978 -107.46875 142.15625 C-107.4790625 143.2596875 -107.489375 144.363125 -107.5 145.5 C-107.54975499 150.82378438 -108.18176166 153.21766986 -112 157 C-114.70953153 159.12529332 -117.52412356 161.07002523 -120.375 163 C-121.86370467 164.01831535 -123.35071457 165.03911318 -124.8359375 166.0625 C-125.90062256 166.79593628 -125.90062256 166.79593628 -126.98681641 167.54418945 C-128.8654653 168.90271278 -130.6111126 170.33483065 -132.359375 171.85546875 C-135 174 -135 174 -137.875 174.3125 C-138.926875 174.1578125 -138.926875 174.1578125 -140 174 C-139.505 173.01 -139.505 173.01 -139 172 C-137.66923418 171.65655972 -136.33552419 171.3244442 -135 171 C-132.70191402 169.32007912 -130.50639427 167.61829827 -128.3125 165.8125 C-123.60365241 161.99899667 -118.92044545 158.47244002 -113.671875 155.4140625 C-111.41017207 153.50112685 -110.81284381 151.83036384 -110 149 C-109.90919533 146.43772896 -110.06110162 143.95963527 -110.22265625 141.40234375 C-109.94997013 138.46020408 -108.92960715 137.18151409 -107 135 C-107.99 134.01 -107.99 134.01 -109 133 C-111.56536093 112.9046727 -90.01451189 89.02927139 -78.70849609 74.32983398 C-76.51129873 71.52078433 -74.26788307 68.75218323 -72 66 C-71.28529541 65.13084961 -71.28529541 65.13084961 -70.55615234 64.24414062 C-44.28409384 32.492605 -44.28409384 32.492605 -33 31 C-36.32718346 34.92437023 -39.70605428 38.77423622 -43.1875 42.5625 C-48.79840055 48.78328104 -53.90397568 55.3575487 -59 62 C-59.48903809 62.63212402 -59.97807617 63.26424805 -60.48193359 63.91552734 C-68.22186733 73.93532425 -75.30911898 84.25286893 -82 95 C-82.3928418 95.62729004 -82.78568359 96.25458008 -83.19042969 96.90087891 C-87.94365146 104.52507905 -92.33623558 112.32191454 -96.5625 120.25 C-97.004729 121.07290527 -97.44695801 121.89581055 -97.90258789 122.74365234 C-98.30727295 123.51402832 -98.71195801 124.2844043 -99.12890625 125.078125 C-99.49056885 125.76293945 -99.85223145 126.44775391 -100.22485352 127.15332031 C-101.19351883 129.12723736 -101.19351883 129.12723736 -101 132 C-80.7868163 125.14579542 -62.89398315 114.68669974 -47.25 100.09765625 C-45.09014257 98.08403917 -42.87338451 96.16360667 -40.625 94.25 C-37.7281818 91.71675008 -35.14929902 89.22394853 -33 86 C-33 85.01 -33 84.02 -33 83 C-33.80824219 82.73445313 -34.61648437 82.46890625 -35.44921875 82.1953125 C-36.51785156 81.84210938 -37.58648437 81.48890625 -38.6875 81.125 C-39.74324219 80.77695313 -40.79898438 80.42890625 -41.88671875 80.0703125 C-44.63149994 79.12668634 -47.31692815 78.10508711 -50 77 C-50 76.34 -50 75.68 -50 75 C-46.3041049 73.39457422 -42.75947474 72.47112592 -38.8125 71.6875 C-33.34693721 70.48259184 -28.80857396 68.6973921 -23.92578125 65.98828125 C-22 65 -22 65 -20 65 C-19.62875 64.0409375 -19.62875 64.0409375 -19.25 63.0625 C-18.59181997 61.44995893 -17.92500647 59.8395571 -17.1875 58.26171875 C-10.33893674 43.56584343 -6.57097234 28.4919961 -3.2722168 12.69311523 C-3.12800293 12.00361786 -2.98378906 11.31412048 -2.83520508 10.60372925 C-2.43958944 8.70160857 -2.05006226 6.79822455 -1.66088867 4.89477539 C-1 2 -1 2 0 0 Z " fill="#08226B" transform="translate(219,59)"/>
<path d="M0 0 C0 3.86217642 -1.05394722 4.55012341 -3.5625 7.4375 C-14.61538694 20.59984959 -24.73151125 34.53090175 -34 49 C-34.42120117 49.6492041 -34.84240234 50.2984082 -35.27636719 50.96728516 C-40.48974897 59.01284339 -45.21936817 67.07691729 -49.39453125 75.71484375 C-51.76573099 80.56686074 -54.37214223 85.28333221 -57 90 C-57.66 89.67 -58.32 89.34 -59 89 C-59.91577592 61.98461028 -29.20101922 29.65913456 -12 11 C-3.08786611 1.54393305 -3.08786611 1.54393305 0 0 Z " fill="#1251AF" transform="translate(171,102)"/>
<path d="M0 0 C1.67856106 2.65035957 1.39200238 4.80746424 1.1875 7.875 C-0.9510485 5.7364515 -1.23905063 4.74224686 -1.8125 1.875 C-10.24012356 1.99680001 -16.60329995 4.63198312 -24.0625 8.375 C-25.15699463 8.91092773 -26.25148926 9.44685547 -27.37915039 9.99902344 C-34.73413213 13.66153526 -41.68054624 17.6548504 -48.43359375 22.328125 C-50.8125 23.875 -50.8125 23.875 -52.8125 23.875 C-52.8125 24.535 -52.8125 25.195 -52.8125 25.875 C-58.22426471 29.875 -58.22426471 29.875 -60.8125 29.875 C-61.1425 30.865 -61.4725 31.855 -61.8125 32.875 C-62.451875 33.019375 -63.09125 33.16375 -63.75 33.3125 C-64.430625 33.498125 -65.11125 33.68375 -65.8125 33.875 C-66.10382813 34.47570312 -66.39515625 35.07640625 -66.6953125 35.6953125 C-68.01502393 38.27013411 -69.50686316 39.50378818 -71.75 41.3125 C-74.86730464 43.92810461 -76.84982854 46.27676899 -78.8125 49.875 C-79.4725 49.875 -80.1325 49.875 -80.8125 49.875 C-81.4725 51.525 -82.1325 53.175 -82.8125 54.875 C-83.4725 54.875 -84.1325 54.875 -84.8125 54.875 C-85.080625 55.57625 -85.34875 56.2775 -85.625 57 C-86.8806449 60.0399824 -88.31485123 62.9477774 -89.8125 65.875 C-90.4725 65.875 -91.1325 65.875 -91.8125 65.875 C-92.06 66.6896875 -92.3075 67.504375 -92.5625 68.34375 C-93.74853136 71.69428859 -95.14961149 74.78746583 -96.68017578 77.98706055 C-105.89571052 97.42154638 -112.1404188 118.29767453 -117.56884766 139.07104492 C-120.03640955 148.3576102 -120.03640955 148.3576102 -122.8125 151.875 C-123.4725 151.875 -124.1325 151.875 -124.8125 151.875 C-125.05355469 152.38675781 -125.29460937 152.89851562 -125.54296875 153.42578125 C-127.25477961 156.72825943 -129.19452399 159.88520043 -131.125 163.0625 C-134.47352786 168.60389293 -137.73858694 174.17513105 -140.8125 179.875 C-141.8125 176.875 -141.8125 176.875 -140.40625 173.90625 C-139.71971193 172.72249398 -139.02099412 171.54574717 -138.3125 170.375 C-137.94737305 169.75786133 -137.58224609 169.14072266 -137.20605469 168.50488281 C-136.08544847 166.62168224 -134.94931132 164.74844913 -133.8125 162.875 C-133.16796875 161.78703125 -132.5234375 160.6990625 -131.859375 159.578125 C-127.29898871 152.08322926 -127.29898871 152.08322926 -124.77050781 151.00097656 C-122.66227147 150.06712248 -122.66227147 150.06712248 -122.14257812 148.0546875 C-122.04396484 147.29414063 -121.94535156 146.53359375 -121.84375 145.75 C-120.61453239 138.28918357 -118.44454214 131.11679059 -116.3125 123.875 C-115.98452927 122.75933151 -115.98452927 122.75933151 -115.64993286 121.62112427 C-103.16388918 79.39570761 -85.76877156 43.34537564 -47.8125 18.875 C-46.8853418 18.26881836 -46.8853418 18.26881836 -45.93945312 17.65039062 C-38.15845101 12.60667916 -30.0412935 8.3910812 -21.6875 4.375 C-20.78612305 3.94106934 -19.88474609 3.50713867 -18.95605469 3.06005859 C-17.67456543 2.45798584 -17.67456543 2.45798584 -16.3671875 1.84375 C-15.60905762 1.48732422 -14.85092773 1.13089844 -14.06982422 0.76367188 C-9.74436022 -0.93919304 -4.18547541 -2.59788129 0 0 Z " fill="#08226A" transform="translate(220.8125,50.125)"/>
<path d="M0 0 C0.33 0 0.66 0 1 0 C1.43738717 6.63621909 0.13483868 11.01165907 -2.625 17 C-3.36699242 18.68513921 -4.10654281 20.37135563 -4.84375 22.05859375 C-5.39482422 23.30938721 -5.39482422 23.30938721 -5.95703125 24.58544922 C-19.75826828 54.43786339 -19.75826828 54.43786339 -19.03515625 85.76171875 C-16.06160134 92.19132994 -12.42254439 96.4011498 -5.9296875 99.30859375 C-1.63708818 100.84663035 2.09129515 101.12377593 6.66912842 101.12025452 C7.33816515 101.12110894 8.00720189 101.12196337 8.69651246 101.12284368 C10.93669967 101.12448985 13.17681188 101.11899126 15.41699219 101.11352539 C17.02347309 101.11324331 18.62995411 101.11340167 20.23643494 101.1139679 C24.59764051 101.11425504 28.95881863 101.10837163 33.32001781 101.10139394 C37.87775216 101.09514668 42.43548713 101.09455551 46.9932251 101.09336853 C55.62396919 101.09025927 64.25470064 101.08205133 72.88543916 101.07201904 C82.7112199 101.06084534 92.53700125 101.05534428 102.36278677 101.05032361 C122.57519824 101.03986839 142.78759833 101.02227677 163 101 C163 101.66 163 102.32 163 103 C141.26832276 103.14031213 119.53672048 103.24604063 97.80468178 103.31087303 C87.71354635 103.34177927 77.62269277 103.3838979 67.53173828 103.45263672 C58.73396402 103.5125378 49.93639394 103.55117264 41.13842142 103.56453097 C36.48209561 103.57233666 31.82635379 103.59061384 27.17021561 103.63438034 C22.78210067 103.67529093 18.39480686 103.68763212 14.00651932 103.67864609 C12.40134204 103.68028853 10.79613558 103.69211388 9.19112396 103.71523285 C-0.16888853 103.8433743 -7.61141691 103.32188758 -15 97 C-21.29666037 90.4273387 -24.08867793 83.31686558 -24.375 74.25 C-23.95242418 62.63351631 -20.16122399 52.10374346 -15.8125 41.4375 C-15.0865564 39.62245972 -15.0865564 39.62245972 -14.34594727 37.77075195 C-12.90664313 34.17665007 -11.45516088 30.58770676 -10 27 C-8.82118532 24.08355222 -7.64363593 21.16661845 -6.46948242 18.24829102 C-5.80466928 16.59860446 -5.13586638 14.95051733 -4.4621582 13.30444336 C-2.68517645 8.91840491 -1.21476395 4.57500652 0 0 Z " fill="#142C72" transform="translate(58,162)"/>
<path d="M0 0 C1.86104914 1.86104914 1.21673452 4.82036077 1.25 7.3125 C1.28867187 9.03919922 1.28867187 9.03919922 1.328125 10.80078125 C0.971926 14.27372149 0.51269728 15.61746497 -2 18 C-5.52883213 19.24354246 -8.99562128 19.12309203 -12.70709229 19.12025452 C-13.71677271 19.12153615 -13.71677271 19.12153615 -14.74685073 19.12284368 C-17.0008573 19.12448993 -19.25478935 19.11899111 -21.50878906 19.11352539 C-23.12512205 19.11324331 -24.74145517 19.11340166 -26.35778809 19.1139679 C-30.74585224 19.11425505 -35.1338891 19.10837152 -39.52194691 19.10139394 C-44.10770848 19.0951468 -48.69347067 19.09455552 -53.27923584 19.09336853 C-61.96310385 19.09025924 -70.64695928 19.08205124 -79.33082175 19.07201904 C-89.21706085 19.06084545 -99.10330055 19.05534431 -108.98954439 19.05032361 C-129.32636995 19.03986831 -149.66318418 19.02227662 -170 19 C-170 18.67 -170 18.34 -170 18 C-116.21 18 -62.42 18 -7 18 C-7 17.34 -7 16.68 -7 16 C-6.360625 15.855625 -5.72125 15.71125 -5.0625 15.5625 C-3.02454854 15.18992819 -3.02454854 15.18992819 -2 14 C-1.92755947 11.98035801 -1.91622812 9.95832876 -1.9375 7.9375 C-1.94652344 6.83277344 -1.95554688 5.72804687 -1.96484375 4.58984375 C-1.97644531 3.73519531 -1.98804688 2.88054687 -2 2 C-3.12535156 2.16757813 -4.25070313 2.33515625 -5.41015625 2.5078125 C-15.74883811 3.92205548 -24.7276399 3.96962657 -35 2 C-35 1.67 -35 1.34 -35 1 C-30.97986475 0.85623256 -26.95968251 0.71386511 -22.93945312 0.57275391 C-21.57387985 0.5246294 -20.20831964 0.47613278 -18.84277344 0.42724609 C-16.87178019 0.35675071 -14.90073413 0.28773663 -12.9296875 0.21875 C-11.74616699 0.17685547 -10.56264648 0.13496094 -9.34326172 0.09179688 C-2.91960825 -0.08457918 -2.91960825 -0.08457918 0 0 Z " fill="#022678" transform="translate(228,247)"/>
<path d="M0 0 C0.66 0 1.32 0 2 0 C2.02578125 0.73605469 2.0515625 1.47210938 2.078125 2.23046875 C2.13484375 3.20628906 2.1915625 4.18210938 2.25 5.1875 C2.29640625 6.15042969 2.3428125 7.11335937 2.390625 8.10546875 C3.15826441 11.75175593 4.38805332 13.3569464 7 16 C9.77628191 16.7493118 9.77628191 16.7493118 12.90985107 16.63923645 C14.11857376 16.65452393 15.32729645 16.6698114 16.57264709 16.68556213 C17.90878589 16.67731036 19.2449218 16.66858161 20.58105469 16.65942383 C21.9905082 16.66787739 23.39995004 16.67852167 24.80937195 16.69119263 C28.63355592 16.71936211 32.45717945 16.71686352 36.28143597 16.70889878 C40.27871176 16.70577591 44.27580835 16.73080157 48.27301025 16.75285339 C55.84130129 16.79032315 63.40941263 16.8024431 70.97778726 16.8054778 C79.59448956 16.81016546 88.21101151 16.84307935 96.82763433 16.87837565 C114.55173884 16.95034599 132.27575919 16.98683263 150 17 C150 17.33 150 17.66 150 18 C126.00082077 18.40272185 102.00109484 18.73485843 78 19 C76.73068634 19.01423382 76.73068634 19.01423382 75.43572998 19.02875519 C64.79066612 19.14738948 54.14592504 19.23842481 43.50030518 19.28710938 C40.42199244 19.30190238 37.34398267 19.32628455 34.26580811 19.35888672 C30.63932473 19.39683942 27.01325686 19.41539606 23.38658142 19.41895103 C21.42873268 19.42557309 19.47098095 19.45182549 17.51330566 19.47871399 C6.7572178 19.45221501 6.7572178 19.45221501 2 15 C-0.8989992 10.5197285 -0.17991594 5.14759498 0 0 Z " fill="#0C2269" transform="translate(52,232)"/>
<path d="M0 0 C0.33 0 0.66 0 1 0 C1 42.9 1 85.8 1 130 C0.67 130 0.34 130 0 130 C-0.495 98.32 -0.495 98.32 -1 66 C-2.485 66.99 -2.485 66.99 -4 68 C-4 68.99 -4 69.98 -4 71 C-8.33333333 71 -12.66666667 71 -17 71 C-17 69.68 -17 68.36 -17 67 C-13.37313728 64.03256687 -11.7546322 63 -7 63 C-5.25 64.5 -5.25 64.5 -4 66 C-4.350625 65.4225 -4.70125 64.845 -5.0625 64.25 C-6.14917407 61.64198224 -5.93065133 60.60582371 -5 58 C-4.34 58 -3.68 58 -3 58 C-3 57.01 -3 56.02 -3 55 C-2.34 55 -1.68 55 -1 55 C-0.67 36.85 -0.34 18.7 0 0 Z " fill="#0C48A0" transform="translate(247,38)"/>
<path d="M0 0 C0.495 0.99 0.495 0.99 1 2 C-0.05058594 2.23074219 -1.10117187 2.46148438 -2.18359375 2.69921875 C-13.11056949 5.19830075 -23.86146895 8.1829508 -30.94921875 17.5859375 C-31.52285156 18.50632812 -32.09648438 19.42671875 -32.6875 20.375 C-33.26886719 21.29023437 -33.85023437 22.20546875 -34.44921875 23.1484375 C-37.85024057 29.40220558 -38.30220284 34.80231519 -38.31884766 41.76904297 C-38.32889328 42.73552261 -38.3389389 43.70200226 -38.34928894 44.69776917 C-38.3800783 47.87923612 -38.39714441 51.06061908 -38.4140625 54.2421875 C-38.43277754 56.45322388 -38.45235121 58.66425315 -38.4727478 60.87527466 C-38.52403933 66.68501588 -38.56368112 72.49478026 -38.60089111 78.30462646 C-38.64094934 84.23699659 -38.69203342 90.16927066 -38.7421875 96.1015625 C-38.83891157 107.7343075 -38.92332773 119.36710677 -39 131 C-39.33 131 -39.66 131 -40 131 C-40.22385791 118.39540976 -40.42526949 105.79067674 -40.59840012 93.18528175 C-40.67949788 87.33145041 -40.76818802 81.47794353 -40.87451172 75.62451172 C-40.97692532 69.97070476 -41.05902618 64.31692742 -41.12732697 58.6626091 C-41.15683985 56.51046081 -41.19354715 54.35839822 -41.2377243 52.20650101 C-41.29857298 49.18136681 -41.33332454 46.15693277 -41.36230469 43.13134766 C-41.38603653 42.25092804 -41.40976837 41.37050842 -41.43421936 40.46340942 C-41.47199082 29.60245193 -36.47094906 19.97595974 -29.22265625 12.05859375 C-20.89666304 4.17529139 -11.1806298 1.30733368 0 0 Z " fill="#082B78" transform="translate(62,29)"/>
<path d="M0 0 C1.05864258 -0.00137466 2.11728516 -0.00274933 3.20800781 -0.00416565 C4.35887375 -0.00057037 5.50973969 0.0030249 6.69548035 0.00672913 C8.52537003 0.00651009 8.52537003 0.00651009 10.39222717 0.00628662 C13.72862594 0.00686309 17.0649625 0.01187159 20.40135026 0.01886058 C23.89137478 0.02512022 27.38140017 0.02569998 30.87142944 0.02688599 C37.47634879 0.0299916 44.08125155 0.03819462 50.6861636 0.04823548 C58.20729498 0.0594205 65.72842715 0.06491309 73.24956477 0.06993091 C88.71746745 0.08037788 104.18535359 0.09796242 119.65324402 0.12025452 C119.65324402 0.45025452 119.65324402 0.78025452 119.65324402 1.12025452 C109.21734663 2.02964019 98.88942717 2.26876184 88.42277527 2.25306702 C86.81329331 2.25374256 85.20381145 2.25471466 83.59432983 2.25596619 C80.2538504 2.25742673 76.91339801 2.25533903 73.57292175 2.25062561 C69.29136712 2.24487801 65.00987449 2.24824913 60.72832203 2.25419807 C57.41955087 2.25780501 54.11079453 2.25666537 50.80202293 2.25407028 C49.22195618 2.25340401 47.64188807 2.25421896 46.06182289 2.25654984 C43.86545326 2.25908404 41.66918607 2.25522723 39.4728241 2.24964905 C38.22487564 2.24885345 36.97692719 2.24805786 35.69116211 2.24723816 C32.65324402 2.12025452 32.65324402 2.12025452 29.65324402 1.12025452 C29.32324402 1.78025452 28.99324402 2.44025452 28.65324402 3.12025452 C27.99324402 3.12025452 27.33324402 3.12025452 26.65324402 3.12025452 C26.65324402 2.46025452 26.65324402 1.80025452 26.65324402 1.12025452 C25.99324402 1.12025452 25.33324402 1.12025452 24.65324402 1.12025452 C24.32324402 1.78025452 23.99324402 2.44025452 23.65324402 3.12025452 C23.65324402 2.46025452 23.65324402 1.80025452 23.65324402 1.12025452 C22.76636902 1.30587952 21.87949402 1.49150452 20.96574402 1.68275452 C17.80145591 2.10067936 15.7048476 1.92803193 12.65324402 1.12025452 C12.65324402 2.44025452 12.65324402 3.76025452 12.65324402 5.12025452 C11.99324402 5.12025452 11.33324402 5.12025452 10.65324402 5.12025452 C10.65324402 4.46025452 10.65324402 3.80025452 10.65324402 3.12025452 C8.90417743 2.92423843 7.15392556 2.73878049 5.40324402 2.55775452 C3.94144714 2.40113342 3.94144714 2.40113342 2.45011902 2.24134827 C-0.14420537 2.12902417 -1.87870405 2.4509523 -4.34675598 3.12025452 C-6.3562182 2.84974999 -8.36029822 2.52657542 -10.34675598 2.12025452 C-10.34675598 1.79025452 -10.34675598 1.46025452 -10.34675598 1.12025452 C-6.8342164 0.32154379 -3.59922529 -0.00361731 0 0 Z " fill="#194FB3" transform="translate(119.34675598144531,30.879745483398438)"/>
<path d="M0 0 C0.99 1.485 0.99 1.485 2 3 C4.609621 3.38411275 7.0058074 3.60293197 9.625 3.6875 C10.33140625 3.72166016 11.0378125 3.75582031 11.765625 3.79101562 C13.50985688 3.87351308 15.25490395 3.93843335 17 4 C17 4.33 17 4.66 17 5 C-20.29 5 -57.58 5 -96 5 C-96 4.67 -96 4.34 -96 4 C-85.92284992 3.21486927 -75.93617795 2.85137349 -65.82421875 2.8671875 C-64.43797285 2.86651137 -63.05172707 2.86553879 -61.66548157 2.86428833 C-58.79756512 2.86283226 -55.92968029 2.86490169 -53.06176758 2.86962891 C-49.38436032 2.87539577 -45.70702495 2.87199079 -42.02962017 2.86605644 C-39.18412222 2.86245344 -36.33864154 2.86358699 -33.49314308 2.86618423 C-32.13553674 2.86685062 -30.77792883 2.86603516 -29.42032433 2.86370468 C-27.53762211 2.86117498 -25.65491435 2.86571195 -23.7722168 2.87060547 C-22.70271286 2.87140106 -21.63320892 2.87219666 -20.53129578 2.87301636 C-18 3 -18 3 -16 4 C-15.67 3.01 -15.34 2.02 -15 1 C-14.01 1.33 -13.02 1.66 -12 2 C-12.66 2.33 -13.32 2.66 -14 3 C-10.04 3 -6.08 3 -2 3 C-1.67 2.34 -1.34 1.68 -1 1 C-0.67 0.67 -0.34 0.34 0 0 Z " fill="#1754B3" transform="translate(159,273)"/>
<path d="M0 0 C3.88930161 2.12425231 6.74848397 4.39406463 9.625 7.75 C9.295 8.74 8.965 9.73 8.625 10.75 C8.08875 10.0075 7.5525 9.265 7 8.5 C1.43978908 2.06186104 -4.6289556 0.27733827 -12.75 -0.625 C-22.85866562 0.42072403 -31.39633365 5.95519697 -37.8125 13.6875 C-38.5859375 14.7084375 -38.5859375 14.7084375 -39.375 15.75 C-40.035 15.75 -40.695 15.75 -41.375 15.75 C-41.705 17.07 -42.035 18.39 -42.375 19.75 C-43.035 19.75 -43.695 19.75 -44.375 19.75 C-44.7771875 21.049375 -44.7771875 21.049375 -45.1875 22.375 C-46.34611987 25.66791964 -47.75709839 28.66127875 -49.375 31.75 C-50.035 31.42 -50.695 31.09 -51.375 30.75 C-45.7853835 16.17063162 -35.68535033 5.14730615 -21.375 -1.25 C-20.55128906 -1.6315625 -19.72757813 -2.013125 -18.87890625 -2.40625 C-12.56251245 -4.53470719 -5.85469029 -2.77419555 0 0 Z " fill="#071E66" transform="translate(106.375,68.25)"/>
<path d="M0 0 C0.33 0 0.66 0 1 0 C0.63902697 7.77159987 -1.25003523 14.39957616 -3.875 21.6875 C-8.98060055 36.48707867 -11.44544252 50.37677711 -12 66 C-12.33 66 -12.66 66 -13 66 C-15.11316873 48.86450304 -11.72349556 34.02554443 -5.9765625 17.859375 C-4.38945819 13.21233359 -3.13063132 8.47222174 -1.83203125 3.73828125 C-1 1 -1 1 0 0 Z " fill="#0E2975" transform="translate(67,177)"/>
<path d="M0 0 C0.66 0 1.32 0 2 0 C2 1.65 2 3.3 2 5 C2.99 5.33 3.98 5.66 5 6 C4.36698975 6.22856689 3.73397949 6.45713379 3.08178711 6.69262695 C0.81462212 7.8249371 0.81462212 7.8249371 0.16625977 10.19213867 C-0.06879272 11.54142456 -0.06879272 11.54142456 -0.30859375 12.91796875 C-0.49591064 13.91892578 -0.68322754 14.91988281 -0.8762207 15.95117188 C-1.06144287 17.01916016 -1.24666504 18.08714844 -1.4375 19.1875 C-3.25449926 28.80733016 -5.54921487 37.83706417 -9 47 C-9.66 47 -10.32 47 -11 47 C-11.33 47.66 -11.66 48.32 -12 49 C-10.89188618 43.73645937 -9.61854439 38.56036328 -8.1875 33.375 C-6.05445008 25.50837605 -4.33737887 17.56886596 -2.6628418 9.59326172 C-2.46086182 8.63822754 -2.25888184 7.68319336 -2.05078125 6.69921875 C-1.87200439 5.84158936 -1.69322754 4.98395996 -1.5090332 4.1003418 C-1 2 -1 2 0 0 Z " fill="#152F76" transform="translate(219,59)"/>
<path d="M0 0 C0.33 0.66 0.66 1.32 1 2 C2.98821313 2.39764263 4.99124558 2.72428861 7 3 C9.42626304 3.54786585 11.72459862 4.23636792 14.09399414 5.00927734 C18.25553462 6.19491022 22.25192866 6.34785008 26.55859375 6.4140625 C27.34774673 6.43342865 28.13689972 6.4527948 28.94996643 6.4727478 C31.44570447 6.53204824 33.94148989 6.5787285 36.4375 6.625 C38.13999296 6.66322551 39.84246752 6.70227984 41.54492188 6.7421875 C45.69646341 6.83770828 49.84809533 6.92191969 54 7 C54 7.33 54 7.66 54 8 C35.52 8 17.04 8 -2 8 C-1 3 -1 3 0 0 Z M18 4 C18.99 4.495 18.99 4.495 20 5 C19.01 5.495 19.01 5.495 18 6 C18 5.34 18 4.68 18 4 Z " fill="#0C43A9" transform="translate(139,241)"/>
<path d="M0 0 C0.33 0.66 0.66 1.32 1 2 C0.34 2 -0.32 2 -1 2 C-1.66 3.65 -2.32 5.3 -3 7 C-3.66 7 -4.32 7 -5 7 C-5.268125 7.70125 -5.53625 8.4025 -5.8125 9.125 C-7.0681449 12.1649824 -8.50235123 15.0727774 -10 18 C-10.66 18 -11.32 18 -12 18 C-12.35964844 19.18529297 -12.35964844 19.18529297 -12.7265625 20.39453125 C-14.33940258 24.96094656 -16.3484569 29.29246813 -18.375 33.6875 C-21.57523034 40.70026759 -24.59549277 47.66877516 -27 55 C-27.66 54.34 -28.32 53.68 -29 53 C-12.28067031 6.14033516 -12.28067031 6.14033516 0 0 Z " fill="#0D2970" transform="translate(141,98)"/>
<path d="M0 0 C1.81171098 0.15306901 3.6283794 0.24946661 5.4453125 0.31640625 C6.52167969 0.35830078 7.59804687 0.40019531 8.70703125 0.44335938 C10.39892578 0.50233398 10.39892578 0.50233398 12.125 0.5625 C13.26066406 0.60568359 14.39632812 0.64886719 15.56640625 0.69335938 C18.37747768 0.7996604 21.18863945 0.90169405 24 1 C24 1.33 24 1.66 24 2 C-1.08 2 -26.16 2 -52 2 C-52 1.67 -52 1.34 -52 1 C-25.3154126 -0.16586159 -25.3154126 -0.16586159 -13.60986328 0.03710938 C-10.52575683 0.07625351 -7.68898796 -0.05207643 -4.640625 -0.5625 C-2 -1 -2 -1 0 0 Z " fill="#1C47AE" transform="translate(113,247)"/>
<path d="M0 0 C0.66 0 1.32 0 2 0 C2.33 0.99 2.66 1.98 3 3 C3.66 3.66 4.32 4.32 5 5 C4.01 5.33 3.02 5.66 2 6 C2.33 6.99 2.66 7.98 3 9 C5.31 9 7.62 9 10 9 C9.67 9.66 9.34 10.32 9 11 C6.36 11 3.72 11 1 11 C1 25.85 1 40.7 1 56 C0.67 56 0.34 56 0 56 C0 37.52 0 19.04 0 0 Z " fill="#1A4EB0" transform="translate(23,159)"/>
<path d="M0 0 C2.31 0.66 4.62 1.32 7 2 C3.25 3.125 3.25 3.125 1 2 C2.78657757 4.21370051 2.78657757 4.21370051 5.1640625 4.1953125 C5.97617188 4.17210938 6.78828125 4.14890625 7.625 4.125 C8.44226563 4.10695313 9.25953125 4.08890625 10.1015625 4.0703125 C10.72804687 4.04710938 11.35453125 4.02390625 12 4 C8.32167983 8.52615993 4.58913637 12.39424999 0 16 C-0.33 14.68 -0.66 13.36 -1 12 C-0.34 11.67 0.32 11.34 1 11 C1.66 11.33 2.32 11.66 3 12 C3 11.34 3 10.68 3 10 C2.34 9.67 1.68 9.34 1 9 C0.67 8.01 0.34 7.02 0 6 C-0.33 5.34 -0.66 4.68 -1 4 C-0.5625 1.875 -0.5625 1.875 0 0 Z " fill="#1151B0" transform="translate(143,78)"/>
<path d="M0 0 C0.33 0 0.66 0 1 0 C1.3227506 4.62609198 0.84450614 7.28026121 -2 11 C-2.66 11 -3.32 11 -4 11 C-4.24105469 11.51175781 -4.48210937 12.02351562 -4.73046875 12.55078125 C-6.44227961 15.85325943 -8.38202399 19.01020043 -10.3125 22.1875 C-13.66102786 27.72889293 -16.92608694 33.30013105 -20 39 C-21 36 -21 36 -19.59375 33.03125 C-18.90721193 31.84749398 -18.20849412 30.67074717 -17.5 29.5 C-17.13487305 28.88286133 -16.76974609 28.26572266 -16.39355469 27.62988281 C-15.27294847 25.74668224 -14.13681132 23.87344913 -13 22 C-12.35546875 20.91203125 -11.7109375 19.8240625 -11.046875 18.703125 C-6.50572827 11.23984907 -6.50572827 11.23984907 -3.875 9.9921875 C-1.78502087 9.14957916 -1.78502087 9.14957916 -1.171875 6.8359375 C-1.03265625 6.02382812 -0.8934375 5.21171875 -0.75 4.375 C-0.60046875 3.55773437 -0.4509375 2.74046875 -0.296875 1.8984375 C-0.19890625 1.27195313 -0.1009375 0.64546875 0 0 Z " fill="#071C62" transform="translate(100,191)"/>
<path d="M0 0 C0.66 0 1.32 0 2 0 C6.23280784 8.64198267 6.20394142 18.70434386 4 28 C3.01 27.67 2.02 27.34 1 27 C1.09539062 25.97261719 1.19078125 24.94523437 1.2890625 23.88671875 C1.98078752 15.58200269 2.09310673 8.16484607 0 0 Z " fill="#0B2D75" transform="translate(115,78)"/>
<path d="M0 0 C0.66 0 1.32 0 2 0 C2.02578125 0.73605469 2.0515625 1.47210938 2.078125 2.23046875 C2.13484375 3.20628906 2.1915625 4.18210938 2.25 5.1875 C2.29640625 6.15042969 2.3428125 7.11335937 2.390625 8.10546875 C3.16554368 11.78633247 4.32356401 13.36064585 7 16 C10.27365752 16.7781731 10.27365752 16.7781731 13.953125 16.70703125 C14.61334656 16.72215256 15.27356812 16.73727386 15.95379639 16.75285339 C18.0528796 16.795682 20.1505237 16.80456202 22.25 16.8125 C23.67712146 16.83564864 25.10420879 16.86101477 26.53125 16.88867188 C30.02080563 16.95147146 33.50988132 16.98384791 37 17 C37 17.33 37 17.66 37 18 C32.67677539 18.12400035 28.35450398 18.21452256 24.0300293 18.2746582 C22.56044475 18.29973644 21.09098413 18.33380856 19.62182617 18.37719727 C17.50408319 18.43815499 15.38799424 18.46627316 13.26953125 18.48828125 C11.99698486 18.51446533 10.72443848 18.54064941 9.41333008 18.56762695 C5.11244416 17.85240202 3.68835313 16.35206672 1 13 C-0.46369228 8.83410659 -0.07410459 4.37217074 0 0 Z " fill="#04135B" transform="translate(52,232)"/>
<path d="M0 0 C0.66 0 1.32 0 2 0 C2 1.65 2 3.3 2 5 C2.99 5.33 3.98 5.66 5 6 C4.04915527 6.36714111 4.04915527 6.36714111 3.07910156 6.74169922 C0.86974352 7.80584609 0.86974352 7.80584609 0.17871094 9.87939453 C0.03208008 10.62302246 -0.11455078 11.36665039 -0.265625 12.1328125 C-0.43320313 12.93847656 -0.60078125 13.74414062 -0.7734375 14.57421875 C-0.93070313 15.41597656 -1.08796875 16.25773437 -1.25 17.125 C-1.42273438 17.97449219 -1.59546875 18.82398437 -1.7734375 19.69921875 C-2.19759504 21.79644214 -2.6008098 23.89788137 -3 26 C-3.33 26 -3.66 26 -4 26 C-4.78982493 16.8731341 -2.4179505 8.70030405 0 0 Z " fill="#0A2B78" transform="translate(219,59)"/>
<path d="M0 0 C0.66 0 1.32 0 2 0 C2 0.66 2 1.32 2 2 C17.84 2 33.68 2 50 2 C50 2.33 50 2.66 50 3 C31.85 3 13.7 3 -5 3 C-3.68 2.34 -2.36 1.68 -1 1 C-0.67 0.67 -0.34 0.34 0 0 Z " fill="#083B9C" transform="translate(64,29)"/>
<path d="M0 0 C0.99 0.33 1.98 0.66 3 1 C2.67 2.32 2.34 3.64 2 5 C1.34 5 0.68 5 0 5 C0 3.35 0 1.7 0 0 Z M-1 5 C-0.34 6.32 0.32 7.64 1 9 C0 10 0 10 -3.59765625 10.09765625 C-5.08596867 10.0909822 -6.57426432 10.07902183 -8.0625 10.0625 C-8.82111328 10.05798828 -9.57972656 10.05347656 -10.36132812 10.04882812 C-12.24091871 10.0370068 -14.12046899 10.01907078 -16 10 C-14 7 -14 7 -10.875 6.3125 C-9.92625 6.209375 -8.9775 6.10625 -8 6 C-8.99 6.495 -8.99 6.495 -10 7 C-10 7.66 -10 8.32 -10 9 C-8.02463255 8.65213292 -8.02463255 8.65213292 -6 8 C-5.67 7.34 -5.34 6.68 -5 6 C-2.9375 5.375 -2.9375 5.375 -1 5 Z " fill="#0D53B5" transform="translate(234,268)"/>
<path d="M0 0 C1.08062462 3.24187386 0.96405231 3.89709861 0.00390625 7.01171875 C-0.33930664 8.14770508 -0.33930664 8.14770508 -0.68945312 9.30664062 C-0.93630859 10.09232422 -1.18316406 10.87800781 -1.4375 11.6875 C-1.68048828 12.48478516 -1.92347656 13.28207031 -2.17382812 14.10351562 C-2.77479738 16.07139534 -3.3863905 18.03602495 -4 20 C-4.66 20 -5.32 20 -6 20 C-6 14.23520683 -5.7699474 10.17056849 -3 5 C-3.99 4.67 -4.98 4.34 -6 4 C-5.01 4 -4.02 4 -3 4 C-2.67 3.34 -2.34 2.68 -2 2 C-1.34 1.34 -0.68 0.68 0 0 Z " fill="#124DB1" transform="translate(102,180)"/>
<path d="M0 0 C0.33 0 0.66 0 1 0 C1.4821556 6.8529328 -0.03804194 11.58819042 -2.8125 17.8125 C-3.16892578 18.65748047 -3.52535156 19.50246094 -3.89257812 20.37304688 C-5.54953206 24.20076249 -6.86507283 27.16847087 -10 30 C-9.38358017 26.50734347 -8.47734738 23.35997354 -7.1875 20.05859375 C-6.83429687 19.14529297 -6.48109375 18.23199219 -6.1171875 17.29101562 C-5.74851562 16.34935547 -5.37984375 15.40769531 -5 14.4375 C-4.268728 12.56201745 -3.53948106 10.68574374 -2.8125 8.80859375 C-2.48894531 7.98157959 -2.16539063 7.15456543 -1.83203125 6.30249023 C-1.07733518 4.21401059 -0.49228953 2.16340115 0 0 Z " fill="#091D6B" transform="translate(58,162)"/>
<path d="M0 0 C-0.66 1.98 -1.32 3.96 -2 6 C-3.6256807 5.69106068 -5.25052748 5.3777305 -6.875 5.0625 C-7.77992188 4.88847656 -8.68484375 4.71445313 -9.6171875 4.53515625 C-12 4 -12 4 -14 3 C-14 2.34 -14 1.68 -14 1 C-12.23103898 0.63659714 -10.45973374 0.28459117 -8.6875 -0.0625 C-7.70136719 -0.25972656 -6.71523437 -0.45695313 -5.69921875 -0.66015625 C-3 -1 -3 -1 0 0 Z " fill="#1352B5" transform="translate(187,133)"/>
<path d="M0 0 C0.33 0 0.66 0 1 0 C1.02736707 1.39572052 1.04655989 2.79160221 1.0625 4.1875 C1.07410156 4.96480469 1.08570313 5.74210938 1.09765625 6.54296875 C1 9 1 9 0.53125 11.25 C-0.21011965 15.08767819 -0.36316623 18.91405432 -0.5625 22.8125 C-0.60568359 23.60076172 -0.64886719 24.38902344 -0.69335938 25.20117188 C-0.79878321 27.13394215 -0.89983094 29.06695026 -1 31 C-1.33 31 -1.66 31 -2 31 C-3.02411631 20.00617316 -3.33561305 10.66642364 0 0 Z " fill="#0F3082" transform="translate(56,212)"/>
<path d="M0 0 C0.99 0.33 1.98 0.66 3 1 C2.67 1.99 2.34 2.98 2 4 C3.65 4.33 5.3 4.66 7 5 C7 5.33 7 5.66 7 6 C-0.57771707 6.50146657 -5.45783241 5.94998798 -12 2 C-11.01 1.67 -10.02 1.34 -9 1 C-8.01 1.66 -7.02 2.32 -6 3 C-5.34 2.34 -4.68 1.68 -4 1 C-3.67 1.99 -3.34 2.98 -3 4 C-2.34 3.67 -1.68 3.34 -1 3 C-1.33 2.34 -1.66 1.68 -2 1 C-1.34 0.67 -0.68 0.34 0 0 Z " fill="#134FB0" transform="translate(54,272)"/>
<path d="M0 0 C0.33 0.99 0.66 1.98 1 3 C0.34 3 -0.32 3 -1 3 C-1 3.66 -1 4.32 -1 5 C-2.32 5.33 -3.64 5.66 -5 6 C-3.35 6 -1.7 6 0 6 C-0.99 6.66 -1.98 7.32 -3 8 C-3.33 8.66 -3.66 9.32 -4 10 C-4.99 10 -5.98 10 -7 10 C-7.66 9.01 -8.32 8.02 -9 7 C-8.25675659 4.60510457 -7.52942646 3.29222384 -5.30859375 2.06640625 C-3.55926499 1.32780077 -1.78065851 0.65950315 0 0 Z " fill="#1150B1" transform="translate(196,127)"/>
<path d="M0 0 C8.25 0 16.5 0 25 0 C16.60827291 4.19586354 8.96561091 2.83559885 0 1 C0 0.67 0 0.34 0 0 Z " fill="#042D89" transform="translate(193,248)"/>
<path d="M0 0 C0.66 0.33 1.32 0.66 2 1 C2.33 1.99 2.66 2.98 3 4 C4.65 4.33 6.3 4.66 8 5 C8 5.33 8 5.66 8 6 C1.73 6 -4.54 6 -11 6 C-11 5.34 -11 4.68 -11 4 C-9.54176788 3.9729957 -8.08339325 3.95360213 -6.625 3.9375 C-5.81289062 3.92589844 -5.00078125 3.91429687 -4.1640625 3.90234375 C-2 4 -2 4 0 5 C0 3.35 0 1.7 0 0 Z " fill="#1050B0" transform="translate(211,242)"/>
<path d="M0 0 C0.66 0.66 1.32 1.32 2 2 C-0.64 7.61 -3.28 13.22 -6 19 C-6.99 19 -7.98 19 -9 19 C-6.03 12.73 -3.06 6.46 0 0 Z " fill="#0B2C78" transform="translate(121,176)"/>
<path d="M0 0 C0 0.99 0 1.98 0 3 C-0.928125 3.4021875 -0.928125 3.4021875 -1.875 3.8125 C-4.2995233 4.95556848 -4.2995233 4.95556848 -6 8 C-6.99 8 -7.98 8 -9 8 C-9.33 8.66 -9.66 9.32 -10 10 C-10.33 9.34 -10.66 8.68 -11 8 C-3.21621622 0 -3.21621622 0 0 0 Z " fill="#144BAF" transform="translate(90,151)"/>
<path d="M0 0 C0 0.66 0 1.32 0 2 C-6.07841789 4.84964058 -10.37579029 6.72805471 -17 5 C-17 4.67 -17 4.34 -17 4 C-16.08476562 3.79503906 -15.16953125 3.59007812 -14.2265625 3.37890625 C-13.03804687 3.10949219 -11.84953125 2.84007812 -10.625 2.5625 C-8.84996094 2.16224609 -8.84996094 2.16224609 -7.0390625 1.75390625 C-4.51248653 1.12713355 -2.55757024 0 0 0 Z " fill="#112A77" transform="translate(191,128)"/>
<path d="M0 0 C0.66 1.32 1.32 2.64 2 4 C0.68 3.67 -0.64 3.34 -2 3 C-2 3.66 -2 4.32 -2 5 C-2 5.66 -2 6.32 -2 7 C-3.65 6.67 -5.3 6.34 -7 6 C-6.3125 3.5625 -6.3125 3.5625 -5 1 C-2.375 0.1875 -2.375 0.1875 0 0 Z " fill="#0848A8" transform="translate(166,169)"/>
<path d="M0 0 C0.33 0 0.66 0 1 0 C1 2.97 1 5.94 1 9 C-1.97 8.505 -1.97 8.505 -5 8 C-4.34 7.67 -3.68 7.34 -3 7 C-2.65846063 5.33499557 -2.32550502 3.66821323 -2 2 C-1.34 1.34 -0.68 0.68 0 0 Z " fill="#0750AF" transform="translate(245,47)"/>
<path d="M0 0 C0.33 0 0.66 0 1 0 C1.19672365 1.72814161 1.38196799 3.45759197 1.5625 5.1875 C1.66691406 6.15042969 1.77132812 7.11335937 1.87890625 8.10546875 C1.99758751 10.94233377 1.67765639 13.25423671 1 16 C-1.83139051 11.57595232 -1.3540529 7.08006077 -0.5 2.0625 C-0.335 1.381875 -0.17 0.70125 0 0 Z " fill="#182E73" transform="translate(59,150)"/>
<path d="M0 0 C0.33 0 0.66 0 1 0 C0.44687265 4.02992782 -0.1558062 8.02022924 -1 12 C-1.66 12 -2.32 12 -3 12 C-2.88541307 10.56163249 -2.75790884 9.12429034 -2.625 7.6875 C-2.55539063 6.88699219 -2.48578125 6.08648437 -2.4140625 5.26171875 C-2 3 -2 3 0 0 Z " fill="#0D207A" transform="translate(55,99)"/>
<path d="M0 0 C0.99 0.33 1.98 0.66 3 1 C0.03 3.64 -2.94 6.28 -6 9 C-6.66 8.34 -7.32 7.68 -8 7 C-6.74057614 5.80040625 -5.46704714 4.61560557 -4.1875 3.4375 C-3.12595703 2.44556641 -3.12595703 2.44556641 -2.04296875 1.43359375 C-1.36878906 0.96050781 -0.69460937 0.48742187 0 0 Z " fill="#0F2973" transform="translate(173,158)"/>
<path d="M0 0 C2 1 2 1 2 1 Z M-1 1 C-1 1.99 -1 2.98 -1 4 C-1.598125 4.268125 -2.19625 4.53625 -2.8125 4.8125 C-4.97224808 5.98493467 -6.35790256 7.19369282 -8 9 C-8 7.35 -8 5.7 -8 4 C-5.69 3.01 -3.38 2.02 -1 1 Z " fill="#1050B1" transform="translate(119,195)"/>
<path d="M0 0 C2.4044979 1.88178097 2.99790027 2.99224715 3.8125 6 C4 9 4 9 2 12 C0.40861915 7.82262526 -0.21278058 4.46839215 0 0 Z " fill="#081F6D" transform="translate(51,125)"/>
<path d="M0 0 C0.66 0.33 1.32 0.66 2 1 C1.195625 1.61875 0.39125 2.2375 -0.4375 2.875 C-3.03874519 4.74164041 -3.03874519 4.74164041 -4 7 C-4.99 6.67 -5.98 6.34 -7 6 C-7 5.34 -7 4.68 -7 4 C-1.7265625 0.77734375 -1.7265625 0.77734375 0 0 Z " fill="#11184B" transform="translate(184,90)"/>
<path d="M0 0 C2.31 0 4.62 0 7 0 C7.33 0.99 7.66 1.98 8 3 C4.37673261 4.2077558 3.35853631 3.54311128 0 2 C0 1.34 0 0.68 0 0 Z " fill="#154CA7" transform="translate(173,134)"/>
<path d="M0 0 C0.99 0.99 1.98 1.98 3 3 C2.01 4.485 2.01 4.485 1 6 C-0.32 6 -1.64 6 -3 6 C-1.125 1.125 -1.125 1.125 0 0 Z " fill="#0C50B5" transform="translate(201,123)"/>
<path d="M0 0 C0.33 0.99 0.66 1.98 1 3 C1.66 3.33 2.32 3.66 3 4 C2.34 5.65 1.68 7.3 1 9 C0.34 8.67 -0.32 8.34 -1 8 C-1.125 2.25 -1.125 2.25 0 0 Z " fill="#1752B2" transform="translate(113,183)"/>
<path d="M0 0 C0.99 0.99 1.98 1.98 3 3 C1.02 4.32 -0.96 5.64 -3 7 C-3.33 6.34 -3.66 5.68 -4 5 C-2.68 3.35 -1.36 1.7 0 0 Z " fill="#132D7F" transform="translate(176,95)"/>
<path d="M0 0 C0.99 0 1.98 0 3 0 C3 0.66 3 1.32 3 2 C4.65 2 6.3 2 8 2 C8 2.33 8 2.66 8 3 C4.7 3.66 1.4 4.32 -2 5 C-1 2 -1 2 0 1 C0 0.67 0 0.34 0 0 Z " fill="#1551B1" transform="translate(87,62)"/>
<path d="M0 0 C0.66 0.33 1.32 0.66 2 1 C0.73867769 3.52264461 -0.61438008 4.52652887 -3 6 C-3.99 5.67 -4.98 5.34 -6 5 C-4.02 3.35 -2.04 1.7 0 0 Z " fill="#1350B3" transform="translate(169,164)"/>
<path d="M0 0 C0.66 0 1.32 0 2 0 C3.125 2.8125 3.125 2.8125 4 6 C3.01 7.485 3.01 7.485 2 9 C1.34 6.03 0.68 3.06 0 0 Z " fill="#122F82" transform="translate(115,78)"/>
<path d="M0 0 C0.66 0 1.32 0 2 0 C2.33 1.32 2.66 2.64 3 4 C1.35 5.32 -0.3 6.64 -2 8 C-1.34 5.36 -0.68 2.72 0 0 Z " fill="#1251B6" transform="translate(64,77)"/>
</svg>
